<?xml version="1.0" encoding="UTF-8"?>
<svg width="16px" height="16px" viewBox="0 0 16 16" version="1.1" xmlns="http://www.w3.org/2000/svg" xmlns:xlink="http://www.w3.org/1999/xlink">
    <!-- Generator: Sketch 47.1 (45422) - http://www.bohemiancoding.com/sketch -->
    <title>Fill 884</title>
    <desc>Created with Sketch.</desc>
    <defs></defs>
    <g id="Page-1" stroke="none" stroke-width="1" fill="none" fill-rule="evenodd">
        <g id="New" transform="translate(-447.000000, -274.000000)" fill="#333333">
            <g id="DashboardSummary-New-V4" transform="translate(226.000000, 137.000000)">
                <g id="Models" transform="translate(0.000000, 116.000000)">
                    <g id="View-More---Gray" transform="translate(208.000000, 12.000000)">
                        <path d="M20.7578,22.6904 C17.4378,22.6904 14.7358,19.9884 14.7358,16.6684 C14.7358,13.3464 17.4378,10.6454 20.7578,10.6454 C24.0788,10.6454 26.7798,13.3464 26.7798,16.6684 C26.7798,19.9884 24.0788,22.6904 20.7578,22.6904 L20.7578,22.6904 Z M20.7578,9.2544 C16.6638,9.2544 13.3458,12.5744 13.3458,16.6684 C13.3458,20.7614 16.6638,24.0804 20.7578,24.0804 C24.8518,24.0804 28.1708,20.7614 28.1708,16.6684 C28.1708,12.5744 24.8518,9.2544 20.7578,9.2544 L20.7578,9.2544 Z M20.0698,13.6074 L20.0688,13.6094 C19.9448,13.4964 19.7808,13.4244 19.5998,13.4244 C19.2158,13.4244 18.9038,13.7364 18.9038,14.1204 C18.9038,14.3224 18.9928,14.5024 19.1308,14.6294 L19.1298,14.6314 L21.3508,16.6684 L19.1298,18.7044 L19.1308,18.7064 C18.9928,18.8324 18.9038,19.0124 18.9038,19.2154 C18.9038,19.5994 19.2158,19.9114 19.5998,19.9114 C19.7808,19.9114 19.9448,19.8394 20.0688,19.7264 L20.0698,19.7284 L22.8488,17.1804 C22.9918,17.0474 23.0738,16.8634 23.0738,16.6684 C23.0738,16.4724 22.9918,16.2874 22.8488,16.1554 L20.0698,13.6074 Z" id="Fill-884"></path>
                    </g>
                </g>
            </g>
        </g>
    </g>
</svg>