<svg id="Layer_1" data-name="Layer 1" xmlns="http://www.w3.org/2000/svg" xmlns:xlink="http://www.w3.org/1999/xlink" viewBox="0 0 1386.62 400"><defs><style>.cls-1,.cls-9{fill:#fff;}.cls-2{fill:url(#linear-gradient);}.cls-3{fill:url(#linear-gradient-2);}.cls-4{fill:url(#linear-gradient-3);}.cls-5{fill:url(#linear-gradient-4);}.cls-6{fill:url(#linear-gradient-5);}.cls-7{fill:url(#linear-gradient-6);}.cls-8{fill:url(#linear-gradient-7);}.cls-9{fill-rule:evenodd;}</style><linearGradient id="linear-gradient" x1="74.62" y1="33.66" x2="353.79" y2="366.36" gradientUnits="userSpaceOnUse"><stop offset="0.16" stop-color="#1a6ba1"/><stop offset="0.27" stop-color="#2679b0"/><stop offset="0.54" stop-color="#4096ce"/><stop offset="0.69" stop-color="#49a1d9"/></linearGradient><linearGradient id="linear-gradient-2" x1="80.62" y1="352.25" x2="80.62" y2="258.01" gradientUnits="userSpaceOnUse"><stop offset="0" stop-color="#2f8ecd"/><stop offset="1" stop-color="#0763a0"/></linearGradient><linearGradient id="linear-gradient-3" x1="157.11" y1="304.08" x2="106.04" y2="304.08" xlink:href="#linear-gradient-2"/><linearGradient id="linear-gradient-4" x1="184.13" x2="184.13" y2="178.66" xlink:href="#linear-gradient-2"/><linearGradient id="linear-gradient-5" x1="265.19" y1="264.34" x2="211.15" y2="264.34" xlink:href="#linear-gradient-2"/><linearGradient id="linear-gradient-6" x1="292.21" x2="292.21" y2="106.24" xlink:href="#linear-gradient-2"/><linearGradient id="linear-gradient-7" x1="373.2" y1="228.14" x2="319.23" y2="228.14" xlink:href="#linear-gradient-2"/></defs><title>Artboard 1</title><g id="Back"><rect class="cls-1" x="51.38" y="46.39" width="325.39" height="308.28"/><rect class="cls-2" x="55.21" y="49.94" width="317.98" height="300.15"/></g><g id="A"><polygon class="cls-3" points="106.03 352.25 55.21 352.25 55.21 294.36 106.03 258.01 106.03 352.25"/><polygon class="cls-4" points="106.03 350.08 157.11 350.08 157.11 294.43 106.03 258.08 106.03 350.08"/><g id="III"><polygon class="cls-1" points="125.81 283.33 125.81 350.08 129.84 350.08 129.84 286.24 125.81 283.33"/><polygon class="cls-1" points="117.37 277.4 117.37 350.08 121.4 350.08 121.4 280.31 117.37 277.4"/><polygon class="cls-1" points="109.19 271.44 109.19 350.08 113.22 350.08 113.22 274.35 109.19 271.44"/><polygon class="cls-1" points="150.63 300.98 150.63 350.08 154.65 350.08 154.65 303.88 150.63 300.98"/><polygon class="cls-1" points="142.31 295.06 142.31 350.08 146.34 350.08 146.34 297.97 142.31 295.06"/><polygon class="cls-1" points="134.13 289.18 134.13 350.08 138.16 350.08 138.16 292.08 134.13 289.18"/></g><polygon class="cls-1" points="82.58 312.63 86.61 310.92 86.61 305.58 82.58 307.52 82.58 312.63"/><polygon class="cls-1" points="82.58 291.54 86.61 288.87 86.62 282.99 82.6 285.89 82.58 291.54"/><polygon class="cls-1" points="82.58 333.86 86.61 333.12 86.61 327.75 82.58 328.73 82.58 333.86"/><polygon class="cls-1" points="91.02 285.94 95.05 283.27 95.05 276.98 91.02 279.89 91.02 285.94"/><polygon class="cls-1" points="91.02 309.04 95.05 307.33 95.05 301.51 91.02 303.45 91.02 309.04"/><polygon class="cls-1" points="91.02 297.47 95.05 295.28 95.05 289.48 91.02 291.9 91.02 297.47"/><polygon class="cls-1" points="91.02 332.31 95.05 331.57 95.05 325.71 91.02 326.68 91.02 332.31"/><polygon class="cls-1" points="91.02 320.65 95.05 319.43 95.05 313.59 91.02 315.05 91.02 320.65"/><polygon class="cls-1" points="99.2 305.57 103.23 303.86 103.23 297.56 99.2 299.51 99.2 305.57"/><polygon class="cls-1" points="99.2 293.02 103.23 290.82 103.23 284.55 99.2 286.98 99.2 293.02"/><polygon class="cls-1" points="99.2 330.81 103.23 330.07 103.23 323.73 99.2 324.7 99.2 330.81"/><polygon class="cls-1" points="99.2 274.07 99.2 280.51 103.23 277.84 103.23 271.17 99.2 274.07"/><polygon class="cls-1" points="99.2 346.09 103.23 346.09 103.23 338.43 99.2 338.91 99.2 346.09"/><polygon class="cls-1" points="57.77 338.43 61.79 337.69 61.79 333.76 57.77 334.73 57.77 338.43"/><polygon class="cls-1" points="57.76 303.56 57.77 308 61.79 305.33 61.78 300.66 57.76 303.56"/><polygon class="cls-1" points="57.77 330.78 61.79 329.55 61.79 325.64 57.77 327.1 57.77 330.78"/><polygon class="cls-1" points="57.77 315.56 61.79 313.37 61.79 309.49 57.77 311.91 57.77 315.56"/><polygon class="cls-1" points="57.77 346.1 61.79 346.09 61.79 342.4 57.77 342.89 57.77 346.1"/><polygon class="cls-1" points="66.08 311.04 70.11 308.85 70.11 304.49 66.08 306.91 66.08 311.04"/><polygon class="cls-1" points="66.08 319.63 70.11 317.92 70.11 313.54 66.08 315.48 66.08 319.63"/><polygon class="cls-1" points="66.08 328.25 70.11 327.02 70.11 322.63 66.08 324.08 66.08 328.25"/><polygon class="cls-1" points="66.08 346.09 70.11 346.09 70.11 341.32 66.08 341.81 66.08 346.09"/><polygon class="cls-1" points="66.03 297.68 66.08 302.48 70.11 299.81 70.05 294.78 66.03 297.68"/><polygon class="cls-1" points="74.26 346.09 78.29 346.09 78.29 340.38 74.26 340.87 74.26 346.09"/><polygon class="cls-1" points="74.26 306.59 78.29 304.4 78.29 299.56 74.26 301.98 74.26 306.59"/><polygon class="cls-1" points="74.25 291.82 74.26 297.06 78.29 294.38 78.28 288.92 74.25 291.82"/><polygon class="cls-1" points="74.26 335.39 78.29 334.65 78.29 329.76 74.26 330.74 74.26 335.39"/><polygon class="cls-1" points="74.26 316.15 78.29 314.44 78.29 309.59 74.26 311.53 74.26 316.15"/><polygon class="cls-1" points="74.26 325.76 78.29 324.53 78.29 319.66 74.26 321.12 74.26 325.76"/></g><g id="B"><polygon class="cls-5" points="211.15 352.25 157.11 352.25 157.11 217.13 211.15 178.66 211.15 352.25"/><polygon class="cls-6" points="211.15 350.02 265.19 350.02 265.19 217.13 211.15 178.66 211.15 350.02"/><g id="III-2" data-name="III"><polygon class="cls-1" points="232.06 209.26 232.06 350.08 236.09 350.08 236.09 212.17 232.06 209.26"/><polygon class="cls-1" points="223.62 203.36 223.62 350.08 227.64 350.08 227.64 206.27 223.62 203.36"/><polygon class="cls-1" points="215.43 197.45 215.43 350.08 219.46 350.08 219.46 200.36 215.43 197.45"/><polygon class="cls-1" points="256.87 226.92 256.87 350.08 260.9 350.08 260.9 229.83 256.87 226.92"/><polygon class="cls-1" points="248.56 221.03 248.56 350.08 252.59 350.08 252.59 223.94 248.56 221.03"/><polygon class="cls-1" points="240.38 215.19 240.38 350.08 244.4 350.08 244.4 218.09 240.38 215.19"/></g><g id="Windows"><path class="cls-1" d="M186,231.17v5l4-2.3v-5.11Z"/><path class="cls-1" d="M186,212.22V218l4-2.67v-5.84Z"/><path class="cls-1" d="M186,222.06v5l4-2.49v-5.11Z"/><path class="cls-1" d="M173.64,286v-4.7l-4,1.48v4.61Z"/><path class="cls-1" d="M173.64,294.58v-4.7l-4,1.3v4.61Z"/><path class="cls-1" d="M173.64,303.13v-4.7l-4,1.12v4.61Z"/><path class="cls-1" d="M173.64,268.92v-4.7l-4,1.84v4.6Z"/><path class="cls-1" d="M173.64,311.68V307l-4,.94v4.61Z"/><path class="cls-1" d="M173.64,328.78v-4.7l-4,.59v4.61Z"/><path class="cls-1" d="M173.64,337.33v-4.7l-4,.41v4.61Z"/><path class="cls-1" d="M173.64,320.23v-4.7l-4,.77v4.61Z"/><path class="cls-1" d="M173.64,260.37v-4.7l-4,2v4.6Z"/><path class="cls-1" d="M173.64,226.16V221l-4,2.73v5Z"/><path class="cls-1" d="M173.64,234.71V230l-4,2.55v4.6Z"/><path class="cls-1" d="M173.64,251.82v-4.7l-4,2.19v4.6Z"/><path class="cls-1" d="M181.73,229.71v-4.9l-4,2.57v4.8Z"/><path class="cls-1" d="M181.73,220.79v-5.21l-4,2.75v5.11Z"/><path class="cls-1" d="M181.73,256.45v-4.9l-4,2v4.8Z"/><path class="cls-1" d="M181.73,238.62v-4.9l-4,2.39v4.8Z"/><path class="cls-1" d="M181.73,265.37v-4.9l-4,1.85v4.8Z"/><path class="cls-1" d="M181.73,247.54v-4.9l-4,2.21v4.8Z"/><path class="cls-1" d="M177.74,340.94v5.15h4v-5.38Z"/><path class="cls-1" d="M181.73,274.29v-4.9l-4,1.67v4.81Z"/><path class="cls-1" d="M186,304v5l4-.86v-5.11Z"/><path class="cls-1" d="M181.73,283.2v-4.9l-4,1.49v4.81Z"/><path class="cls-1" d="M186,285.81v5l4-1.22V284.5Z"/><path class="cls-1" d="M186,294.92v5l4-1v-5.11Z"/><path class="cls-1" d="M186,276.71v5l4-1.4v-5.11Z"/><path class="cls-1" d="M186,258.49v5l4-1.76v-5.11Z"/><path class="cls-1" d="M186,267.6v5l4-1.58v-5.11Z"/><path class="cls-1" d="M186,240.27v5l4-2.12v-5.11Z"/><path class="cls-1" d="M181.73,301v-4.9l-4,1.13v4.81Z"/><path class="cls-1" d="M181.73,292.12v-4.9l-4,1.31v4.81Z"/><path class="cls-1" d="M181.73,318.87V314l-4,.77v4.81Z"/><path class="cls-1" d="M181.73,327.78v-4.9l-4,.59v4.8Z"/><path class="cls-1" d="M181.73,336.7v-4.9l-4,.41V337Z"/><path class="cls-1" d="M202.65,206.89l4.07-2.7v-6.64l-4.07,2.8Z"/><path class="cls-1" d="M165.47,341.66l-3.94.23v4.21h3.94Z"/><path class="cls-1" d="M165.47,325.29l-3.94.58v4.4l3.94-.49Z"/><path class="cls-1" d="M202.65,346.09h4.07v-6.84l-4.07.24Z"/><path class="cls-1" d="M165.47,333.47l-3.94.41v4.4l3.94-.31Z"/><path class="cls-1" d="M202.65,305.48l4.07-.87v-5.52l-4.07,1Z"/><path class="cls-1" d="M202.65,335.06l4.07-.32v-5.52l-4.07.42Z"/><path class="cls-1" d="M165.47,300.74l-3.94,1.12v4.4l3.94-1Z"/><path class="cls-1" d="M165.47,243.45l-3.94,2.36v4.4l3.94-2.26Z"/><path class="cls-1" d="M165.47,308.92l-3.94.94v4.4l3.94-.84Z"/><path class="cls-1" d="M165.47,268l-3.94,1.83v4.4l3.94-1.73Z"/><path class="cls-1" d="M165.47,251.64l-3.94,2.18v4.4l3.94-2.08Z"/><path class="cls-1" d="M202.65,295.62l4.07-1.05V289l-4.07,1.15Z"/><path class="cls-1" d="M165.47,284.37l-3.94,1.47v4.4l3.94-1.37Z"/><path class="cls-1" d="M165.47,292.55l-3.94,1.29v4.4l3.94-1.2Z"/><path class="cls-1" d="M165.47,276.19l-3.94,1.65v4.4l3.94-1.55Z"/><path class="cls-1" d="M202.65,246.33l4.07-2v-5.52l-4.07,2.07Z"/><path class="cls-1" d="M202.65,256.19l4.07-1.79v-5.52l-4.07,1.89Z"/><path class="cls-1" d="M202.65,285.76l4.07-1.24V279l-4.07,1.34Z"/><path class="cls-1" d="M202.65,236.47l4.07-2.15v-5.52L202.65,231Z"/><path class="cls-1" d="M202.65,226.61l4.07-2.34v-5.52l-4.07,2.44Z"/><path class="cls-1" d="M194.42,216.63v5.22l4-2.5V214Z"/><path class="cls-1" d="M194.42,235.6v5.22l4-2.14v-5.32Z"/><path class="cls-1" d="M194.42,254.58v5.22l4-1.77v-5.32Z"/><path class="cls-1" d="M194.42,245.09v5.22l4-2V243Z"/><path class="cls-1" d="M194.42,206.21v6.15l4-2.69v-6.25Z"/><path class="cls-1" d="M194.42,321v5.22l4-.5V320.4Z"/><path class="cls-1" d="M194.42,302v5.22l4-.86v-5.32Z"/><path class="cls-1" d="M194.42,311.51v5.22l4-.68v-5.32Z"/><path class="cls-1" d="M194.42,292.53v5.22l4-1v-5.32Z"/><path class="cls-1" d="M165.47,227.09l-3.94,2.71v4.4l3.94-2.61Z"/><path class="cls-1" d="M165.47,235.27l-3.94,2.53v4.4l3.94-2.44Z"/></g></g><g id="C"><polygon class="cls-7" points="319.23 352.25 265.19 352.25 265.19 144.72 319.23 106.24 319.23 352.25"/><polygon class="cls-8" points="319.23 350.04 373.2 350.02 373.2 144.71 319.23 106.24 319.23 350.04"/><g id="III-3" data-name="III"><polygon class="cls-1" points="339.84 131.98 339.84 350.07 343.86 350.07 343.86 134.89 339.84 131.98"/><polygon class="cls-1" points="331.39 126 331.39 350.07 335.42 350.07 335.42 128.91 331.39 126"/><polygon class="cls-1" points="323.21 120.2 323.21 350.07 327.24 350.07 327.24 123.11 323.21 120.2"/><polygon class="cls-1" points="364.65 149.64 364.65 350.07 368.68 350.07 368.68 152.55 364.65 149.64"/><polygon class="cls-1" points="356.33 143.81 356.33 350.07 360.36 350.07 360.36 146.71 356.33 143.81"/><polygon class="cls-1" points="348.15 137.96 348.15 350.07 352.18 350.07 352.18 140.86 348.15 137.96"/></g><polygon class="cls-9" points="294.29 230.15 298.31 228.65 298.31 224.14 294.29 225.69 294.29 230.15"/><polygon class="cls-9" points="294.29 265.79 298.31 264.74 298.31 260.23 294.29 261.34 294.29 265.79"/><polygon class="cls-9" points="294.29 256.88 298.31 255.72 298.31 251.21 294.29 252.43 294.29 256.88"/><polygon class="cls-9" points="294.29 274.7 298.31 273.76 298.31 269.25 294.29 270.25 294.29 274.7"/><polygon class="cls-9" points="294.29 319.26 298.31 318.87 298.31 314.36 294.29 314.8 294.29 319.26"/><polygon class="cls-9" points="294.29 310.35 298.31 309.85 298.31 305.34 294.29 305.89 294.29 310.35"/><polygon class="cls-9" points="294.29 301.44 298.31 300.82 298.31 296.31 294.29 296.98 294.29 301.44"/><polygon class="cls-9" points="294.29 292.52 298.31 291.8 298.31 287.29 294.29 288.07 294.29 292.52"/><polygon class="cls-9" points="294.29 141.04 298.31 138.44 298.31 132.5 294.29 135.16 294.29 141.04"/><polygon class="cls-9" points="294.29 221.24 298.31 219.63 298.31 215.12 294.29 216.78 294.29 221.24"/><polygon class="cls-9" points="294.29 158.86 298.31 156.48 298.31 151.97 294.29 154.41 294.29 158.86"/><polygon class="cls-9" points="294.29 167.77 298.31 165.5 298.31 160.99 294.29 163.32 294.29 167.77"/><polygon class="cls-9" points="294.29 337.08 298.31 336.91 298.31 332.4 294.29 332.62 294.29 337.08"/><polygon class="cls-9" points="294.29 149.95 298.31 147.46 298.31 142.95 294.29 145.5 294.29 149.95"/><polygon class="cls-9" points="294.29 212.33 298.31 210.61 298.31 206.1 294.29 207.87 294.29 212.33"/><polygon class="cls-9" points="294.29 185.6 298.31 183.54 298.31 179.03 294.29 181.14 294.29 185.6"/><polygon class="cls-9" points="294.29 194.51 298.31 192.57 298.31 188.06 294.29 190.05 294.29 194.51"/><polygon class="cls-9" points="302.73 346.09 306.75 346.09 306.75 341.19 302.73 341.3 302.73 346.09"/><polygon class="cls-9" points="302.73 281.87 306.75 281.04 306.75 276.41 302.73 277.3 302.73 281.87"/><polygon class="cls-9" points="302.73 236.15 306.75 234.77 306.75 230.14 302.73 231.58 302.73 236.15"/><polygon class="cls-9" points="302.73 245.3 306.75 244.02 306.75 239.4 302.73 240.73 302.73 245.3"/><polygon class="cls-9" points="302.73 254.44 306.75 253.28 306.75 248.65 302.73 249.87 302.73 254.44"/><polygon class="cls-9" points="302.73 327.59 306.75 327.31 306.75 322.68 302.73 323.01 302.73 327.59"/><polygon class="cls-9" points="302.73 300.16 306.75 299.55 306.75 294.92 302.73 295.58 302.73 300.16"/><polygon class="cls-9" points="302.73 318.44 306.75 318.06 306.75 313.43 302.73 313.87 302.73 318.44"/><polygon class="cls-9" points="302.73 309.3 306.75 308.8 306.75 304.17 302.73 304.73 302.73 309.3"/><polygon class="cls-9" points="302.73 272.73 306.75 271.79 306.75 267.16 302.73 268.15 302.73 272.73"/><polygon class="cls-9" points="302.73 163.01 306.75 160.74 306.75 156.11 302.73 158.44 302.73 163.01"/><polygon class="cls-9" points="302.73 172.15 306.75 169.99 306.75 165.36 302.73 167.58 302.73 172.15"/><polygon class="cls-9" points="302.73 227.01 306.75 225.51 306.75 220.89 302.73 222.44 302.73 227.01"/><polygon class="cls-9" points="302.73 144.72 306.75 142.23 306.75 137.6 302.73 140.15 302.73 144.72"/><polygon class="cls-9" points="302.73 153.87 306.75 151.48 306.75 146.86 302.73 149.29 302.73 153.87"/><polygon class="cls-9" points="302.73 181.3 306.75 179.25 306.75 174.62 302.73 176.72 302.73 181.3"/><polygon class="cls-9" points="302.73 208.73 306.75 207.01 306.75 202.38 302.73 204.15 302.73 208.73"/><polygon class="cls-9" points="302.73 217.87 306.75 216.26 306.75 211.63 302.73 213.3 302.73 217.87"/><polygon class="cls-9" points="302.73 199.58 306.75 197.75 306.75 193.13 302.73 195.01 302.73 199.58"/><polygon class="cls-9" points="302.73 190.44 306.75 188.5 306.75 183.87 302.73 185.87 302.73 190.44"/><polygon class="cls-9" points="310.91 223.97 314.94 222.47 314.94 217.73 310.91 219.29 310.91 223.97"/><polygon class="cls-9" points="310.91 242.71 314.94 241.43 314.94 236.69 310.91 238.02 310.91 242.71"/><polygon class="cls-9" points="310.91 233.34 314.94 231.95 314.94 227.21 310.91 228.65 310.91 233.34"/><polygon class="cls-9" points="310.91 195.87 314.94 194.04 314.94 189.3 310.91 191.18 310.91 195.87"/><polygon class="cls-9" points="310.91 252.07 314.94 250.91 314.94 246.17 310.91 247.39 310.91 252.07"/><polygon class="cls-9" points="310.91 177.13 314.94 175.08 314.94 170.34 310.91 172.44 310.91 177.13"/><polygon class="cls-9" points="310.91 186.5 314.94 184.56 314.94 179.82 310.91 181.81 310.91 186.5"/><polygon class="cls-9" points="310.91 167.76 314.94 165.6 314.94 160.86 310.91 163.08 310.91 167.76"/><polygon class="cls-9" points="310.91 308.29 314.94 307.79 314.94 303.05 310.91 303.6 310.91 308.29"/><polygon class="cls-9" points="310.91 327.02 314.94 326.75 314.94 322.01 310.91 322.34 310.91 327.02"/><polygon class="cls-9" points="310.91 336.39 314.94 336.23 314.94 331.49 310.91 331.71 310.91 336.39"/><polygon class="cls-9" points="310.91 346.09 314.94 346.09 314.94 340.96 310.91 341.07 310.91 346.09"/><polygon class="cls-9" points="310.91 123.32 310.91 130.29 314.94 127.68 314.94 120.66 310.91 123.32"/><polygon class="cls-9" points="310.91 280.18 314.94 279.35 314.94 274.61 310.91 275.5 310.91 280.18"/><polygon class="cls-9" points="310.91 270.81 314.94 269.87 314.94 265.13 310.91 266.13 310.91 270.81"/><polygon class="cls-9" points="310.91 261.44 314.94 260.39 314.94 255.65 310.91 256.76 310.91 261.44"/><polygon class="cls-9" points="310.91 289.55 314.94 288.83 314.94 284.09 310.91 284.87 310.91 289.55"/><polygon class="cls-9" points="310.91 298.92 314.94 298.31 314.94 293.57 310.91 294.23 310.91 298.92"/><polygon class="cls-9" points="310.91 158.39 314.94 156.12 314.94 151.38 310.91 153.71 310.91 158.39"/><polygon class="cls-9" points="273.5 300.41 269.47 301.08 269.47 305.19 273.5 304.58 273.5 300.41"/><polygon class="cls-9" points="273.5 225.37 269.47 227.03 269.47 231.14 273.5 229.53 273.5 225.37"/><polygon class="cls-9" points="273.5 217.03 269.47 218.8 269.47 222.91 273.5 221.2 273.5 217.03"/><polygon class="cls-9" points="273.5 292.07 269.47 292.85 269.47 296.96 273.5 296.24 273.5 292.07"/><polygon class="cls-9" points="273.5 308.75 269.47 309.31 269.47 313.42 273.5 312.92 273.5 308.75"/><polygon class="cls-9" points="273.5 233.7 269.47 235.26 269.47 239.37 273.5 237.87 273.5 233.7"/><polygon class="cls-9" points="273.5 183.67 269.47 185.89 269.47 190 273.5 187.84 273.5 183.67"/><polygon class="cls-9" points="273.5 208.69 269.47 210.57 269.47 214.69 273.5 212.86 273.5 208.69"/><polygon class="cls-9" points="273.5 175.33 269.47 177.66 269.47 181.78 273.5 179.5 273.5 175.33"/><polygon class="cls-9" points="273.5 317.09 269.47 317.53 269.47 321.65 273.5 321.26 273.5 317.09"/><polygon class="cls-9" points="273.5 242.04 269.47 243.48 269.47 247.6 273.5 246.21 273.5 242.04"/><polygon class="cls-9" points="273.5 250.38 269.47 251.71 269.47 255.82 273.5 254.55 273.5 250.38"/><polygon class="cls-9" points="269.47 342.22 269.47 346.09 273.5 346.09 273.5 342.11 269.47 342.22"/><polygon class="cls-9" points="273.5 258.72 269.47 259.94 269.47 264.05 273.5 262.89 273.5 258.72"/><polygon class="cls-9" points="273.5 158.66 269.47 161.21 269.47 165.32 273.5 162.83 273.5 158.66"/><polygon class="cls-9" points="273.5 267.06 269.47 268.17 269.47 272.28 273.5 271.23 273.5 267.06"/><polygon class="cls-9" points="273.5 192.01 269.47 194.12 269.47 198.23 273.5 196.18 273.5 192.01"/><polygon class="cls-9" points="273.5 167 269.47 169.43 269.47 173.55 273.5 171.16 273.5 167"/><polygon class="cls-9" points="273.5 150.06 269.47 152.72 269.47 157.09 273.5 154.49 273.5 150.06"/><polygon class="cls-9" points="273.5 333.77 269.47 333.99 269.47 338.1 273.5 337.94 273.5 333.77"/><polygon class="cls-9" points="273.5 275.4 269.47 276.39 269.47 280.51 273.5 279.57 273.5 275.4"/><polygon class="cls-9" points="281.81 187.66 277.79 189.77 277.79 194 281.81 191.95 281.81 187.66"/><polygon class="cls-9" points="281.81 204.8 277.79 206.68 277.79 210.91 281.81 209.08 281.81 204.8"/><polygon class="cls-9" points="281.81 196.23 277.79 198.23 277.79 202.45 281.81 200.51 281.81 196.23"/><polygon class="cls-9" points="281.81 179.09 277.79 181.31 277.79 185.54 281.81 183.38 281.81 179.09"/><polygon class="cls-9" points="281.81 170.53 277.79 172.86 277.79 177.08 281.81 174.81 281.81 170.53"/><polygon class="cls-9" points="281.81 161.96 277.79 164.4 277.79 168.63 281.81 166.24 281.81 161.96"/><polygon class="cls-9" points="281.81 299.04 277.79 299.7 277.79 303.93 281.81 303.32 281.81 299.04"/><polygon class="cls-9" points="281.81 247.63 277.79 248.97 277.79 253.19 281.81 251.92 281.81 247.63"/><polygon class="cls-9" points="281.81 273.34 277.79 274.33 277.79 278.56 281.81 277.62 281.81 273.34"/><polygon class="cls-9" points="281.81 144.18 277.79 146.84 277.79 151.71 281.81 149.11 281.81 144.18"/><polygon class="cls-9" points="281.81 264.77 277.79 265.88 277.79 270.11 281.81 269.05 281.81 264.77"/><polygon class="cls-9" points="281.81 290.47 277.79 291.25 277.79 295.48 281.81 294.76 281.81 290.47"/><polygon class="cls-9" points="281.81 256.2 277.79 257.42 277.79 261.65 281.81 260.49 281.81 256.2"/><polygon class="cls-9" points="281.81 230.5 277.79 232.05 277.79 236.28 281.81 234.78 281.81 230.5"/><polygon class="cls-9" points="281.81 324.74 277.79 325.07 277.79 329.3 281.81 329.02 281.81 324.74"/><polygon class="cls-9" points="281.81 333.31 277.79 333.53 277.79 337.76 281.81 337.59 281.81 333.31"/><polygon class="cls-9" points="281.81 307.61 277.79 308.16 277.79 312.39 281.81 311.89 281.81 307.61"/><polygon class="cls-9" points="281.81 239.07 277.79 240.51 277.79 244.74 281.81 243.35 281.81 239.07"/><polygon class="cls-9" points="281.81 213.37 277.79 215.14 277.79 219.37 281.81 217.65 281.81 213.37"/><polygon class="cls-9" points="285.97 155.1 290 152.61 290 148.21 285.97 150.76 285.97 155.1"/><polygon class="cls-9" points="285.97 346.09 290 346.09 290 341.65 285.97 341.76 285.97 346.09"/><polygon class="cls-9" points="285.97 207.19 290 205.36 290 200.97 285.97 202.85 285.97 207.19"/><polygon class="cls-9" points="285.97 241.92 290 240.53 290 236.14 285.97 237.58 285.97 241.92"/><polygon class="cls-9" points="285.97 215.88 290 214.16 290 209.76 285.97 211.53 285.97 215.88"/><polygon class="cls-9" points="285.97 224.56 290 222.95 290 218.55 285.97 220.22 285.97 224.56"/><polygon class="cls-9" points="285.97 233.24 290 231.74 290 227.35 285.97 228.9 285.97 233.24"/><polygon class="cls-9" points="285.97 189.83 290 187.78 290 183.38 285.97 185.49 285.97 189.83"/><polygon class="cls-9" points="285.97 163.78 290 161.4 290 157 285.97 159.44 285.97 163.78"/><polygon class="cls-9" points="285.97 172.47 290 170.19 290 165.8 285.97 168.13 285.97 172.47"/><polygon class="cls-9" points="285.97 328.74 290 328.46 290 324.06 285.97 324.4 285.97 328.74"/><polygon class="cls-9" points="285.97 181.15 290 178.99 290 174.59 285.97 176.81 285.97 181.15"/><polygon class="cls-9" points="285.97 146.42 290 143.81 290 138.34 285.97 141 285.97 146.42"/><polygon class="cls-9" points="285.97 320.06 290 319.67 290 315.27 285.97 315.72 285.97 320.06"/><polygon class="cls-9" points="285.97 294.01 290 293.29 290 288.89 285.97 289.67 285.97 294.01"/><polygon class="cls-9" points="285.97 267.97 290 266.91 290 262.52 285.97 263.63 285.97 267.97"/><polygon class="cls-9" points="285.97 259.28 290 258.12 290 253.72 285.97 254.94 285.97 259.28"/><polygon class="cls-9" points="285.97 285.33 290 284.5 290 280.1 285.97 280.99 285.97 285.33"/><polygon class="cls-9" points="285.97 276.65 290 275.71 290 271.31 285.97 272.31 285.97 276.65"/></g><polygon class="cls-9" points="315.08 146.58 311.06 148.96 311.06 144.28 315.08 141.84 315.08 146.58"/><path class="cls-1" d="M527.81,175.39a9.87,9.87,0,0,1-3.16,7.52,10.83,10.83,0,0,1-7.7,3h-52.3a22.49,22.49,0,0,1-10.75-2.47q-4.64-2.47-4.64-9.2V58.12A12.16,12.16,0,0,1,461.5,46.45H515a10.65,10.65,0,0,1,7.7,3.07,10,10,0,0,1,3.16,7.42,9,9,0,0,1-3.16,7.12,11.26,11.26,0,0,1-7.7,2.77H471v39h40.26a11,11,0,0,1,7.3,2.87,9.1,9.1,0,0,1,3.35,7.22,9.79,9.79,0,0,1-3.06,7.32,10.49,10.49,0,0,1-7.6,3H471V165.7h46a11.15,11.15,0,0,1,7.6,2.87A8.81,8.81,0,0,1,527.81,175.39Z"/><path class="cls-1" d="M576.05,156q-7.21,12.46-14.5,24.92a24.4,24.4,0,0,1-3.75,4.45,8.75,8.75,0,0,1-6.31,2.27,10,10,0,0,1-7.3-3.16,9.84,9.84,0,0,1-3.16-7.12,9.65,9.65,0,0,1,.49-3.07,12.53,12.53,0,0,1,1.09-2.47q8.88-14.83,17.56-29.27t17.56-29.07l-32.17-53.2a12.28,12.28,0,0,1-1.38-5.54,9.67,9.67,0,0,1,3.06-7,9.85,9.85,0,0,1,7.2-3.07A9.68,9.68,0,0,1,561,47a20.49,20.49,0,0,1,4.54,5.54l24.87,43.11,24.87-43.11a23.82,23.82,0,0,1,4.44-5.14,10.69,10.69,0,0,1,6.81-2.77A10.29,10.29,0,0,1,636.54,55a13.92,13.92,0,0,1-1.38,5.34l-32,53.2,34.93,58.34a12.69,12.69,0,0,1,1.09,2.47,9.72,9.72,0,0,1,.49,3.07,10.84,10.84,0,0,1-10.26,10.28,9.23,9.23,0,0,1-6.31-2.08,20.23,20.23,0,0,1-3.95-4.65l-28.81-49.84Q583.25,143.55,576.05,156Z"/><path class="cls-1" d="M734.42,175.39a9.87,9.87,0,0,1-3.16,7.52,10.83,10.83,0,0,1-7.7,3h-52.3a22.49,22.49,0,0,1-10.75-2.47q-4.64-2.47-4.64-9.2V58.12a12.16,12.16,0,0,1,12.24-11.67h53.48a10.64,10.64,0,0,1,7.7,3.07,10,10,0,0,1,3.16,7.42,9,9,0,0,1-3.16,7.12,11.25,11.25,0,0,1-7.7,2.77h-44v39h40.26a11,11,0,0,1,7.3,2.87,9.11,9.11,0,0,1,3.35,7.22,9.79,9.79,0,0,1-3.06,7.32,10.49,10.49,0,0,1-7.6,3H677.58V165.7h46a11.15,11.15,0,0,1,7.6,2.87A8.81,8.81,0,0,1,734.42,175.39Z"/><path class="cls-1" d="M747.83,95.69a72.42,72.42,0,0,1,2.86-21,42.7,42.7,0,0,1,8.68-16.12,39,39,0,0,1,14.7-10.28q8.88-3.66,21.12-3.66a66.12,66.12,0,0,1,14.11,1.48,51.47,51.47,0,0,1,12.14,4.15,28.83,28.83,0,0,1,8.49,6.13,10.66,10.66,0,0,1,3.16,7.22,9,9,0,0,1-2.86,6.72,9.94,9.94,0,0,1-7.2,2.77,8.3,8.3,0,0,1-4.24-.89q-1.48-.89-3.65-2.27l-1-.59a30.52,30.52,0,0,0-18-5.54A32.4,32.4,0,0,0,783.55,66a20,20,0,0,0-8.29,6.33,25.19,25.19,0,0,0-4.44,10.09,62.73,62.73,0,0,0-1.28,13.25v40.74a62.7,62.7,0,0,0,1.28,13.25,25.19,25.19,0,0,0,4.44,10.09,19.94,19.94,0,0,0,8.29,6.33,32.34,32.34,0,0,0,12.63,2.18,31.91,31.91,0,0,0,18-5.34l1-.59q2.17-1.38,3.65-2.27a8.3,8.3,0,0,1,4.24-.89,10,10,0,0,1,7.2,2.77,8.8,8.8,0,0,1,2.86,6.53,10.85,10.85,0,0,1-3.16,7.42,27.45,27.45,0,0,1-8.49,6A54.61,54.61,0,0,1,809.31,186a66.12,66.12,0,0,1-14.11,1.48q-12.24,0-21.12-3.66a38.91,38.91,0,0,1-14.7-10.28,42.74,42.74,0,0,1-8.68-16,72.12,72.12,0,0,1-2.86-21.06Z"/><path class="cls-1" d="M940.84,158.78a43.29,43.29,0,0,1-9.18,15.33A42.4,42.4,0,0,1,917,184.19a49.91,49.91,0,0,1-19.54,3.66,51,51,0,0,1-19.93-3.66,41.34,41.34,0,0,1-14.6-10.09,42.83,42.83,0,0,1-9-15.33,59.21,59.21,0,0,1-3.06-19.38v-84A10.19,10.19,0,0,1,854,47.74a10.88,10.88,0,0,1,7.89-3.07,10.41,10.41,0,0,1,7.5,3.07,10.19,10.19,0,0,1,3.16,7.61v84q0,12.46,6,20.27t18.85,7.81q12.63,0,18.65-7.81t6-20.27v-84a10.44,10.44,0,0,1,3.06-7.52,10.14,10.14,0,0,1,7.6-3.16,11,11,0,0,1,8,3.16A10.13,10.13,0,0,1,944,55.35v84A57.6,57.6,0,0,1,940.84,158.78Z"/><path class="cls-1" d="M994.51,66.82H970.63a10.54,10.54,0,0,1-7.79-3.06,9.66,9.66,0,0,1-3.06-7q0-3.36,3.16-6.82a10,10,0,0,1,7.7-3.46h69.46a11.4,11.4,0,0,1,7.6,3,9.28,9.28,0,0,1,3.45,7.32,9.4,9.4,0,0,1-3.26,7,11,11,0,0,1-7.79,3.06h-23.88V177.57a9.85,9.85,0,0,1-3.16,7.12,10.94,10.94,0,0,1-15.39,0,9.83,9.83,0,0,1-3.16-7.12Z"/><path class="cls-1" d="M1068.52,55a9.74,9.74,0,0,1,3.16-7.22,11.19,11.19,0,0,1,15.39,0,9.75,9.75,0,0,1,3.16,7.22V177.57a9.85,9.85,0,0,1-3.16,7.12,10.94,10.94,0,0,1-15.39,0,9.83,9.83,0,0,1-3.16-7.12Z"/><path class="cls-1" d="M1127.92,52.19q8.09,25.91,16.18,51.32T1158.5,155q1.38-5.73,2.76-11.77t3.16-11.57l24.67-79.5a9.53,9.53,0,0,1,4.24-5.44,11.64,11.64,0,0,1,14.31.79A9.57,9.57,0,0,1,1210.8,55c0,.4,0,1-.1,1.78a8.44,8.44,0,0,1-.3,1.78l-38.48,117.27a23.82,23.82,0,0,1-4.74,8.6q-3,3.26-8.68,3.26t-8.58-3.36a23.59,23.59,0,0,1-4.44-8.5L1107,58.51a3.8,3.8,0,0,1-.49-1.78c-.07-.79-.1-1.38-.1-1.78a9.3,9.3,0,0,1,3.35-7.42,11.77,11.77,0,0,1,7.89-2.87,10.92,10.92,0,0,1,5.92,2.08A10.64,10.64,0,0,1,1127.92,52.19Z"/><path class="cls-1" d="M1306.31,175.39a9.87,9.87,0,0,1-3.16,7.52,10.83,10.83,0,0,1-7.7,3h-52.3a22.49,22.49,0,0,1-10.76-2.47q-4.64-2.47-4.64-9.2V58.12A12.16,12.16,0,0,1,1240,46.45h53.48a10.64,10.64,0,0,1,7.7,3.07,10,10,0,0,1,3.16,7.42,9,9,0,0,1-3.16,7.12,11.26,11.26,0,0,1-7.7,2.77h-44v39h40.26a11,11,0,0,1,7.3,2.87,9.1,9.1,0,0,1,3.35,7.22,9.79,9.79,0,0,1-3.06,7.32,10.49,10.49,0,0,1-7.6,3h-40.26V165.7h46a11.15,11.15,0,0,1,7.6,2.87A8.81,8.81,0,0,1,1306.31,175.39Z"/><path class="cls-1" d="M527.81,344.59a9.87,9.87,0,0,1-3.16,7.51,10.83,10.83,0,0,1-7.7,3h-52.3a22.5,22.5,0,0,1-10.75-2.47q-4.64-2.47-4.64-9.2V227.32a12.16,12.16,0,0,1,12.23-11.67H515a10.64,10.64,0,0,1,7.7,3.07,10,10,0,0,1,3.16,7.42,9,9,0,0,1-3.16,7.12A11.26,11.26,0,0,1,515,236H471v39h40.26a11,11,0,0,1,7.3,2.87,9.1,9.1,0,0,1,3.35,7.22,9.79,9.79,0,0,1-3.06,7.32,10.49,10.49,0,0,1-7.6,3H471V334.9h46a11.15,11.15,0,0,1,7.6,2.87A8.81,8.81,0,0,1,527.81,344.59Z"/><path class="cls-1" d="M590.76,357.05a10.8,10.8,0,0,1-7.8-3.16,10.12,10.12,0,0,1-3.26-7.51V300.49L544.77,229.1a15.25,15.25,0,0,1-.69-2.27,11,11,0,0,1-.3-2.47,9.57,9.57,0,0,1,3.45-7.42,11.2,11.2,0,0,1,7.6-3.07,11.72,11.72,0,0,1,4.93,1.09,8.27,8.27,0,0,1,3.75,3.46l27.23,57,27.23-57a8.26,8.26,0,0,1,3.75-3.46,11.71,11.71,0,0,1,4.93-1.09,11.09,11.09,0,0,1,7.7,3.07,9.69,9.69,0,0,1,3.36,7.42,11.57,11.57,0,0,1-.3,2.37,14.81,14.81,0,0,1-.69,2.37l-34.93,71.59v45.68a10.39,10.39,0,0,1-3.16,7.42A10.54,10.54,0,0,1,590.76,357.05Z"/><path class="cls-1" d="M732.45,344.59a9.87,9.87,0,0,1-3.16,7.51,10.83,10.83,0,0,1-7.7,3H669.3a22.5,22.5,0,0,1-10.75-2.47q-4.64-2.47-4.64-9.2V227.32a12.16,12.16,0,0,1,12.23-11.67h53.48a10.64,10.64,0,0,1,7.7,3.07,10,10,0,0,1,3.16,7.42,9,9,0,0,1-3.16,7.12,11.26,11.26,0,0,1-7.7,2.77h-44v39h40.26a11,11,0,0,1,7.3,2.87,9.11,9.11,0,0,1,3.35,7.22,9.79,9.79,0,0,1-3.06,7.32,10.49,10.49,0,0,1-7.6,3H675.61V334.9h46a11.15,11.15,0,0,1,7.6,2.87A8.81,8.81,0,0,1,732.45,344.59Z"/><g id="Rectangle_17" data-name="Rectangle 17"><rect class="cls-1" x="408.13" y="46.39" width="11.97" height="308.28"/></g></svg>