<?xml version="1.0" encoding="UTF-8"?>
<svg width="18px" height="15px" viewBox="0 0 18 15" version="1.1" xmlns="http://www.w3.org/2000/svg" xmlns:xlink="http://www.w3.org/1999/xlink">
    <!-- Generator: Sketch 47.1 (45422) - http://www.bohemiancoding.com/sketch -->
    <title>Group 4</title>
    <desc>Created with Sketch.</desc>
    <defs></defs>
    <g id="Page-1" stroke="none" stroke-width="1" fill="none" fill-rule="evenodd">
        <g id="New" transform="translate(-243.000000, -169.000000)" fill="#FFFFFF">
            <g id="DashboardSummary-New-V4" transform="translate(226.000000, 137.000000)">
                <g id="Top-Bar">
                    <g id="GoBack---Button">
                        <g id="Group-4" transform="translate(17.000000, 32.000000)">
                            <path d="M10.7222,1.4205 C10.7162,1.4625 10.7432,1.4985 10.8032,1.5225 C10.8612,1.5495 10.8912,1.5695 10.8912,1.5835 C10.8912,1.5995 10.9352,1.6115 11.0222,1.6195 C11.1092,1.6265 11.1512,1.6315 11.1512,1.6315 L11.2982,1.6315 L11.4242,1.6315 L14.6732,1.6315 C15.1712,1.6315 15.5972,1.8075 15.9512,2.1615 C16.3032,2.5155 16.4802,2.9395 16.4802,3.4365 L16.4802,11.3835 C16.4802,11.8785 16.3032,12.3055 15.9512,12.6595 C15.5972,13.0135 15.1712,13.1895 14.6732,13.1895 L11.0622,13.1895 C10.9632,13.1895 10.8872,13.2135 10.8292,13.2635 C10.7752,13.3135 10.7352,13.3845 10.7182,13.4845 C10.6982,13.5815 10.6882,13.6695 10.6832,13.7485 C10.6802,13.8285 10.6802,13.9275 10.6882,14.0485 C10.6952,14.1675 10.7012,14.2445 10.7012,14.2745 C10.7012,14.3715 10.7352,14.4555 10.8072,14.5265 C10.8792,14.5985 10.9632,14.6355 11.0622,14.6355 L14.6732,14.6355 C15.5692,14.6355 16.3352,14.3165 16.9722,13.6795 C17.6072,13.0455 17.9252,12.2805 17.9252,11.3835 L17.9252,3.4365 C17.9252,2.5405 17.6072,1.7755 16.9722,1.1385 C16.3352,0.5045 15.5692,0.1855 14.6732,0.1855 L11.0622,0.1855 C10.9632,0.1855 10.8872,0.2095 10.8292,0.2595 C10.7752,0.3085 10.7352,0.3805 10.7182,0.4795 C10.6982,0.5765 10.6882,0.6655 10.6832,0.7455 C10.6802,0.8245 10.6802,0.9225 10.6882,1.0415 C10.6952,1.1635 10.7012,1.2405 10.7012,1.2695 C10.7222,1.3295 10.7302,1.3805 10.7222,1.4205 Z" id="Fill-967"></path>
                            <path d="M6.5805,14.0589 C6.7235,14.2019 6.8915,14.2739 7.0875,14.2739 C7.2835,14.2739 7.4545,14.2019 7.5945,14.0589 C7.7395,13.9149 7.8105,13.7459 7.8105,13.5509 L7.8105,10.2989 L12.8685,10.2989 C13.0635,10.2989 13.2315,10.2279 13.3755,10.0859 C13.5185,9.9419 13.5905,9.7739 13.5905,9.5779 L13.5905,5.2419 C13.5905,5.0469 13.5185,4.8779 13.3755,4.7339 C13.2315,4.5909 13.0635,4.5189 12.8685,4.5189 L7.8105,4.5189 L7.8105,1.2699 C7.8105,1.0739 7.7395,0.9029 7.5945,0.7619 C7.4545,0.6179 7.2835,0.5469 7.0875,0.5469 C6.8915,0.5469 6.7235,0.6179 6.5805,0.7619 L0.4385,6.9009 C0.2965,7.0449 0.2245,7.2139 0.2245,7.4089 C0.2245,7.6049 0.2965,7.7749 0.4385,7.9189 L6.5805,14.0589 Z" id="Fill-968"></path>
                        </g>
                    </g>
                </g>
            </g>
        </g>
    </g>
</svg>