<?xml version="1.0" encoding="UTF-8"?>
<svg width="18px" height="15px" viewBox="0 0 18 15" version="1.1" xmlns="http://www.w3.org/2000/svg" xmlns:xlink="http://www.w3.org/1999/xlink">
    <!-- Generator: Sketch 47.1 (45422) - http://www.bohemiancoding.com/sketch -->
    <title>Group 5</title>
    <desc>Created with Sketch.</desc>
    <defs></defs>
    <g id="Page-1" stroke="none" stroke-width="1" fill="none" fill-rule="evenodd">
        <g id="New" transform="translate(-1235.000000, -170.000000)" fill="#4D4D4D">
            <g id="DashboardSummary-New-V4" transform="translate(226.000000, 137.000000)">
                <g id="Top-Bar">
                    <g id="Used-Summary---Button" transform="translate(988.000000, 0.000000)">
                        <g id="Group-5" transform="translate(21.000000, 33.000000)">
                            <path d="M7.4756,13.4619 C7.4546,13.4019 7.4466,13.3509 7.4546,13.3109 C7.4606,13.2689 7.4336,13.2339 7.3736,13.2089 C7.3156,13.1819 7.2856,13.1619 7.2856,13.1479 C7.2856,13.1329 7.2406,13.1199 7.1546,13.1119 C7.0676,13.1059 7.0256,13.1009 7.0256,13.1009 L6.8786,13.1009 L6.7526,13.1009 L3.5036,13.1009 C3.0056,13.1009 2.5796,12.9249 2.2256,12.5699 C1.8736,12.2159 1.6966,11.7929 1.6966,11.2949 L1.6966,3.3479 C1.6966,2.8529 1.8736,2.4269 2.2256,2.0719 C2.5796,1.7179 3.0056,1.5419 3.5036,1.5419 L7.1146,1.5419 C7.2136,1.5419 7.2896,1.5179 7.3476,1.4679 C7.4016,1.4189 7.4416,1.3469 7.4586,1.2479 C7.4786,1.1509 7.4886,1.0619 7.4936,0.9829 C7.4966,0.9029 7.4966,0.8049 7.4886,0.6829 C7.4806,0.5649 7.4756,0.4869 7.4756,0.4579 C7.4756,0.3609 7.4416,0.2759 7.3696,0.2049 C7.2976,0.1329 7.2136,0.0959 7.1146,0.0959 L3.5036,0.0959 C2.6076,0.0959 1.8416,0.4149 1.2046,1.0519 C0.5696,1.6859 0.2516,2.4509 0.2516,3.3479 L0.2516,11.2949 C0.2516,12.1909 0.5696,12.9569 1.2046,13.5929 C1.8416,14.2269 2.6076,14.5469 3.5036,14.5469 L7.1146,14.5469 C7.2136,14.5469 7.2896,14.5219 7.3476,14.4729 C7.4016,14.4229 7.4416,14.3509 7.4586,14.2519 C7.4786,14.1549 7.4886,14.0659 7.4936,13.9859 C7.4966,13.9069 7.4966,13.8089 7.4886,13.6899 C7.4806,13.5679 7.4756,13.4909 7.4756,13.4619" id="Fill-972"></path>
                            <path d="M17.7383,6.8125 L11.5963,0.6725 C11.4533,0.5295 11.2853,0.4585 11.0893,0.4585 C10.8933,0.4585 10.7223,0.5295 10.5813,0.6725 C10.4373,0.8165 10.3663,0.9855 10.3663,1.1805 L10.3663,4.4325 L5.3083,4.4325 C5.1133,4.4325 4.9453,4.5035 4.8013,4.6455 C4.6573,4.7895 4.5863,4.9575 4.5863,5.1535 L4.5863,9.4895 C4.5863,9.6855 4.6573,9.8535 4.8013,9.9975 C4.9453,10.1405 5.1133,10.2125 5.3083,10.2125 L10.3663,10.2125 L10.3663,13.4615 C10.3663,13.6575 10.4373,13.8285 10.5813,13.9695 C10.7223,14.1135 10.8933,14.1845 11.0893,14.1845 C11.2853,14.1845 11.4533,14.1135 11.5963,13.9695 L17.7383,7.8305 C17.8803,7.6865 17.9513,7.5185 17.9513,7.3225 C17.9513,7.1265 17.8803,6.9565 17.7383,6.8125" id="Fill-973"></path>
                        </g>
                    </g>
                </g>
            </g>
        </g>
    </g>
</svg>