<?xml version="1.0" encoding="UTF-8"?>
<svg width="18px" height="15px" viewBox="0 0 18 15" version="1.1" xmlns="http://www.w3.org/2000/svg" xmlns:xlink="http://www.w3.org/1999/xlink">
    <!-- Generator: Sketch 47.1 (45422) - http://www.bohemiancoding.com/sketch -->
    <title>Group</title>
    <desc>Created with Sketch.</desc>
    <defs></defs>
    <g id="Page-1" stroke="none" stroke-width="1" fill="none" fill-rule="evenodd">
        <g id="Dashboard---Right-Panel-In" transform="translate(-563.000000, -353.000000)" fill="#FFFFFF">
            <g id="DashboardSummary-New-V4" transform="translate(224.000000, 138.000000)">
                <g id="Button-New" transform="translate(319.000000, 193.000000)">
                    <g id="Group" transform="translate(20.000000, 22.000000)">
                        <path d="M7.29,13.3213 C7.269,13.2643 7.262,13.2163 7.269,13.1783 C7.276,13.1383 7.25,13.1053 7.194,13.0823 C7.138,13.0563 7.109,13.0383 7.109,13.0233 C7.109,13.0093 7.067,12.9983 6.985,12.9913 C6.903,12.9833 6.864,12.9793 6.864,12.9793 L6.725,12.9793 L6.606,12.9793 L3.532,12.9793 C3.061,12.9793 2.658,12.8123 2.323,12.4773 C1.991,12.1423 1.822,11.7423 1.822,11.2713 L1.822,3.7533 C1.822,3.2843 1.991,2.8823 2.323,2.5473 C2.658,2.2123 3.061,2.0453 3.532,2.0453 L6.948,2.0453 C7.041,2.0453 7.114,2.0213 7.168,1.9743 C7.22,1.9273 7.257,1.8603 7.273,1.7663 C7.292,1.6753 7.302,1.5913 7.306,1.5153 C7.309,1.4403 7.309,1.3463 7.302,1.2323 C7.294,1.1203 7.29,1.0473 7.29,1.0193 C7.29,0.9273 7.257,0.8473 7.189,0.7803 C7.121,0.7123 7.041,0.6763 6.948,0.6763 L3.532,0.6763 C2.684,0.6763 1.96,0.9793 1.358,1.5813 C0.756,2.1803 0.456,2.9053 0.456,3.7533 L0.456,11.2713 C0.456,12.1193 0.756,12.8423 1.358,13.4453 C1.96,14.0453 2.684,14.3473 3.532,14.3473 L6.948,14.3473 C7.041,14.3473 7.114,14.3243 7.168,14.2773 C7.22,14.2303 7.257,14.1623 7.273,14.0683 C7.292,13.9773 7.302,13.8923 7.306,13.8173 C7.309,13.7433 7.309,13.6493 7.302,13.5373 C7.294,13.4223 7.29,13.3493 7.29,13.3213" id="Fill-34"></path>
                        <path d="M16.9985,7.0303 L11.1885,1.2223 C11.0525,1.0873 10.8935,1.0193 10.7075,1.0193 C10.5225,1.0193 10.3615,1.0873 10.2275,1.2223 C10.0915,1.3583 10.0235,1.5183 10.0235,1.7033 L10.0235,4.7793 L5.2395,4.7793 C5.0545,4.7793 4.8955,4.8473 4.7595,4.9803 C4.6235,5.1163 4.5555,5.2763 4.5555,5.4613 L4.5555,9.5633 C4.5555,9.7483 4.6235,9.9073 4.7595,10.0443 C4.8955,10.1793 5.0545,10.2473 5.2395,10.2473 L10.0235,10.2473 L10.0235,13.3213 C10.0235,13.5063 10.0915,13.6683 10.2275,13.8013 C10.3615,13.9373 10.5225,14.0053 10.7075,14.0053 C10.8935,14.0053 11.0525,13.9373 11.1885,13.8013 L16.9985,7.9933 C17.1315,7.8573 17.2005,7.6983 17.2005,7.5133 C17.2005,7.3283 17.1315,7.1673 16.9985,7.0303" id="Fill-35"></path>
                    </g>
                </g>
            </g>
        </g>
    </g>
</svg>