<?xml version="1.0" encoding="UTF-8"?>
<svg width="24px" height="23px" viewBox="0 0 24 23" version="1.1" xmlns="http://www.w3.org/2000/svg" xmlns:xlink="http://www.w3.org/1999/xlink">
    <!-- Generator: Sketch 47.1 (45422) - http://www.bohemiancoding.com/sketch -->
    <title>Group 16</title>
    <desc>Created with Sketch.</desc>
    <defs></defs>
    <g id="Page-1" stroke="none" stroke-width="1" fill="none" fill-rule="evenodd">
        <g id="New" transform="translate(-525.000000, -379.000000)">
            <g id="DashboardSummary-New-V4" transform="translate(226.000000, 137.000000)">
                <g id="Models" transform="translate(0.000000, 116.000000)">
                    <g id="Units" transform="translate(33.000000, 82.000000)">
                        <g id="Group-16" transform="translate(266.000000, 44.000000)">
                            <path d="M11.834,0.3662 C18.182,0.3662 23.335,5.3042 23.335,11.3892 C23.335,17.4712 18.182,22.4102 11.834,22.4102 C5.486,22.4102 0.333,17.4712 0.333,11.3892 C0.333,5.3042 5.486,0.3662 11.834,0.3662" id="Fill-894" fill="#1DE27D"></path>
                            <path d="M15.9316,7.5703 C15.9796,7.5763 15.9926,7.5763 16.0386,7.5863 C16.1096,7.5973 16.1776,7.6263 16.2396,7.6603 C16.3016,7.6933 16.3576,7.7403 16.4056,7.7923 C16.5486,7.9493 16.6036,8.1723 16.5486,8.3753 C16.5316,8.4393 16.5016,8.5053 16.4626,8.5623 C16.4366,8.6033 16.4276,8.6093 16.3966,8.6463 L12.2406,13.0573 L9.5106,10.6933 L4.9956,15.7453 C4.9636,15.7793 4.9566,15.7893 4.9196,15.8163 C4.8656,15.8623 4.8016,15.8993 4.7356,15.9243 C4.6676,15.9493 4.5966,15.9643 4.5246,15.9673 C4.4526,15.9733 4.3796,15.9643 4.3106,15.9463 C4.2416,15.9303 4.1746,15.8993 4.1146,15.8623 C3.9486,15.7553 3.8376,15.5793 3.8186,15.3873 C3.8056,15.2673 3.8296,15.1443 3.8866,15.0363 C3.9116,14.9903 3.9426,14.9503 3.9766,14.9073 L9.3876,8.8523 L12.1446,11.2383 L15.4006,7.7833 C15.4336,7.7493 15.4416,7.7403 15.4786,7.7123 C15.5486,7.6563 15.6306,7.6163 15.7176,7.5943 C15.7706,7.5803 15.8236,7.5733 15.8776,7.5703 L15.9316,7.5703 Z" id="Fill-896" fill="#FFFFFF"></path>
                            <path d="M17.5195,11.0293 L12.9815,6.7723 L17.9005,6.3063 C17.7735,7.8823 17.6465,9.4543 17.5195,11.0293 M14.8785,7.4133 L16.8115,9.2253 L16.9745,7.2133 C16.2765,7.2803 15.5775,7.3453 14.8785,7.4133" id="Fill-900" fill="#FFFFFF"></path>
                            <polygon id="Fill-898" fill="#FFFFFF" points="17.9004 6.3066 17.5194 11.0296 12.9814 6.7726"></polygon>
                        </g>
                    </g>
                </g>
            </g>
        </g>
    </g>
</svg>