<svg xmlns="http://www.w3.org/2000/svg" xmlns:xlink="http://www.w3.org/1999/xlink" viewBox="0 0 25.85 25.25"><defs><style>.cls-1{fill:none;}.cls-2{isolation:isolate;}.cls-3{clip-path:url(#clip-path);}.cls-4{fill:#bbb;}.cls-5{fill:#616161;}.cls-6{fill:#fff;}</style><clipPath id="clip-path"><rect class="cls-1" x="4.6" y="2.18" width="16.65" height="20.88"/></clipPath></defs><title>Artboard 24</title><g id="Layer_1" data-name="Layer 1"><g class="cls-2"><g class="cls-3"><path class="cls-4" d="M18.38,9.36V17A1.63,1.63,0,0,1,17,18.75h-6L8,22.71v-4H6A1.63,1.63,0,0,1,4.6,17V9.36A1.63,1.63,0,0,1,6,7.58H17A1.63,1.63,0,0,1,18.38,9.36Z"/><path class="cls-5" d="M19.83,2.54H8.89A1.63,1.63,0,0,0,7.47,4.32V7.58H17a1.63,1.63,0,0,1,1.41,1.78V13.7h1.46a1.63,1.63,0,0,0,1.41-1.78V4.32A1.63,1.63,0,0,0,19.83,2.54Z"/><path class="cls-6" d="M11.78,11.55h-4a.37.37,0,0,1,0-.72h4a.37.37,0,0,1,0,.72Z"/><path class="cls-6" d="M15.51,13.71H7.76a.37.37,0,0,1,0-.72h7.75a.37.37,0,0,1,0,.72Z"/><path class="cls-6" d="M15.51,15.87H7.76a.37.37,0,0,1,0-.72h7.75a.37.37,0,0,1,0,.72Z"/></g></g></g></svg>