<?xml version="1.0" encoding="UTF-8"?>
<svg width="24px" height="23px" viewBox="0 0 24 23" version="1.1" xmlns="http://www.w3.org/2000/svg" xmlns:xlink="http://www.w3.org/1999/xlink">
    <!-- Generator: Sketch 47.1 (45422) - http://www.bohemiancoding.com/sketch -->
    <title>Group 17</title>
    <desc>Created with Sketch.</desc>
    <defs></defs>
    <g id="Page-1" stroke="none" stroke-width="1" fill="none" fill-rule="evenodd">
        <g id="New" transform="translate(-525.000000, -412.000000)">
            <g id="DashboardSummary-New-V4" transform="translate(226.000000, 137.000000)">
                <g id="Models" transform="translate(0.000000, 116.000000)">
                    <g id="Units" transform="translate(33.000000, 82.000000)">
                        <g id="Group-17" transform="translate(266.000000, 77.000000)">
                            <path d="M11.834,22.5137 C18.182,22.5137 23.335,17.5757 23.335,11.4907 C23.335,5.4087 18.182,0.4697 11.834,0.4697 C5.486,0.4697 0.333,5.4087 0.333,11.4907 C0.333,17.5757 5.486,22.5137 11.834,22.5137" id="Fill-910" fill="#FF004D"></path>
                            <path d="M15.9316,15.3096 C15.9796,15.3036 15.9926,15.3036 16.0386,15.2936 C16.1096,15.2786 16.1776,15.2536 16.2396,15.2206 C16.3016,15.1836 16.3576,15.1396 16.4056,15.0876 C16.5486,14.9306 16.6036,14.7086 16.5486,14.5046 C16.5316,14.4376 16.5016,14.3756 16.4626,14.3176 C16.4366,14.2776 16.4276,14.2706 16.3966,14.2336 L12.2406,9.8226 L9.5106,12.1866 L4.9956,7.1346 C4.9636,7.1006 4.9566,7.0916 4.9196,7.0606 C4.8656,7.0176 4.8016,6.9806 4.7356,6.9556 C4.6676,6.9306 4.5966,6.9156 4.5246,6.9136 C4.4526,6.9066 4.3796,6.9156 4.3106,6.9306 C4.2416,6.9496 4.1746,6.9806 4.1146,7.0176 C3.9486,7.1246 3.8376,7.3006 3.8186,7.4926 C3.8056,7.6126 3.8296,7.7356 3.8866,7.8436 C3.9116,7.8896 3.9426,7.9296 3.9766,7.9726 L9.3876,14.0276 L12.1446,11.6416 L15.4006,15.0966 C15.4336,15.1306 15.4416,15.1396 15.4786,15.1676 C15.5486,15.2206 15.6306,15.2636 15.7176,15.2856 C15.7706,15.3006 15.8236,15.3036 15.8776,15.3096 L15.9316,15.3096 Z" id="Fill-912" fill="#FFFFFF"></path>
                            <path d="M17.5195,11.8506 L12.9815,16.1086 L17.9005,16.5736 C17.7735,14.9976 17.6465,13.4256 17.5195,11.8506 M14.8785,15.4666 L16.8115,13.6546 L16.9745,15.6666 C16.2765,15.5996 15.5775,15.5356 14.8785,15.4666" id="Fill-916" fill="#FFFFFF"></path>
                        </g>
                    </g>
                </g>
            </g>
        </g>
    </g>
</svg>