<svg xmlns="http://www.w3.org/2000/svg" viewBox="0 0 25.85 25.25"><defs><style>.cls-1,.cls-2{fill:#394d6d;}.cls-1{fill-rule:evenodd;}</style></defs><title>Artboard 24</title><g id="Layer_1" data-name="Layer 1"><path class="cls-1" d="M17.65,13.45a.82.82,0,1,0,0-1.64H8.2a.82.82,0,1,0,0,1.64Z"/><path class="cls-2" d="M12.8,3A9.59,9.59,0,0,0,4.33,16.88a9.7,9.7,0,0,0,2.77,3.36,9.85,9.85,0,0,0,2,1.18,9.46,9.46,0,0,0,3.58.8A9.59,9.59,0,0,0,20.18,6.35a9.57,9.57,0,0,0-5.56-3.17A10.39,10.39,0,0,0,13.29,3Zm.28-2A11.54,11.54,0,1,1,2.52,7.62,11.67,11.67,0,0,1,7.8,2.28a11.54,11.54,0,0,1,3.09-1,12.38,12.38,0,0,1,1.6-.17Z"/></g></svg>