<?xml version="1.0" encoding="UTF-8"?>
<svg width="18px" height="27px" viewBox="0 0 18 27" version="1.1" xmlns="http://www.w3.org/2000/svg" xmlns:xlink="http://www.w3.org/1999/xlink">
    <!-- Generator: Sketch 47.1 (45422) - http://www.bohemiancoding.com/sketch -->
    <title>Fill 689</title>
    <desc>Created with Sketch.</desc>
    <defs></defs>
    <g id="Page-1" stroke="none" stroke-width="1" fill="none" fill-rule="evenodd">
        <g id="Dashboard---ON---Right-Panel-In-Copy" transform="translate(-1765.000000, -196.000000)" fill="#FFFFFF">
            <g id="DashboardSummary-New-V4" transform="translate(225.000000, 138.000000)">
                <g id="Box---Tracking" transform="translate(390.000000, 0.000000)">
                    <g id="Group-690" transform="translate(52.000000, 21.000000)">
                        <g id="Arrows---Tracking" transform="translate(0.000000, 37.000000)">
                            <path d="M1102.3906,26.9932 C1102.3336,26.9862 1102.2806,26.9832 1102.2236,26.9762 C1102.1136,26.9632 1102.0066,26.9462 1101.8976,26.9232 C1101.4636,26.8372 1101.0466,26.6702 1100.6696,26.4322 C1100.3426,26.2262 1100.0456,25.9702 1099.7996,25.6732 C1099.5856,25.4162 1099.4096,25.1332 1099.2726,24.8322 C1099.0886,24.4292 1098.9786,23.9922 1098.9496,23.5482 C1098.9156,23.0522 1098.9826,22.5482 1099.1496,22.0772 C1099.2756,21.7142 1099.4626,21.3672 1099.6966,21.0602 C1099.7626,20.9712 1099.8326,20.8872 1099.9096,20.8042 C1099.9466,20.7642 1099.9866,20.7232 1100.0226,20.6832 L1106.7966,13.9102 L1100.1026,7.2162 L1099.9896,7.0992 C1099.9526,7.0562 1099.9156,7.0162 1099.8796,6.9722 C1099.8096,6.8892 1099.7436,6.8002 1099.6796,6.7092 C1099.4256,6.3462 1099.2426,5.9352 1099.1326,5.5062 C1099.0526,5.1852 1099.0156,4.8512 1099.0226,4.5182 C1099.0326,4.0212 1099.1456,3.5242 1099.3526,3.0702 C1099.5596,2.6172 1099.8566,2.2072 1100.2226,1.8702 C1100.5096,1.6102 1100.8366,1.3932 1101.1906,1.2332 C1101.5936,1.0502 1102.0306,0.9392 1102.4706,0.9092 C1102.9676,0.8762 1103.4716,0.9462 1103.9416,1.1092 C1104.3086,1.2362 1104.6526,1.4232 1104.9616,1.6602 C1105.0486,1.7262 1105.1356,1.7972 1105.2156,1.8702 C1105.2556,1.9102 1105.2956,1.9462 1105.3356,1.9872 L1114.6436,11.2952 C1114.7466,11.4012 1114.7736,11.4252 1114.8676,11.5392 C1115.0476,11.7522 1115.2016,11.9852 1115.3246,12.2322 C1115.5786,12.7252 1115.7136,13.2722 1115.7276,13.8262 C1115.7416,14.3842 1115.6276,14.9362 1115.3976,15.4402 C1115.2606,15.7442 1115.0806,16.0272 1114.8676,16.2812 C1114.7736,16.3942 1114.7466,16.4212 1114.6436,16.5272 L1105.2556,25.9162 C1105.1486,26.0192 1105.1216,26.0462 1105.0086,26.1392 C1104.8816,26.2462 1104.7486,26.3472 1104.6086,26.4322 C1104.1846,26.7002 1103.7106,26.8772 1103.2176,26.9532 C1103.0546,26.9792 1102.8876,26.9972 1102.7206,27.0002 L1102.5576,27.0002 C1102.5006,26.9972 1102.4446,26.9932 1102.3906,26.9932" id="Fill-689"></path>
                        </g>
                    </g>
                </g>
            </g>
        </g>
    </g>
</svg>