<?xml version="1.0" encoding="UTF-8"?>
<svg width="17px" height="27px" viewBox="0 0 17 27" version="1.1" xmlns="http://www.w3.org/2000/svg" xmlns:xlink="http://www.w3.org/1999/xlink">
    <!-- Generator: Sketch 47.1 (45422) - http://www.bohemiancoding.com/sketch -->
    <title>Fill 688</title>
    <desc>Created with Sketch.</desc>
    <defs></defs>
    <g id="Page-1" stroke="none" stroke-width="1" fill="none" fill-rule="evenodd">
        <g id="Dashboard---ON---Right-Panel-In-Copy" transform="translate(-668.000000, -196.000000)" fill="#FFFFFF">
            <g id="DashboardSummary-New-V4" transform="translate(225.000000, 138.000000)">
                <g id="Box---Tracking" transform="translate(390.000000, 0.000000)">
                    <g id="Group-690" transform="translate(52.000000, 21.000000)">
                        <g id="Arrows---Tracking" transform="translate(0.000000, 37.000000)">
                            <path d="M14.3154,0.415 C14.3684,0.422 14.4254,0.425 14.4794,0.432 C14.5884,0.441 14.6984,0.462 14.8054,0.481 C15.2424,0.571 15.6594,0.738 16.0334,0.976 C16.3594,1.182 16.6564,1.438 16.9034,1.735 C17.1164,1.992 17.2964,2.275 17.4334,2.576 C17.6174,2.979 17.7274,3.416 17.7574,3.856 C17.7904,4.356 17.7204,4.857 17.5574,5.327 C17.4304,5.694 17.2434,6.041 17.0064,6.348 C16.9404,6.435 16.8704,6.521 16.7964,6.602 C16.7564,6.644 16.7204,6.682 16.6804,6.722 L9.9064,13.495 L16.6004,20.188 L16.7134,20.309 C16.7504,20.352 16.7904,20.392 16.8234,20.436 C16.8934,20.519 16.9634,20.608 17.0234,20.699 C17.2764,21.062 17.4634,21.473 17.5704,21.902 C17.6534,22.223 17.6904,22.557 17.6844,22.89 C17.6704,23.387 17.5574,23.881 17.3534,24.334 C17.1474,24.787 16.8464,25.201 16.4804,25.534 C16.1924,25.798 15.8664,26.015 15.5124,26.175 C15.1094,26.358 14.6754,26.465 14.2324,26.495 C13.7354,26.528 13.2314,26.462 12.7614,26.299 C12.3984,26.168 12.0504,25.985 11.7444,25.748 C11.6534,25.682 11.5704,25.611 11.4874,25.534 C11.4474,25.498 11.4074,25.461 11.3674,25.421 L2.0594,16.113 C1.9594,16.006 1.9284,15.979 1.8354,15.866 C1.6584,15.656 1.5054,15.423 1.3784,15.176 C1.1284,14.683 0.9884,14.132 0.9754,13.578 C0.9654,13.024 1.0784,12.471 1.3084,11.968 C1.4454,11.664 1.6224,11.381 1.8354,11.127 C1.9284,11.014 1.9594,10.987 2.0594,10.88 L11.4504,1.492 C11.5544,1.389 11.5804,1.362 11.6944,1.269 C11.8204,1.162 11.9574,1.061 12.0974,0.976 C12.5184,0.708 12.9944,0.531 13.4844,0.451 C13.6514,0.428 13.8154,0.411 13.9824,0.408 L14.1484,0.408 C14.2024,0.411 14.2584,0.415 14.3154,0.415" id="Fill-688"></path>
                        </g>
                    </g>
                </g>
            </g>
        </g>
    </g>
</svg>