<?xml version="1.0" encoding="UTF-8"?>
<svg width="50px" height="51px" viewBox="0 0 50 51" version="1.1" xmlns="http://www.w3.org/2000/svg" xmlns:xlink="http://www.w3.org/1999/xlink">
    <!-- Generator: Sketch 47.1 (45422) - http://www.bohemiancoding.com/sketch -->
    <title>Toggle-Button</title>
    <desc>Created with Sketch.</desc>
    <defs></defs>
    <g id="Page-1" stroke="none" stroke-width="1" fill="none" fill-rule="evenodd">
        <g id="Dashboard---ON---Right-Panel-In-Copy" transform="translate(-1826.000000, -138.000000)">
            <g id="Toggle-Button" transform="translate(1826.000000, 138.000000)">
                <polygon id="Fill-455" fill="#1A89C6" points="0 51 50 51 50 0.158 0 0.158"></polygon>
                <path d="M37.751,17.7354 L11.812,17.7354 C10.849,17.7354 10.062,16.9474 10.062,15.9854 L10.062,15.6304 C10.062,14.6674 10.849,13.8804 11.812,13.8804 L37.751,13.8804 C38.713,13.8804 39.501,14.6674 39.501,15.6304 L39.501,15.9854 C39.501,16.9474 38.713,17.7354 37.751,17.7354" id="Fill-456" fill="#FFFFFF"></path>
                <path d="M37.751,26.6563 L11.812,26.6563 C10.849,26.6563 10.062,25.8693 10.062,24.9063 L10.062,24.5513 C10.062,23.5883 10.849,22.8013 11.812,22.8013 L37.751,22.8013 C38.713,22.8013 39.501,23.5883 39.501,24.5513 L39.501,24.9063 C39.501,25.8693 38.713,26.6563 37.751,26.6563" id="Fill-457" fill="#FFFFFF"></path>
                <path d="M37.751,35.5781 L11.812,35.5781 C10.849,35.5781 10.062,34.7901 10.062,33.8271 L10.062,33.4731 C10.062,32.5101 10.849,31.7221 11.812,31.7221 L37.751,31.7221 C38.713,31.7221 39.501,32.5101 39.501,33.4731 L39.501,33.8271 C39.501,34.7901 38.713,35.5781 37.751,35.5781" id="Fill-458" fill="#FFFFFF"></path>
                <path d="M43.2676,34.3633 C43.2676,29.4363 39.2736,25.4423 34.3466,25.4423 C29.4186,25.4423 25.4256,29.4363 25.4256,34.3633 C25.4256,39.2913 29.4186,43.2853 34.3466,43.2853 C39.2736,43.2853 43.2676,39.2913 43.2676,34.3633" id="Fill-459" fill="#FFFFFF"></path>
                <path d="M43.2676,34.3633 C43.2676,29.4363 39.2736,25.4423 34.3466,25.4423 C29.4186,25.4423 25.4256,29.4363 25.4256,34.3633 C25.4256,39.2913 29.4186,43.2853 34.3466,43.2853 C39.2736,43.2853 43.2676,39.2913 43.2676,34.3633 Z" id="Stroke-460" stroke="#1A89C6" stroke-width="3"></path>
                <path d="M33.12275,37.24575 C32.96375,37.24575 32.80375,37.18375 32.68175,37.06175 L30.18375,34.56375 C29.93875,34.32075 29.93875,33.92575 30.18375,33.68175 L32.68175,31.18375 C32.92575,30.93875 33.32075,30.93875 33.56375,31.18375 C33.80875,31.42775 33.80875,31.82275 33.56375,32.06675 L31.50875,34.12275 L33.56375,36.17975 C33.80875,36.42375 33.80875,36.81775 33.56375,37.06175 C33.44175,37.18375 33.28275,37.24575 33.12275,37.24575" id="Fill-461" fill="#1A89C6"></path>
                <path d="M37.12275,37.24575 C36.96375,37.24575 36.80375,37.18375 36.68175,37.06175 L34.18375,34.56375 C33.93875,34.32075 33.93875,33.92575 34.18375,33.68175 L36.68175,31.18375 C36.92575,30.93875 37.32075,30.93875 37.56375,31.18375 C37.80875,31.42775 37.80875,31.82275 37.56375,32.06675 L35.50875,34.12275 L37.56375,36.17975 C37.80875,36.42375 37.80875,36.81775 37.56375,37.06175 C37.44175,37.18375 37.28275,37.24575 37.12275,37.24575" id="Fill-461-Copy" fill="#1A89C6"></path>
            </g>
        </g>
    </g>
</svg>