<?xml version="1.0" encoding="UTF-8" standalone="no"?>
<svg
   xmlns:dc="http://purl.org/dc/elements/1.1/"
   xmlns:cc="http://creativecommons.org/ns#"
   xmlns:rdf="http://www.w3.org/1999/02/22-rdf-syntax-ns#"
   xmlns:svg="http://www.w3.org/2000/svg"
   xmlns="http://www.w3.org/2000/svg"
   xmlns:sodipodi="http://sodipodi.sourceforge.net/DTD/sodipodi-0.dtd"
   xmlns:inkscape="http://www.inkscape.org/namespaces/inkscape"
   width="192px"
   height="83px"
   viewBox="0 0 192 83"
   version="1.1"
   id="svg2"
   inkscape:version="0.91 r13725"
   sodipodi:docname="graph-image.svg">
  <metadata
     id="metadata47">
    <rdf:RDF>
      <cc:Work
         rdf:about="">
        <dc:format>image/svg+xml</dc:format>
        <dc:type
           rdf:resource="http://purl.org/dc/dcmitype/StillImage" />
      </cc:Work>
    </rdf:RDF>
  </metadata>
  <sodipodi:namedview
     pagecolor="#ffffff"
     bordercolor="#666666"
     borderopacity="1"
     objecttolerance="10"
     gridtolerance="10"
     guidetolerance="10"
     inkscape:pageopacity="0"
     inkscape:pageshadow="2"
     inkscape:window-width="2560"
     inkscape:window-height="1027"
     id="namedview45"
     showgrid="false"
     inkscape:zoom="4.4338285"
     inkscape:cx="171.50001"
     inkscape:cy="-15.761791"
     inkscape:window-x="0"
     inkscape:window-y="0"
     inkscape:window-maximized="1"
     inkscape:current-layer="Box---New" />
  <!-- Generator: Sketch 3.6.1 (26313) - http://www.bohemiancoding.com/sketch -->
  <title
     id="title4">graph-image</title>
  <desc
     id="desc6">Created with Sketch.</desc>
  <defs
     id="defs8" />
  <g
     id="Page-1"
     stroke="none"
     stroke-width="1"
     fill="none"
     fill-rule="evenodd">
    <g
       id="graph-image">
      <g
         id="Dashboard---Right-Panel-In">
        <g
           id="Box---New">
          <g
             id="Info-3---Aging"
             transform="translate(142.51832,73.1)"
             style="fill:#7d7d7d">
            <text
               xml:space="preserve"
               style="font-style:normal;font-weight:normal;font-size:40px;line-height:125%;font-family:sans-serif;letter-spacing:0px;word-spacing:0px;fill:#000000;fill-opacity:1;stroke:none;stroke-width:1px;stroke-linecap:butt;stroke-linejoin:miter;stroke-opacity:1"
               x="19.877636"
               y="9.0440683"
               id="text4305"
               sodipodi:linespacing="125%"><tspan
                 sodipodi:role="line"
                 id="tspan4307"
                 x="19.877636"
                 y="9.0440683"
                 style="font-style:italic;font-variant:normal;font-weight:normal;font-stretch:normal;font-size:12.5px;font-family:Ubuntu;-inkscape-font-specification:'Ubuntu Italic';fill:#808080">+</tspan></text>
          </g>
          <g
             id="Aging-Graph"
             transform="translate(0.872762,0.2)">
            <path
               d="m 0.37240331,60.29388 190.30392669,0 m -190.30392669,-3.4974 190.30392669,0 m -190.30392669,-3.3426 190.30392669,0 m -190.30392669,-3.7026 190.30392669,0 m -190.30392669,-4.0185 190.30392669,0 m -190.30392669,-3.5244 190.30392669,0 m -190.30392669,-3.4173 190.30392669,0 m -190.30392669,-3.7953 190.30392669,0 m -190.30392669,-4.0032 190.30392669,0 m -190.30392669,-3.6666 190.30392669,0 m -190.30392669,-3.2922 190.30392669,0 m -190.30392669,-2.9133 190.30392669,0 m -190.30392669,-3.0591 190.30392669,0 m -190.30392669,-3.0609 190.30392669,0 m -190.30392669,-3.1851 190.30392669,0 M 0.37240331,8.46918 l 190.30392669,0 M 0.37240331,5.41188 l 190.30392669,0"
               id="Stroke-657"
               inkscape:connector-curvature="0"
               style="stroke:#e6e6e6;stroke-width:0.5" />
            <path
               d="m 75.921867,31.58523 c -2.694379,0 -4.882102,1.827 -4.882102,4.077 l 0,23.8419 c 0,2.25 2.187723,4.0734 4.882102,4.0734 l 21.878792,0 c 2.695161,0 4.883661,-1.8234 4.883661,-4.0734 l 0,-23.8419 c 0,-2.25 -2.1885,-4.077 -4.883661,-4.077 l -21.878792,0 0,0 z"
               id="Fill-658"
               inkscape:connector-curvature="0"
               style="fill:#1e8700" />
            <path
               d="m 71.087395,63.5778 31.644555,0 0,-18.5796 -31.644555,0 0,18.5796 z"
               id="Fill-659"
               inkscape:connector-curvature="0"
               style="fill:#1e8700" />
            <path
               d="m 15.931001,58.87089 c -0.769711,0 -1.396999,0.5274 -1.396999,1.179 l 0,2.3517 c 0,0.6489 0.627288,1.1754 1.396999,1.1754 l 28.586721,0 c 0.773603,0 1.400112,-0.5265 1.400112,-1.1754 l 0,-2.3517 c 0,-0.6516 -0.626509,-1.179 -1.400112,-1.179 l -28.586721,0 0,0 z"
               id="Fill-660"
               inkscape:connector-curvature="0"
               style="fill:#1e8700" />
            <path
               d="m 14.314763,63.5778 31.379941,0 0,-2.4786 -31.379941,0 0,2.4786 z"
               id="Fill-661"
               inkscape:connector-curvature="0"
               style="fill:#1e8700" />
            <path
               d="m 146.0758,8.65197 c -2.04218,0 -3.69835,1.3356 -3.69835,2.9835 l 0,48.9573 c 0,1.6488 1.65617,2.9844 3.69835,2.9844 l 25.33821,0 c 2.04141,0 3.69758,-1.3356 3.69758,-2.9844 l 0,-48.9573 c 0,-1.6479 -1.65617,-2.9835 -3.69758,-2.9835 l -25.33821,0 0,0 z"
               id="Fill-662"
               inkscape:connector-curvature="0"
               style="fill:#1e8700" />
            <path
               d="m 142.37714,63.5778 32.73414,0 0,-18.5796 -32.73414,0 0,18.5796 z"
               id="Fill-663"
               inkscape:connector-curvature="0"
               style="fill:#1e8700" />
            <path
               d="m 0.37240331,63.91404 190.30392669,0 m -190.30392669,0 0,-63.4257"
               id="Stroke-664"
               inkscape:connector-curvature="0"
               style="stroke:#7c7c7c;stroke-width:0.5" />
          </g>
          <text
             xml:space="preserve"
             style="font-style:normal;font-weight:normal;font-size:12.5px;line-height:125%;font-family:sans-serif;letter-spacing:0px;word-spacing:0px;fill:#000000;fill-opacity:1;stroke:none;stroke-width:1px;stroke-linecap:butt;stroke-linejoin:miter;stroke-opacity:1"
             x="15.82693"
             y="82.42144"
             id="text4163"
             sodipodi:linespacing="125%"><tspan
               sodipodi:role="line"
               id="tspan4165"
               x="15.82693"
               y="82.42144"
               style="font-style:italic;font-variant:normal;font-weight:normal;font-stretch:normal;font-family:sans-serif;-inkscape-font-specification:'sans-serif Italic';fill:#808080">0-30</tspan></text>
          <text
             xml:space="preserve"
             style="font-style:normal;font-weight:normal;font-size:12.5px;line-height:125%;font-family:sans-serif;letter-spacing:0px;word-spacing:0px;fill:#000000;fill-opacity:1;stroke:none;stroke-width:1px;stroke-linecap:butt;stroke-linejoin:miter;stroke-opacity:1"
             x="68.617706"
             y="82.367516"
             id="text4167"
             sodipodi:linespacing="125%"><tspan
               sodipodi:role="line"
               id="tspan4169"
               x="68.617706"
               y="82.367516"
               style="font-style:italic;font-variant:normal;font-weight:normal;font-stretch:normal;font-family:sans-serif;-inkscape-font-specification:'sans-serif Italic';fill:#808080">30-60</tspan></text>
          <text
             xml:space="preserve"
             style="font-style:normal;font-weight:normal;font-size:12.5px;line-height:125%;font-family:sans-serif;letter-spacing:0px;word-spacing:0px;fill:#000000;fill-opacity:1;stroke:none;stroke-width:1px;stroke-linecap:butt;stroke-linejoin:miter;stroke-opacity:1"
             x="148.51234"
             y="82.313583"
             id="text4171"
             sodipodi:linespacing="125%"><tspan
               sodipodi:role="line"
               id="tspan4173"
               x="148.51234"
               y="82.313583"
               style="font-style:italic;font-variant:normal;font-weight:normal;font-stretch:normal;font-family:sans-serif;-inkscape-font-specification:'sans-serif Italic';fill:#808080">61</tspan></text>
        </g>
      </g>
    </g>
  </g>
</svg>
