<svg xmlns="http://www.w3.org/2000/svg" width="20" height="15" viewBox="0 0 20 15">
    <g fill="#4D4D4D" fill-rule="evenodd">
        <path d="M8.679 13.462c-.023-.06-.032-.111-.023-.151.006-.042-.023-.077-.088-.102-.062-.027-.095-.047-.095-.061 0-.015-.048-.028-.141-.036-.094-.006-.14-.011-.14-.011H4.387c-.538 0-.999-.176-1.381-.531-.38-.354-.572-.777-.572-1.275V3.348c0-.495.191-.921.572-1.276a1.96 1.96 0 0 1 1.38-.53h3.902c.107 0 .19-.024.252-.074a.364.364 0 0 0 .12-.22 1.766 1.766 0 0 0 .033-.565 5.012 5.012 0 0 1-.014-.225.33.33 0 0 0-.115-.253.391.391 0 0 0-.276-.11H4.387c-.968 0-1.796.32-2.484.957-.686.634-1.03 1.399-1.03 2.296v7.947c0 .896.344 1.662 1.03 2.298.688.634 1.516.954 2.484.954h3.901c.107 0 .19-.025.252-.074a.37.37 0 0 0 .12-.221 1.76 1.76 0 0 0 .033-.562 5.418 5.418 0 0 1-.014-.228"/>
        <path d="M19.768 6.813L13.13.673a.777.777 0 0 0-.548-.215.776.776 0 0 0-.549.214.67.67 0 0 0-.232.509v3.252H6.337a.785.785 0 0 0-.548.213.668.668 0 0 0-.232.508v4.335c0 .196.076.364.232.508a.782.782 0 0 0 .548.216h5.465v3.248c0 .197.077.367.232.508a.773.773 0 0 0 .55.216.774.774 0 0 0 .547-.216l6.637-6.138a.677.677 0 0 0 0-1.018"/>
    </g>
</svg>
