<?xml version="1.0" encoding="UTF-8" standalone="no"?>
<svg width="17px" height="27px" viewBox="0 0 17 27" version="1.1" xmlns="http://www.w3.org/2000/svg" xmlns:xlink="http://www.w3.org/1999/xlink">
    <!-- Generator: Sketch 3.6.1 (26313) - http://www.bohemiancoding.com/sketch -->
    <title>Fill-688</title>
    <desc>Created with Sketch.</desc>
    <defs></defs>
    <g id="Page-1" stroke="none" stroke-width="1" fill="none" fill-rule="evenodd">
        <path d="M13.0798092,0.007 C13.1314985,0.014 13.1870888,0.017 13.2397534,0.024 C13.3460578,0.033 13.4533374,0.054 13.5576912,0.073 C13.983884,0.163 14.3905714,0.33 14.7553222,0.568 C15.07326,0.774 15.3629151,1.03 15.6038067,1.327 C15.8115391,1.584 15.9870876,1.867 16.1206995,2.168 C16.3001491,2.571 16.4074287,3.008 16.4366868,3.448 C16.4688707,3.948 16.4006018,4.449 16.2416329,4.919 C16.1177737,5.286 15.9353983,5.633 15.7042594,5.94 C15.6398916,6.027 15.5716228,6.113 15.4994528,6.194 C15.460442,6.236 15.4253323,6.274 15.3863216,6.314 L8.77984597,13.087 L15.3083,19.78 L15.4185054,19.901 C15.4545904,19.944 15.4936012,19.984 15.5257851,20.028 C15.594054,20.111 15.6623228,20.2 15.720839,20.291 C15.9675822,20.654 16.1499576,21.065 16.2543114,21.494 C16.3352588,21.815 16.3713437,22.149 16.3654921,22.482 C16.3518384,22.979 16.2416329,23.473 16.0426779,23.926 C15.8417724,24.379 15.5482163,24.793 15.1912677,25.126 C14.91039,25.39 14.5924522,25.607 14.2472068,25.767 C13.8541732,25.95 13.4309062,26.057 12.9988618,26.087 C12.5141529,26.12 12.0226171,26.054 11.5642404,25.891 C11.2102176,25.76 10.8708238,25.577 10.5723913,25.34 C10.4836418,25.274 10.4026944,25.203 10.321747,25.126 C10.2827363,25.09 10.2437255,25.053 10.2047147,25.013 L1.12690621,15.705 C1.02937926,15.598 0.999145903,15.571 0.908445839,15.458 C0.735823138,15.248 0.586606905,15.015 0.462747678,14.768 C0.218930304,14.275 0.0823925737,13.724 0.0697140702,13.17 C0.0599613752,12.616 0.170166829,12.063 0.394478813,11.56 C0.528090735,11.256 0.700713436,10.973 0.908445839,10.719 C0.999145903,10.606 1.02937926,10.579 1.12690621,10.472 L10.2856621,1.084 C10.3870901,0.981 10.4124471,0.954 10.5236278,0.861 C10.6465118,0.754 10.7801237,0.653 10.9166614,0.568 C11.3272499,0.3 11.7914782,0.123 12.2693602,0.043 C12.4322302,0.02 12.5921744,0.003 12.7550444,0 L12.9169392,0 C12.9696037,0.003 13.0242188,0.007 13.0798092,0.007" id="Fill-688" fill="#FFFFFF"></path>
    </g>
</svg>