<?xml version="1.0" encoding="UTF-8" standalone="no"?>
<svg width="16px" height="12px" viewBox="0 0 16 12" version="1.1" xmlns="http://www.w3.org/2000/svg" xmlns:xlink="http://www.w3.org/1999/xlink">
    <!-- Generator: Sketch 3.6.1 (26313) - http://www.bohemiancoding.com/sketch -->
    <title>Group-5</title>
    <desc>Created with Sketch.</desc>
    <defs></defs>
    <g id="Page-1" stroke="none" stroke-width="1" fill="none" fill-rule="evenodd">
        <g id="Group-5" transform="translate(8.100730, 6.000000) rotate(-90.000000) translate(-8.100730, -6.000000) translate(2.100730, -2.000000)" fill="#FFFFFF">
            <path d="M5.01672093,14.35936 C5.00375477,14.29536 4.99881529,14.24096 5.00375477,14.1982933 C5.00745939,14.1534933 4.99078862,14.11616 4.95374246,14.0894933 C4.91793117,14.0606933 4.89940809,14.03936 4.89940809,14.0244267 C4.89940809,14.0084267 4.87162347,13.99456 4.81852398,13.9860267 C4.76480705,13.9796267 4.73887474,13.9742933 4.73887474,13.9742933 L4.64811165,13.9742933 L4.57031471,13.9742933 L2.56426522,13.9742933 C2.2567821,13.9742933 1.99375437,13.78656 1.77518203,13.4078933 C1.55784457,13.0302933 1.4485584,12.5790933 1.4485584,12.0478933 L1.4485584,3.57109333 C1.4485584,3.04309333 1.55784457,2.58869333 1.77518203,2.21002667 C1.99375437,1.83242667 2.2567821,1.64469333 2.56426522,1.64469333 L4.79382654,1.64469333 C4.8549527,1.64469333 4.90187784,1.61909333 4.93768913,1.56576 C4.97103067,1.51349333 4.99572811,1.43669333 5.00622452,1.33109333 C5.01857324,1.22762667 5.0247476,1.13269333 5.02783478,1.04842667 C5.02968709,0.963093333 5.02968709,0.85856 5.0247476,0.728426667 C5.01980811,0.60256 5.01672093,0.51936 5.01672093,0.488426667 C5.01672093,0.38496 4.99572811,0.294293333 4.95127271,0.21856 C4.90681733,0.14176 4.8549527,0.102293333 4.79382654,0.102293333 L2.56426522,0.102293333 C2.01104258,0.102293333 1.53808662,0.44256 1.1447799,1.12202667 C0.752708046,1.79829333 0.556363406,2.61429333 0.556363406,3.57109333 L0.556363406,12.0478933 C0.556363406,13.0036267 0.752708046,13.8206933 1.1447799,14.4990933 C1.53808662,15.17536 2.01104258,15.5166933 2.56426522,15.5166933 L4.79382654,15.5166933 C4.8549527,15.5166933 4.90187784,15.4900267 4.93768913,15.43776 C4.97103067,15.3844267 4.99572811,15.3076267 5.00622452,15.2020267 C5.01857324,15.09856 5.0247476,15.0036267 5.02783478,14.9182933 C5.02968709,14.8340267 5.02968709,14.7294933 5.0247476,14.60256 C5.01980811,14.4724267 5.01672093,14.3902933 5.01672093,14.35936" id="Fill-972"></path>
            <path d="M11.3532811,7.26666667 L7.56098937,0.717333333 C7.47269606,0.5648 7.3689668,0.489066667 7.24794931,0.489066667 C7.12693189,0.489066667 7.02135034,0.5648 6.93429183,0.717333333 C6.84538109,0.870933333 6.80154314,1.0512 6.80154314,1.2592 L6.80154314,4.728 L3.67855193,4.728 C3.55815191,4.728 3.45442267,4.80373333 3.36551189,4.9552 C3.27660111,5.1088 3.23276315,5.288 3.23276315,5.49706667 L3.23276315,10.1221333 C3.23276315,10.3312 3.27660111,10.5104 3.36551189,10.664 C3.45442267,10.8165333 3.55815191,10.8933333 3.67855193,10.8933333 L6.80154314,10.8933333 L6.80154314,14.3589333 C6.80154314,14.568 6.84538109,14.7504 6.93429183,14.9008 C7.02135034,15.0544 7.12693189,15.1301333 7.24794931,15.1301333 C7.3689668,15.1301333 7.47269606,15.0544 7.56098937,14.9008 L11.3532811,8.35253333 C11.4409571,8.19893333 11.484795,8.01973333 11.484795,7.81066667 C11.484795,7.6016 11.4409571,7.42026667 11.3532811,7.26666667" id="Fill-973" transform="translate(7.358779, 7.809600) scale(-1, 1) translate(-7.358779, -7.809600) "></path>
        </g>
    </g>
</svg>