<?xml version="1.0" encoding="UTF-8" standalone="no"?>
<svg width="16px" height="16px" viewBox="0 0 16 16" version="1.1" xmlns="http://www.w3.org/2000/svg" xmlns:xlink="http://www.w3.org/1999/xlink">
    <!-- Generator: Sketch 3.6.1 (26313) - http://www.bohemiancoding.com/sketch -->
    <title>Fill-884</title>
    <desc>Created with Sketch.</desc>
    <defs></defs>
    <g id="Page-1" stroke="none" stroke-width="1" fill="none" fill-rule="evenodd">
        <g id="icon-chevron-right" transform="translate(-1.000000, 0.000000)" fill="#FFFFFF">
            <g id="New">
                <g id="DashboardSummary-New-V4">
                    <g id="Models">
                        <g id="View-More---Gray" transform="translate(0.819209, 0.000000)">
                            <path d="M8.3285342,13.6904 C5.0348882,13.6904 2.3543366,10.9884 2.3543366,7.6684 C2.3543366,4.3464 5.0348882,1.6454 8.3285342,1.6454 C11.6231722,1.6454 14.3027318,4.3464 14.3027318,7.6684 C14.3027318,10.9884 11.6231722,13.6904 8.3285342,13.6904 L8.3285342,13.6904 L8.3285342,13.6904 Z M8.3285342,0.2544 C4.2670322,0.2544 0.97537034,3.5744 0.97537034,7.6684 C0.97537034,11.7614 4.2670322,15.0804 8.3285342,15.0804 C12.3900362,15.0804 15.6826901,11.7614 15.6826901,7.6684 C15.6826901,3.5744 12.3900362,0.2544 8.3285342,0.2544 L8.3285342,0.2544 L8.3285342,0.2544 Z M7.6459955,4.6074 L7.6450034,4.6094 C7.5219878,4.4964 7.3592896,4.4244 7.1797264,4.4244 C6.7987745,4.4244 6.4892512,4.7364 6.4892512,5.1204 C6.4892512,5.3224 6.5775447,5.5024 6.7144493,5.6294 L6.7134572,5.6314 L8.916827,7.6684 L6.7134572,9.7044 L6.7144493,9.7064 C6.5775447,9.8324 6.4892512,10.0124 6.4892512,10.2154 C6.4892512,10.5994 6.7987745,10.9114 7.1797264,10.9114 C7.3592896,10.9114 7.5219878,10.8394 7.6450034,10.7264 L7.6459955,10.7284 L10.4029359,8.1804 C10.5448008,8.0474 10.6261499,7.8634 10.6261499,7.6684 C10.6261499,7.4724 10.5448008,7.2874 10.4029359,7.1554 L7.6459955,4.6074 L7.6459955,4.6074 Z" id="Fill-884"></path>
                        </g>
                    </g>
                </g>
            </g>
        </g>
    </g>
</svg>