<?xml version="1.0" encoding="UTF-8"?>
<svg width="20px" height="15px" viewBox="0 0 20 15" version="1.1" xmlns="http://www.w3.org/2000/svg" xmlns:xlink="http://www.w3.org/1999/xlink">
    <!-- Generator: Sketch 48.2 (47327) - http://www.bohemiancoding.com/sketch -->
    <title>Group 5</title>
    <desc>Created with Sketch.</desc>
    <defs></defs>
    <g id="New" stroke="none" stroke-width="1" fill="none" fill-rule="evenodd" transform="translate(-1560.000000, -126.000000)">
        <g id="DashboardSummary-New-V4" transform="translate(260.000000, 93.000000)" fill="#FFFFFF">
            <g id="Top-Bar">
                <g id="Used-Summary---Button" transform="translate(1252.281941, 0.000000)">
                    <g id="Group-5" transform="translate(47.617329, 33.000000)">
                        <path d="M8.77926163,13.4619 C8.75657085,13.4019 8.74792675,13.3509 8.75657085,13.3109 C8.76305393,13.2689 8.73388008,13.2339 8.6690493,13.2089 C8.60637955,13.1819 8.57396416,13.1619 8.57396416,13.1479 C8.57396416,13.1329 8.52534108,13.1199 8.43241696,13.1119 C8.33841234,13.1059 8.29303079,13.1009 8.29303079,13.1009 L8.13419539,13.1009 L7.99805075,13.1009 L4.48746413,13.1009 C3.94936867,13.1009 3.48907015,12.9249 3.10656856,12.5699 C2.72622799,12.2159 2.5349772,11.7929 2.5349772,11.2949 L2.5349772,3.3479 C2.5349772,2.8529 2.72622799,2.4269 3.10656856,2.0719 C3.48907015,1.7179 3.94936867,1.5419 4.48746413,1.5419 L8.38919645,1.5419 C8.49616723,1.5419 8.57828622,1.5179 8.64095597,1.4679 C8.69930367,1.4189 8.74252419,1.3469 8.76089291,1.2479 C8.78250317,1.1509 8.7933083,1.0619 8.79871086,0.9829 C8.8019524,0.9029 8.8019524,0.8049 8.7933083,0.6829 C8.78466419,0.5649 8.77926163,0.4869 8.77926163,0.4579 C8.77926163,0.3609 8.74252419,0.2759 8.66472725,0.2049 C8.58693032,0.1329 8.49616723,0.0959 8.38919645,0.0959 L4.48746413,0.0959 C3.51932451,0.0959 2.69165158,0.4149 2.00336482,1.0519 C1.31723908,1.6859 0.973635961,2.4509 0.973635961,3.3479 L0.973635961,11.2949 C0.973635961,12.1909 1.31723908,12.9569 2.00336482,13.5929 C2.69165158,14.2269 3.51932451,14.5469 4.48746413,14.5469 L8.38919645,14.5469 C8.49616723,14.5469 8.57828622,14.5219 8.64095597,14.4729 C8.69930367,14.4229 8.74252419,14.3509 8.76089291,14.2519 C8.78250317,14.1549 8.7933083,14.0659 8.79871086,13.9859 C8.8019524,13.9069 8.8019524,13.8089 8.7933083,13.6899 C8.78466419,13.5679 8.77926163,13.4909 8.77926163,13.4619" id="Fill-972"></path>
                        <path d="M19.868242,6.8125 L13.2317314,0.6725 C13.0772181,0.5295 12.8956919,0.4585 12.6839113,0.4585 C12.4721308,0.4585 12.2873631,0.5295 12.1350107,0.6725 C11.9794169,0.8165 11.9027005,0.9855 11.9027005,1.1805 L11.9027005,4.4325 L6.43746588,4.4325 C6.22676585,4.4325 6.04523967,4.5035 5.8896458,4.6455 C5.73405194,4.7895 5.65733551,4.9575 5.65733551,5.1535 L5.65733551,9.4895 C5.65733551,9.6855 5.73405194,9.8535 5.8896458,9.9975 C6.04523967,10.1405 6.22676585,10.2125 6.43746588,10.2125 L11.9027005,10.2125 L11.9027005,13.4615 C11.9027005,13.6575 11.9794169,13.8285 12.1350107,13.9695 C12.2873631,14.1135 12.4721308,14.1845 12.6839113,14.1845 C12.8956919,14.1845 13.0772181,14.1135 13.2317314,13.9695 L19.868242,7.8305 C20.0216749,7.6865 20.0983913,7.5185 20.0983913,7.3225 C20.0983913,7.1265 20.0216749,6.9565 19.868242,6.8125" id="Fill-973"></path>
                    </g>
                </g>
            </g>
        </g>
    </g>
</svg>
