<svg xmlns="http://www.w3.org/2000/svg" xmlns:xlink="http://www.w3.org/1999/xlink" width="24" height="24" viewBox="0 0 24 24">
    <defs>
        <path id="a" d="M16.293 11.707L12 7.414l-4.293 4.293a1 1 0 1 1-1.414-1.414l5-5a1 1 0 0 1 1.414 0l5 5a1 1 0 0 1-1.414 1.414zM12 14.414l-4.293 4.293a1 1 0 1 1-1.414-1.414l5-5a1 1 0 0 1 1.414 0l5 5a1 1 0 0 1-1.414 1.414L12 14.414z"/>
    </defs>
    <g fill="none" fill-rule="evenodd">
        <mask id="b" fill="#fff">
            <use xlink:href="#a"/>
        </mask>
        <use fill="#000" fill-rule="nonzero" xlink:href="#a"/>
        <g fill="#000" mask="url(#b)">
            <path d="M0 0h24v24H0z"/>
        </g>
    </g>
</svg>
