<?xml version="1.0" encoding="UTF-8" standalone="no"?>
<svg width="12px" height="14px" viewBox="0 0 12 14" version="1.1" xmlns="http://www.w3.org/2000/svg" xmlns:xlink="http://www.w3.org/1999/xlink">
    <!-- Generator: Sketch 3.6.1 (26313) - http://www.bohemiancoding.com/sketch -->
    <title>Group</title>
    <desc>Created with Sketch.</desc>
    <defs>
        <path d="M11.293,6.707 L7,2.414 L2.707,6.707 C2.45592553,6.96695658 2.08412211,7.0712126 1.73449268,6.97969716 C1.38486324,6.88818172 1.11181828,6.61513676 1.02030284,6.26550732 C0.928787403,5.91587789 1.03304342,5.54407447 1.293,5.293 L6.293,0.293 C6.68349985,-0.0973819383 7.31650015,-0.0973819383 7.707,0.293 L12.707,5.293 C13.0859722,5.68537889 13.0805524,6.30908478 12.6948186,6.69481858 C12.3090848,7.08055237 11.6853789,7.08597221 11.293,6.707 L11.293,6.707 Z M7,9.414 L2.707,13.707 C2.45592553,13.9669566 2.08412211,14.0712126 1.73449268,13.9796972 C1.38486324,13.8881817 1.11181828,13.6151368 1.02030284,13.2655073 C0.928787403,12.9158779 1.03304342,12.5440745 1.293,12.293 L6.293,7.293 C6.68349985,6.90261806 7.31650015,6.90261806 7.707,7.293 L12.707,12.293 C13.0859722,12.6853789 13.0805524,13.3090848 12.6948186,13.6948186 C12.3090848,14.0805524 11.6853789,14.0859722 11.293,13.707 L7,9.414 L7,9.414 Z" id="path-1"></path>
    </defs>
    <g id="Page-1" stroke="none" stroke-width="1" fill="none" fill-rule="evenodd">
        <g id="Group" transform="translate(5.500000, 6.500000) scale(1, -1) translate(-5.500000, -6.500000) translate(-1.000000, -1.000000)">
            <g id="b" fill="#FFFFFF">
                <path d="M11.293,6.707 L7,2.414 L2.707,6.707 C2.45592553,6.96695658 2.08412211,7.0712126 1.73449268,6.97969716 C1.38486324,6.88818172 1.11181828,6.61513676 1.02030284,6.26550732 C0.928787403,5.91587789 1.03304342,5.54407447 1.293,5.293 L6.293,0.293 C6.68349985,-0.0973819383 7.31650015,-0.0973819383 7.707,0.293 L12.707,5.293 C13.0859722,5.68537889 13.0805524,6.30908478 12.6948186,6.69481858 C12.3090848,7.08055237 11.6853789,7.08597221 11.293,6.707 L11.293,6.707 Z M7,9.414 L2.707,13.707 C2.45592553,13.9669566 2.08412211,14.0712126 1.73449268,13.9796972 C1.38486324,13.8881817 1.11181828,13.6151368 1.02030284,13.2655073 C0.928787403,12.9158779 1.03304342,12.5440745 1.293,12.293 L6.293,7.293 C6.68349985,6.90261806 7.31650015,6.90261806 7.707,7.293 L12.707,12.293 C13.0859722,12.6853789 13.0805524,13.3090848 12.6948186,13.6948186 C12.3090848,14.0805524 11.6853789,14.0859722 11.293,13.707 L7,9.414 L7,9.414 Z" id="a"></path>
            </g>
            <g id="a-link" fill="#000000">
                <path d="M11.293,6.707 L7,2.414 L2.707,6.707 C2.45592553,6.96695658 2.08412211,7.0712126 1.73449268,6.97969716 C1.38486324,6.88818172 1.11181828,6.61513676 1.02030284,6.26550732 C0.928787403,5.91587789 1.03304342,5.54407447 1.293,5.293 L6.293,0.293 C6.68349985,-0.0973819383 7.31650015,-0.0973819383 7.707,0.293 L12.707,5.293 C13.0859722,5.68537889 13.0805524,6.30908478 12.6948186,6.69481858 C12.3090848,7.08055237 11.6853789,7.08597221 11.293,6.707 L11.293,6.707 Z M7,9.414 L2.707,13.707 C2.45592553,13.9669566 2.08412211,14.0712126 1.73449268,13.9796972 C1.38486324,13.8881817 1.11181828,13.6151368 1.02030284,13.2655073 C0.928787403,12.9158779 1.03304342,12.5440745 1.293,12.293 L6.293,7.293 C6.68349985,6.90261806 7.31650015,6.90261806 7.707,7.293 L12.707,12.293 C13.0859722,12.6853789 13.0805524,13.3090848 12.6948186,13.6948186 C12.3090848,14.0805524 11.6853789,14.0859722 11.293,13.707 L7,9.414 L7,9.414 Z" id="a"></path>
            </g>
            <g id="Clipped">
                <mask id="mask-2" fill="white">
                    <use xlink:href="#path-1"></use>
                </mask>
                <g id="a"></g>
                <g id="Group" mask="url(#mask-2)" fill="#000000">
                    <g transform="translate(-5.000000, -5.000000)" id="Shape">
                        <path d="M0,0 L24,0 L24,24 L0,24 L0,0 Z"></path>
                    </g>
                </g>
            </g>
        </g>
    </g>
</svg>