<?xml version="1.0" encoding="UTF-8"?>
<svg width="16px" height="16px" viewBox="0 0 16 16" version="1.1" xmlns="http://www.w3.org/2000/svg" xmlns:xlink="http://www.w3.org/1999/xlink">
    <!-- Generator: Sketch 48.2 (47327) - http://www.bohemiancoding.com/sketch -->
    <title>Fill 884</title>
    <desc>Created with Sketch.</desc>
    <defs></defs>
    <g id="New" stroke="none" stroke-width="1" fill="none" fill-rule="evenodd" transform="translate(-575.000000, -227.000000)">
        <g id="DashboardSummary-New-V4" transform="translate(260.000000, 93.000000)" fill="#333333">
            <g id="Models" transform="translate(0.000000, 113.000000)">
                <g id="View-More---Gray" transform="translate(306.819209, 12.000000)">
                    <path d="M16.3285342,22.6904 C13.0348882,22.6904 10.3543366,19.9884 10.3543366,16.6684 C10.3543366,13.3464 13.0348882,10.6454 16.3285342,10.6454 C19.6231722,10.6454 22.3027318,13.3464 22.3027318,16.6684 C22.3027318,19.9884 19.6231722,22.6904 16.3285342,22.6904 L16.3285342,22.6904 Z M16.3285342,9.2544 C12.2670322,9.2544 8.97537034,12.5744 8.97537034,16.6684 C8.97537034,20.7614 12.2670322,24.0804 16.3285342,24.0804 C20.3900362,24.0804 23.6826901,20.7614 23.6826901,16.6684 C23.6826901,12.5744 20.3900362,9.2544 16.3285342,9.2544 L16.3285342,9.2544 Z M15.6459955,13.6074 L15.6450034,13.6094 C15.5219878,13.4964 15.3592896,13.4244 15.1797264,13.4244 C14.7987745,13.4244 14.4892512,13.7364 14.4892512,14.1204 C14.4892512,14.3224 14.5775447,14.5024 14.7144493,14.6294 L14.7134572,14.6314 L16.916827,16.6684 L14.7134572,18.7044 L14.7144493,18.7064 C14.5775447,18.8324 14.4892512,19.0124 14.4892512,19.2154 C14.4892512,19.5994 14.7987745,19.9114 15.1797264,19.9114 C15.3592896,19.9114 15.5219878,19.8394 15.6450034,19.7264 L15.6459955,19.7284 L18.4029359,17.1804 C18.5448008,17.0474 18.6261499,16.8634 18.6261499,16.6684 C18.6261499,16.4724 18.5448008,16.2874 18.4029359,16.1554 L15.6459955,13.6074 Z" id="Fill-884"></path>
                </g>
            </g>
        </g>
    </g>
</svg>