<?xml version="1.0" encoding="UTF-8" standalone="no"?>
<svg width="17px" height="27px" viewBox="0 0 18 27" version="1.1" xmlns="http://www.w3.org/2000/svg" xmlns:xlink="http://www.w3.org/1999/xlink">
    <!-- Generator: Sketch 3.6.1 (26313) - http://www.bohemiancoding.com/sketch -->
    <title>Fill-689</title>
    <desc>Created with Sketch.</desc>
    <defs></defs>
    <g id="Page-1" stroke="none" stroke-width="1" fill="none" fill-rule="evenodd">
        <path d="M4.197047,26.9932 C4.141457,26.9862 4.089768,26.9832 4.034177,26.9762 C3.926898,26.9632 3.822544,26.9462 3.716239,26.9232 C3.292972,26.8372 2.886285,26.6702 2.518608,26.4322 C2.199695,26.2262 1.91004,25.9702 1.670124,25.6732 C1.461416,25.4162 1.289769,25.1332 1.156157,24.8322 C0.976707,24.4292 0.869428,23.9922 0.841145,23.5482 C0.807986,23.0522 0.873329,22.5482 1.036199,22.0772 C1.159083,21.7142 1.341458,21.3672 1.569671,21.0602 C1.634039,20.9712 1.702308,20.8872 1.777404,20.8042 C1.813489,20.7642 1.852499,20.7232 1.887609,20.6832 L8.494085,13.9102 L1.965631,7.2162 L1.855425,7.0992 C1.81934,7.0562 1.783255,7.0162 1.748146,6.9722 C1.679877,6.8892 1.615509,6.8002 1.553092,6.7092 C1.305373,6.3462 1.126899,5.9352 1.019619,5.5062 C0.941598,5.1852 0.905513,4.8512 0.91234,4.5182 C0.922092,4.0212 1.032298,3.5242 1.234178,3.0702 C1.436059,2.6172 1.725714,2.2072 2.082663,1.8702 C2.362565,1.6102 2.681478,1.3932 3.026724,1.2332 C3.419757,1.0502 3.84595,0.9392 4.275069,0.9092 C4.759778,0.8762 5.251314,0.9462 5.70969,1.1092 C6.067614,1.2362 6.403107,1.4232 6.704465,1.6602 C6.789314,1.7262 6.874162,1.7972 6.952184,1.8702 C6.991194,1.9102 7.030205,1.9462 7.069216,1.9872 L16.147029,11.2952 C16.247479,11.4012 16.273809,11.4252 16.365489,11.5392 C16.541029,11.7522 16.691229,11.9852 16.811179,12.2322 C17.058899,12.7252 17.190559,13.2722 17.204219,13.8262 C17.217869,14.3842 17.106689,14.9362 16.882379,15.4402 C16.748769,15.7442 16.573219,16.0272 16.365489,16.2812 C16.273809,16.3942 16.247479,16.4212 16.147029,16.5272 L6.991194,25.9162 C6.88684,26.0192 6.860508,26.0462 6.750303,26.1392 C6.626444,26.2462 6.496733,26.3472 6.360195,26.4322 C5.946681,26.7002 5.484403,26.8772 5.003595,26.9532 C4.844626,26.9792 4.681756,26.9972 4.518886,27.0002 L4.359917,27.0002 C4.304327,26.9972 4.249712,26.9932 4.197047,26.9932" id="Fill-689" fill="#FFFFFF"></path>
    </g>
</svg>
