<?xml version="1.0" encoding="utf-8"?>
<!-- Generator: Adobe Illustrator 22.0.1, SVG Export Plug-In . SVG Version: 6.00 Build 0)  -->
<svg version="1.1" id="Layer_1" xmlns="http://www.w3.org/2000/svg" xmlns:xlink="http://www.w3.org/1999/xlink" x="0px" y="0px"
	 viewBox="0 0 143.8 97.7" style="enable-background:new 0 0 143.8 97.7;" xml:space="preserve">
<style type="text/css">
	.st0{fill:#82C600;}
</style>
<g>
	<g>
		<g>
			<path d="M57,4.8c-1.5-1-3.2-1.5-5.3-1.5c-1.7,0-3.2,0.3-4.4,1c-1.2,0.6-2.2,1.5-3,2.6c-0.8,1.1-1.4,2.3-1.8,3.8
				c-0.4,1.4-0.6,2.9-0.6,4.4c0,1.7,0.2,3.2,0.6,4.7c0.4,1.5,1,2.8,1.8,3.9c0.8,1.1,1.8,2,3.1,2.6c1.2,0.6,2.7,1,4.5,1
				c1.3,0,2.4-0.2,3.4-0.6c1-0.4,1.8-1,2.6-1.7c0.7-0.7,1.3-1.6,1.7-2.7c0.4-1,0.6-2.1,0.7-3.3H64c-0.4,3.7-1.6,6.5-3.8,8.5
				c-2.1,2-5.1,3-8.8,3c-2.2,0-4.2-0.4-5.9-1.2c-1.7-0.8-3.1-1.8-4.2-3.2c-1.1-1.4-1.9-3-2.5-4.8c-0.6-1.8-0.8-3.8-0.8-5.9
				c0-2.1,0.3-4.1,0.9-5.9c0.6-1.9,1.5-3.5,2.6-4.9c1.2-1.4,2.6-2.5,4.3-3.3C47.6,0.4,49.5,0,51.7,0c1.5,0,2.9,0.2,4.3,0.6
				c1.4,0.4,2.6,1,3.6,1.8c1.1,0.8,1.9,1.8,2.6,2.9c0.7,1.2,1.2,2.5,1.4,4.1h-3.9C59.4,7.4,58.4,5.8,57,4.8"/>
			<path d="M76.9,26.4c0.4,0,1,0,1.6-0.1s1.3-0.2,2.1-0.5c0.7-0.3,1.5-0.6,2.2-1.1c0.7-0.5,1.4-1.2,1.9-2c0.6-0.8,1-1.9,1.4-3.1
				c0.4-1.3,0.5-2.8,0.5-4.6c0-1.7-0.2-3.3-0.5-4.6c-0.3-1.4-0.9-2.5-1.7-3.5c-0.8-1-1.8-1.7-3-2.2c-1.2-0.5-2.7-0.8-4.5-0.8h-6.5
				v22.5H76.9z M76.6,0.7c4.5,0,7.9,1.1,10.3,3.4c2.4,2.3,3.6,5.7,3.6,10.4c0,2.4-0.3,4.6-0.8,6.5c-0.5,1.9-1.4,3.5-2.5,4.8
				C86,27,84.6,28,82.8,28.7c-1.8,0.7-3.8,1-6.3,1h-9.9v-29H76.6z"/>
		</g>
		<polygon points="97.2,0.7 97.2,15.1 111.9,0.7 116.9,0.7 104.6,12.4 117.3,29.7 112.5,29.7 102,15 97.2,19.5 97.2,29.7 93.3,29.7 
			93.3,0.7 		"/>
		<g>
			<path d="M38,49c0-2.1,0.3-4,0.9-5.9c0.6-1.9,1.5-3.5,2.7-4.9c1.2-1.4,2.6-2.5,4.3-3.3c1.7-0.8,3.6-1.2,5.8-1.2
				c1.5,0,2.9,0.2,4.3,0.6c1.4,0.4,2.6,1.1,3.6,1.9c1.1,0.8,2,1.9,2.7,3c0.7,1.2,1.2,2.5,1.5,4.1H62c-0.7-2.5-1.9-4.5-3.6-6
				c-1.8-1.4-4-2.1-6.6-2.1c-1.9,0-3.7,0.4-5.1,1.1c-1.5,0.8-2.7,1.8-3.7,3c-1,1.3-1.8,2.7-2.3,4.4c-0.5,1.7-0.8,3.4-0.8,5.2
				c0,1.8,0.2,3.6,0.7,5.2c0.5,1.6,1.2,3.1,2.2,4.3c1,1.2,2.2,2.2,3.7,2.9c1.5,0.7,3.2,1.1,5.2,1.1c1.7,0,3.3-0.3,4.7-0.9
				c1.4-0.6,2.5-1.4,3.5-2.4c1-1,1.7-2.3,2.2-3.7c0.5-1.4,0.7-3.1,0.6-4.8H52v-1.5h12.2v14.2h-1.5v-6.2h-0.1c-0.4,1.1-0.9,2-1.6,2.9
				c-0.7,0.9-1.5,1.6-2.5,2.1c-1,0.6-2,1-3.2,1.4c-1.2,0.3-2.4,0.5-3.7,0.5c-2.2,0-4.1-0.4-5.8-1.2c-1.7-0.8-3.1-1.9-4.3-3.2
				c-1.2-1.4-2-2.9-2.6-4.8C38.3,53.1,38,51.1,38,49"/>
		</g>
		<rect x="67.6" y="34.4" width="1.5" height="28.9"/>
		<g>
			<path d="M73,52.9c0,1.2,0.2,2.4,0.5,3.6c0.4,1.1,0.9,2.2,1.5,3.1c0.7,0.9,1.5,1.6,2.5,2.1c1,0.5,2.1,0.8,3.4,0.8
				c1.3,0,2.4-0.3,3.4-0.8c1-0.5,1.8-1.2,2.5-2.1c0.7-0.9,1.2-1.9,1.5-3.1c0.4-1.1,0.5-2.3,0.5-3.6c0-1.2-0.2-2.4-0.5-3.6
				c-0.4-1.1-0.9-2.2-1.5-3.1c-0.7-0.9-1.5-1.6-2.5-2.1c-1-0.5-2.1-0.8-3.4-0.8c-1.3,0-2.4,0.3-3.4,0.8c-1,0.5-1.8,1.2-2.5,2.1
				c-0.7,0.9-1.2,1.9-1.5,3.1C73.1,50.5,73,51.7,73,52.9 M71.4,52.9c0-1.5,0.2-2.9,0.6-4.2c0.4-1.3,1-2.5,1.8-3.5
				c0.8-1,1.8-1.8,3-2.4c1.2-0.6,2.6-0.9,4.1-0.9c1.5,0,2.9,0.3,4.1,0.9c1.2,0.6,2.2,1.4,3,2.4c0.8,1,1.4,2.2,1.8,3.5
				c0.4,1.3,0.6,2.7,0.6,4.2c0,1.5-0.2,2.9-0.6,4.2c-0.4,1.3-1,2.5-1.8,3.5c-0.8,1-1.8,1.8-3,2.4c-1.2,0.6-2.6,0.9-4.1,0.9
				c-1.5,0-2.9-0.3-4.1-0.9c-1.2-0.6-2.2-1.4-3-2.4c-0.8-1-1.4-2.1-1.8-3.5C71.6,55.8,71.4,54.4,71.4,52.9"/>
			<path d="M102.3,62.5c1.4,0,2.5-0.3,3.5-0.9c0.9-0.6,1.7-1.4,2.3-2.3c0.6-1,1-2,1.3-3.2c0.3-1.2,0.4-2.4,0.4-3.6
				c0-1.2-0.2-2.3-0.5-3.4c-0.3-1.1-0.8-2-1.4-2.9c-0.6-0.9-1.4-1.5-2.4-2c-0.9-0.5-2-0.8-3.3-0.8c-1.4,0-2.5,0.2-3.5,0.7
				c-1,0.5-1.8,1.1-2.5,1.9c-0.7,0.8-1.1,1.8-1.5,2.9c-0.3,1.1-0.5,2.3-0.5,3.6c0,1.3,0.1,2.5,0.4,3.7c0.3,1.2,0.8,2.3,1.4,3.2
				c0.6,0.9,1.5,1.7,2.5,2.2C99.7,62.2,100.9,62.5,102.3,62.5 M92.8,34.4h1.5v12.5h0.1c0.3-0.8,0.7-1.5,1.3-2.1
				c0.5-0.6,1.2-1.1,1.9-1.5c0.7-0.4,1.5-0.7,2.3-0.9c0.8-0.2,1.7-0.3,2.5-0.3c1.5,0,2.9,0.3,4,0.8c1.1,0.5,2.1,1.3,2.8,2.2
				c0.8,0.9,1.3,2,1.7,3.3c0.4,1.3,0.5,2.6,0.5,4.1c0,2.5-0.3,4.5-1,6c-0.7,1.5-1.5,2.6-2.4,3.4c-0.9,0.8-1.9,1.3-3,1.6
				c-1,0.3-1.9,0.4-2.6,0.4c-1.4,0-2.6-0.2-3.5-0.6c-1-0.4-1.8-0.9-2.4-1.5c-0.6-0.6-1.1-1.2-1.4-1.7c-0.3-0.6-0.5-1-0.6-1.3h-0.1
				v4.7h-1.5V34.4z"/>
			<path d="M127.8,51.5c-0.4,0.5-1,0.8-1.7,0.9c-0.8,0.2-1.6,0.3-2.6,0.4l-2.6,0.2c-0.8,0.1-1.5,0.2-2.3,0.3c-0.8,0.1-1.4,0.4-2,0.7
				c-0.6,0.4-1.1,0.8-1.5,1.4c-0.4,0.6-0.6,1.4-0.6,2.4c0,1.5,0.5,2.7,1.5,3.4c1,0.7,2.3,1.1,4,1.1c1.8,0,3.1-0.3,4.2-1
				c1-0.6,1.8-1.4,2.4-2.2c0.5-0.8,0.9-1.6,1-2.4c0.1-0.8,0.2-1.3,0.2-1.6V51.5z M127.8,59.2L127.8,59.2c-0.3,0.6-0.7,1.2-1.1,1.8
				c-0.5,0.6-1,1-1.7,1.5c-0.7,0.4-1.4,0.8-2.2,1c-0.8,0.2-1.8,0.4-2.8,0.4c-2.2,0-3.9-0.5-5.1-1.4c-1.2-1-1.8-2.4-1.8-4.4
				c0-1.2,0.2-2.2,0.7-3c0.5-0.8,1.1-1.4,1.8-1.8c0.7-0.4,1.6-0.8,2.5-1c0.9-0.2,1.8-0.3,2.6-0.4l2.4-0.2c1.1-0.1,2-0.2,2.6-0.4
				c0.6-0.2,1.1-0.4,1.4-0.7c0.3-0.3,0.5-0.7,0.6-1.2c0.1-0.5,0.1-1.1,0.1-1.8c0-0.6-0.1-1.1-0.3-1.6c-0.2-0.5-0.6-0.9-1-1.3
				c-0.5-0.4-1.1-0.7-1.8-0.9c-0.7-0.2-1.6-0.3-2.7-0.3c-1.9,0-3.4,0.5-4.5,1.4c-1.1,0.9-1.8,2.3-1.9,4.2h-1.5
				c0.1-2.3,0.8-4,2.2-5.2c1.4-1.1,3.3-1.7,5.8-1.7c2.5,0,4.3,0.5,5.5,1.5c1.1,1,1.7,2.3,1.7,3.9v12.1c0,0.3,0,0.6,0,0.9
				c0,0.3,0.1,0.6,0.1,0.8c0.1,0.2,0.2,0.4,0.4,0.6c0.2,0.1,0.5,0.2,0.8,0.2c0.3,0,0.6,0,1.1-0.1v1.3c-0.4,0.1-0.8,0.2-1.3,0.2
				c-0.6,0-1.1-0.1-1.5-0.2c-0.4-0.2-0.6-0.4-0.8-0.6c-0.2-0.3-0.3-0.6-0.4-1c-0.1-0.4-0.1-0.8-0.1-1.2V59.2z"/>
		</g>
		<rect x="134.1" y="34.4" width="1.5" height="28.9"/>
		<g>
			<path d="M30.3,15.2c0,8.4-6.8,15.2-15.2,15.2S0,23.5,0,15.2C0,6.8,6.8,0,15.2,0S30.3,6.8,30.3,15.2"/>
			<path d="M30.3,48.9c0,8.4-6.8,15.2-15.2,15.2S0,57.2,0,48.9s6.8-15.2,15.2-15.2S30.3,40.5,30.3,48.9"/>
			<path class="st0" d="M15.2,67.4C6.8,67.4,0,74.2,0,82.6c0,8.4,6.8,15.2,15.2,15.2c8.4,0,15.2-6.8,15.2-15.2
				C30.3,74.2,23.5,67.4,15.2,67.4"/>
		</g>
	</g>
	<path d="M137.9,60.6c0,1.8,1.4,2.9,3,2.9c1.6,0,3-1.1,3-2.9c0-1.7-1.4-2.9-3-2.9C139.3,57.7,137.9,58.8,137.9,60.6z M138.7,60.6
		c0-1.3,1-2.3,2.2-2.3c1.2,0,2.2,0.9,2.2,2.3c0,1.3-1,2.3-2.2,2.3C139.6,62.9,138.7,61.9,138.7,60.6z M139.7,62.2h0.6v-1.4h0.4
		l0.8,1.4h0.7l-0.9-1.4c0.5,0,0.8-0.3,0.8-0.9c0-0.7-0.5-1-1.3-1h-1.2V62.2z M140.3,59.5h0.5c0.3,0,0.7,0.1,0.7,0.4
		c0,0.4-0.3,0.4-0.6,0.4h-0.6V59.5z"/>
</g>
</svg>
