<?xml version="1.0" encoding="UTF-8"?>
<svg width="165px" height="18px" viewBox="0 0 165 18" version="1.1" xmlns="http://www.w3.org/2000/svg" xmlns:xlink="http://www.w3.org/1999/xlink">
    <!-- Generator: Sketch 48.2 (47327) - http://www.bohemiancoding.com/sketch -->
    <title>Logo - CDK</title>
    <desc>Created with Sketch.</desc>
    <defs>
        <polygon id="path-1" points="0.166555556 0.274193548 14.7221111 0.274193548 14.7221111 16.8902129 0.166555556 16.8902129"></polygon>
    </defs>
    <g id="F&amp;I---F&amp;I-Analysis" stroke="none" stroke-width="1" fill="none" fill-rule="evenodd" transform="translate(-26.000000, -19.000000)">
        <g id="Background">
            <g id="Logo---CDK" transform="translate(26.000000, 19.000000)">
                <path d="M70.1769231,2.62828947 C69.3692308,2.06907895 68.4538462,1.78947368 67.3230769,1.78947368 C66.4076923,1.78947368 65.6,1.95723684 64.9,2.34868421 C64.2538462,2.68421053 63.7153846,3.1875 63.2846154,3.80263158 C62.8538462,4.41776316 62.5307692,5.08881579 62.3153846,5.92763158 C62.1,6.71052632 61.9923077,7.54934211 61.9923077,8.38815789 C61.9923077,9.28289474 62.1,10.1776316 62.3153846,11.0164474 C62.5307692,11.8552632 62.8538462,12.5822368 63.2846154,13.1973684 C63.7153846,13.8125 64.2538462,14.3157895 64.9538462,14.6513158 C65.6,14.9874013 66.4076923,15.2105263 67.3769231,15.2105263 C68.0769231,15.2105263 68.6692308,15.0986842 69.2076923,14.875 C69.7461538,14.6513158 70.2307692,14.3157895 70.6076923,13.9243421 C70.9846154,13.5328947 71.3076923,13.0301645 71.5230769,12.4144737 C71.7384615,11.8552632 71.8461538,11.2401316 71.9,10.5690789 L74,10.5690789 C73.7846154,12.6381579 73.1384615,14.2039474 71.9538462,15.3223684 C70.8230769,16.4407895 69.2076923,17 67.2153846,17 C66.0307692,17 64.9538462,16.7763158 64.0384615,16.3289474 C63.1230769,15.8815789 62.3692308,15.3223684 61.7769231,14.5394737 C61.1846154,13.8125 60.7538462,12.9177632 60.4307692,11.8552632 C60.1076923,10.7933224 60,9.73026316 60,8.55592105 C60,7.38157895 60.1615385,6.26315789 60.4846154,5.20065789 C60.8076923,4.13815789 61.2923077,3.24342105 61.8846154,2.51644737 C62.4769231,1.73355263 63.2846154,1.11842105 64.2,0.671052632 C65.1153846,0.223684211 66.1923077,0 67.3769231,0 C68.1846154,0 68.9923077,0.111842105 69.6923077,0.335526316 C70.4461538,0.559210526 71.0923077,0.894736842 71.6307692,1.34210526 C72.2230769,1.78947368 72.6538462,2.34868421 73.0307692,2.96381579 C73.4076923,3.63486842 73.6769231,4.36184211 73.7846154,5.25657895 L71.6846154,5.25657895 C71.4692308,4.08223684 70.9307692,3.1875 70.1769231,2.62828947" id="Fill-1" fill="#FFFFFF"></path>
                <path d="M81.4393305,1 C83.8870293,1 85.7364017,1.60689655 87.041841,2.87586207 C88.3472803,4.14482759 89,6.02068966 89,8.6137931 C89,9.93793103 88.8368201,11.1511724 88.5648536,12.2 C88.292887,13.2482759 87.8033473,14.1310345 87.2050209,14.8482759 C86.6066946,15.5649655 85.790795,16.1166897 84.8661088,16.4482759 C83.8870293,16.8344828 82.7991632,17 81.4937238,17 L76,17 L76,1 L81.4393305,1 Z M81.6025105,15.1793103 C81.8200837,15.1793103 82.1464435,15.1793103 82.4728033,15.1241379 C82.7991632,15.0689655 83.1799163,15.0132414 83.6150628,14.8482759 C83.9958159,14.6827586 84.4309623,14.5172414 84.8117155,14.2413793 C85.1924686,13.9655172 85.5732218,13.633931 85.8451883,13.137931 C86.1715481,12.6965517 86.3891213,12.0896552 86.6066946,11.4270345 C86.8242678,10.7103448 86.8786611,9.88275862 86.8786611,8.88965517 C86.8786611,7.95172414 86.7698745,7.06896552 86.6066946,6.29655172 C86.4435146,5.52413793 86.1171548,4.91724138 85.6820084,4.36551724 C85.2468619,3.8137931 84.7029289,3.42758621 84.0502092,3.15172414 C83.3974895,2.87586207 82.58159,2.76551724 81.6025105,2.76551724 L78.0669456,2.76551724 L78.0669456,15.1793103 L81.6025105,15.1793103 Z" id="Fill-3" fill="#FFFFFF"></path>
                <polygon id="Fill-5" fill="#FFFFFF" points="93.1032823 1 93.1032823 9 101.033072 1 103.730279 1 97.1490933 7.45517241 104 17 101.357276 17 95.6931408 8.88965517 93.1032823 11.3724138 93.1032823 17 91 17 91 1"></polygon>
                <g id="Group-9" transform="translate(104.000000, 0.000000)">
                    <mask id="mask-2" fill="white">
                        <use xlink:href="#path-1"></use>
                    </mask>
                    <g id="Clip-8"></g>
                    <path d="M0.166555556,8.66440645 C0.166555556,7.51279355 0.333222222,6.47085806 0.666555556,5.42892258 C0.999888889,4.44182581 1.49988889,3.50956774 2.16711111,2.74182581 C2.83322222,1.97408387 3.611,1.37085806 4.55544444,0.932148387 C5.50044444,0.49343871 6.55544444,0.274083871 7.77766667,0.274083871 C8.611,0.274083871 9.38933333,0.38376129 10.1665556,0.603116129 C10.8887778,0.822470968 11.6115556,1.20634194 12.1671111,1.64505161 C12.7776667,2.08376129 13.2782222,2.63214839 13.6665556,3.2902129 C14.0554444,3.94827742 14.3332222,4.66118065 14.4998889,5.5386 L13.556,5.5386 C13.1665556,4.16763226 12.4998889,3.07085806 11.5554444,2.24827742 C10.5554444,1.48053548 9.33322222,1.09666452 7.88877778,1.09666452 C6.83322222,1.09666452 5.83322222,1.31601935 4.99988889,1.69989032 C4.16655556,2.1386 3.49988889,2.6869871 2.94433333,3.34505161 C2.38877778,4.05795484 1.94433333,4.82569677 1.66655556,5.75795484 C1.38877778,6.6902129 1.22211111,7.62247097 1.22211111,8.60956774 C1.22211111,9.59666452 1.33377778,10.5837613 1.61155556,11.461729 C1.88933333,12.3386 2.27766667,13.1611806 2.83322222,13.8192452 C3.38877778,14.4778581 4.05544444,15.0262452 4.88877778,15.4095677 C5.72211111,15.7934387 6.66655556,16.0127935 7.77766667,16.0127935 C8.72211111,16.0127935 9.611,15.8488258 10.3887778,15.5192452 C11.1665556,15.1902129 11.7776667,14.7520516 12.3332222,14.2036645 C12.8887778,13.6552774 13.2782222,12.9418258 13.556,12.1740839 C13.8337778,11.4063419 13.9443333,10.4740839 13.8887778,9.54237419 L7.94433333,9.54237419 L7.94433333,8.71924516 L14.7221111,8.71924516 L14.7221111,16.5063419 L13.8887778,16.5063419 L13.8887778,13.1068903 L13.8337778,13.1068903 C13.611,13.6552774 13.3332222,14.2036645 12.9443333,14.6966645 C12.5554444,15.1353742 12.111,15.5746323 11.5554444,15.8488258 C10.9998889,16.1773097 10.4443333,16.3972129 9.77766667,16.6160194 C9.11155556,16.7805355 8.44433333,16.8902129 7.72266667,16.8902129 C6.49988889,16.8902129 5.44433333,16.6714065 4.49988889,16.2321484 C3.556,15.7934387 2.77766667,15.2450516 2.111,14.4778581 C1.44433333,13.7095677 0.999888889,12.8869871 0.666555556,11.8450516 C0.333222222,10.9133419 0.166555556,9.81656774 0.166555556,8.66440645" id="Fill-7" fill="#FFFFFF" mask="url(#mask-2)"></path>
                </g>
                <polygon id="Fill-10" fill="#FFFFFF" points="121 17 122 17 122 1 121 1"></polygon>
                <path d="M123,10.5299785 C123,9.63952692 123.115789,8.80843874 123.347368,8.03671401 C123.578947,7.26498927 123.926316,6.55262797 124.388895,5.95899356 C124.852632,5.36535915 125.431579,4.89045162 126.125737,4.53427097 C126.821053,4.17809032 127.631579,4 128.5,4 C129.368421,4 130.178368,4.17809032 130.873684,4.53427097 C131.568421,4.89045162 132.147368,5.36535915 132.610526,5.95899356 C133.073105,6.55262797 133.421053,7.20562583 133.652053,8.03671401 C133.884211,8.80843874 134,9.63952692 134,10.5299785 C134,11.4204302 133.884211,12.2509247 133.652053,13.0232431 C133.421053,13.7949678 133.073105,14.5073291 132.610526,15.1009635 C132.147368,15.6945979 131.568421,16.1695055 130.873684,16.4663227 C130.178368,16.8225033 129.426316,17 128.5,17 C127.631579,17 126.821053,16.8225033 126.125737,16.4663227 C125.431579,16.1095484 124.852632,15.6352345 124.388895,15.1009635 C123.926316,14.5073291 123.578947,13.8543312 123.347368,13.0232431 C123.115789,12.2509247 123,11.4204302 123,10.5299785 M123.868421,10.5299785 C123.868421,11.2423398 123.984211,11.9541075 124.157895,12.6670624 C124.331579,13.3200603 124.678368,13.9730581 125.026316,14.5073291 C125.431579,15.0416001 125.894737,15.4571442 126.473684,15.7539614 C127.052632,16.0507786 127.689474,16.2288689 128.441526,16.2288689 C129.194737,16.2288689 129.831579,16.0507786 130.410526,15.7539614 C130.989474,15.4571442 131.452632,15.0416001 131.857895,14.5073291 C132.263158,13.9730581 132.552632,13.3794237 132.726316,12.6670624 C132.9,11.9541075 133.015789,11.3017033 133.015789,10.5299785 C133.015789,9.81761724 132.9,9.10525595 132.726316,8.39289465 C132.494158,7.7398968 132.204684,7.08689895 131.857895,6.55262797 C131.452632,6.018357 130.989474,5.60281291 130.410526,5.30599571 C129.831579,5.0091785 129.194737,4.83108818 128.441526,4.83108818 C127.689474,4.83108818 127.052632,5.0091785 126.473684,5.30599571 C125.894737,5.60281291 125.431579,6.018357 125.026316,6.55262797 C124.621053,7.08689895 124.331579,7.68053336 124.157895,8.39289465 C123.984211,9.10525595 123.868421,9.81761724 123.868421,10.5299785" id="Fill-12" fill="#FFFFFF"></path>
                <path d="M135,0 L135.887049,0 L135.887049,7.17905405 L135.946777,7.17905405 C136.123596,6.71959459 136.360733,6.31756757 136.714962,5.97297297 C137.010645,5.62837838 137.425192,5.34121622 137.839148,5.11148649 C138.252513,4.88175676 138.726198,4.70945946 139.19929,4.59459459 C139.671792,4.47972973 140.204613,4.4222973 140.677705,4.4222973 C141.564755,4.4222973 142.392076,4.59459459 143.04317,4.88175676 C143.693081,5.16891892 144.284447,5.62837838 144.698403,6.14527027 C145.171496,6.66216216 145.467179,7.35135135 145.704317,8.04054054 C145.940272,8.78716216 146,9.53378378 146,10.3952703 C146,11.8310811 145.82259,12.9797297 145.408634,13.8412162 C144.994086,14.7027027 144.521585,15.3344595 143.988764,15.8513514 C143.457126,16.3102365 142.86576,16.5973986 142.214666,16.7702703 C141.6233,16.9425676 141.091662,17 140.677705,17 C139.849202,17 139.139562,16.8845608 138.607924,16.5973986 C138.016558,16.3682432 137.543465,16.0810811 137.188054,15.7359122 C136.833826,15.3918919 136.538143,15.0472973 136.360733,14.7601351 C136.182732,14.4155405 136.06505,14.1858108 136.005322,14.0129392 L135.946777,14.0129392 L135.946777,16.7128378 L135.059728,16.7128378 L135.059728,0 L135,0 Z M140.617978,16.1385135 C141.44589,16.1385135 142.096393,15.9662162 142.687759,15.6216216 C143.219988,15.277027 143.693081,14.8175676 144.048492,14.3001014 C144.40272,13.725777 144.639858,13.1514527 144.817268,12.4628378 C144.994086,11.7736486 145.053223,11.0844595 145.053223,10.3952703 C145.053223,9.70550676 144.935541,9.07432432 144.75754,8.44256757 C144.58013,7.81081081 144.284447,7.23648649 143.930219,6.77702703 C143.574808,6.26013514 143.101715,5.91554054 142.510349,5.62837838 C141.978711,5.34121622 141.327617,5.16891892 140.558841,5.16891892 C139.730928,5.16891892 139.080426,5.28378378 138.48906,5.57094595 C137.897694,5.85810811 137.425192,6.2027027 137.010645,6.66216216 C136.596688,7.12162162 136.360733,7.69594595 136.123596,8.3277027 C135.946777,8.95945946 135.827912,9.64864865 135.827912,10.3952703 C135.827912,11.1413176 135.887049,11.8310811 136.123596,12.5202703 C136.301005,13.2094595 136.596688,13.8412162 136.952099,14.3581081 C137.306328,14.8744257 137.839148,15.3344595 138.430514,15.6216216 C139.021881,15.9662162 139.730928,16.1385135 140.617978,16.1385135 Z" id="Fill-13" fill="#FFFFFF"></path>
                <path d="M155.647059,14.1712963 C155.470588,14.5324074 155.235294,14.8935185 155,15.2546296 C154.705882,15.6157407 154.411765,15.9166667 154,16.1574074 C153.588235,16.3981481 153.176471,16.6388889 152.705882,16.7592593 C152.235294,16.8796296 151.647059,17 151.058824,17 C149.764706,17 148.764706,16.6990741 148.058824,16.1574074 C147.352941,15.5555556 147,14.712963 147,13.5092593 C147,12.787037 147.117647,12.1851852 147.411765,11.7037037 C147.705882,11.2222222 148.058824,10.8611111 148.470588,10.6203704 C148.941176,10.3796296 149.411765,10.1388889 149.941176,10.0787037 C150.470588,9.95833333 151,9.89814815 151.470588,9.83796296 L152.882353,9.71759259 C153.529412,9.65740741 154.058824,9.59722222 154.411765,9.47685185 C154.764706,9.35648148 155.058824,9.23611111 155.235294,9.05555556 C155.411765,8.875 155.529412,8.63425926 155.588235,8.33333333 C155.647059,8.03240741 155.647059,7.6712963 155.647059,7.25 C155.647059,6.88888889 155.588235,6.58796296 155.470588,6.28703704 C155.352941,5.98611111 155.117647,5.74537037 154.882353,5.50462963 C154.588235,5.26388889 154.235294,5.08333333 153.823529,4.96296296 C153.411765,4.84259259 152.882353,4.78240741 152.235294,4.78240741 C151.117647,4.78240741 150.235294,5.08333333 149.588235,5.625 C148.941176,6.16666667 148.529412,7.00925926 148.470588,8.15277778 L147.588235,8.15277778 C147.647059,6.76851852 148.058824,5.74537037 148.882353,5.02314815 C149.705882,4.36111111 150.823529,4 152.294118,4 C153.764706,4 154.823529,4.30092593 155.529412,4.90277778 C156.176471,5.50462963 156.529412,6.28703704 156.529412,7.25 L156.529412,14.5324074 L156.529412,15.0740741 C156.529412,15.2546296 156.588235,15.4351852 156.647059,15.5555556 C156.705882,15.6759259 156.764706,15.7962963 156.882353,15.9166667 C157,15.9768519 157.176471,16.037037 157.352941,16.037037 C157.529412,16.037037 157.764706,16.037037 158,15.9768519 L158,16.7592593 C157.764706,16.8194444 157.529412,16.8796296 157.235294,16.8796296 C156.882353,16.8796296 156.588235,16.8194444 156.352941,16.7592593 C156.117647,16.6388889 156,16.5185185 155.882353,16.3981481 C155.764706,16.2175926 155.705882,16.037037 155.647059,15.7962963 C155.588235,15.5555556 155.588235,15.3148148 155.588235,15.0740741 L155.588235,14.1712963 L155.647059,14.1712963 Z M155.647059,9.53703704 C155.411765,9.83796296 155.058824,10.0185185 154.647059,10.0787037 C154.176471,10.1990741 153.705882,10.2592593 153.117647,10.3194444 L151.588235,10.4398148 C151.117647,10.5 150.705882,10.5601852 150.235294,10.6203704 C149.764706,10.7407407 149.411765,10.8611111 149.058824,11.1018519 C148.705882,11.2824074 148.411765,11.5833333 148.176471,11.9444444 C147.941176,12.3055556 147.823529,12.787037 147.823529,13.3888889 C147.823529,14.2916667 148.117647,15.0138889 148.705882,15.4351852 C149.294118,15.8564815 150.058824,16.0972222 151.058824,16.0972222 C152.117647,16.0972222 152.882353,15.9166667 153.529412,15.4953704 C154.117647,15.1342593 154.588235,14.6527778 154.882353,14.1712963 C155.176471,13.6898148 155.411765,13.2083333 155.470588,12.7268519 C155.529412,12.2453704 155.588235,11.9444444 155.588235,11.7638889 L155.588235,9.53703704 L155.647059,9.53703704 Z" id="Fill-14" fill="#FFFFFF"></path>
                <polygon id="Fill-15" fill="#FFFFFF" points="159 17 160 17 160 1 159 1"></polygon>
                <path d="M8.5,0 C13.1973684,0 17,3.80263158 17,8.5 C17,13.1973684 13.1973684,17 8.5,17 C3.80263158,16.9440789 0,13.1414474 0,8.5 C0,3.80263158 3.80263158,0 8.5,0" id="Fill-16" fill="#FFFFFF"></path>
                <path d="M27.5559211,0 C32.1973684,0 36,3.80263158 36,8.5 C36,13.1973684 32.1973684,17 27.5,17 C22.8026316,17 19,13.1973684 19,8.5 C19.0559211,3.80263158 22.8585526,0 27.5559211,0" id="Fill-17" fill="#FFFFFF"></path>
                <path d="M39,8.5 C39,13.1968092 42.8026316,17 47.5,17 C52.1973684,17 56,13.1968092 56,8.5 C55.9440789,3.80263158 52.1414474,0 47.5,0 C42.8026316,0 39,3.80263158 39,8.5" id="Fill-18" fill="#82C600"></path>
                <path d="M162.666667,15.1724138 L163,15.1724138 C163.200667,15.1724138 163.466667,15.2413793 163.466667,15.4475862 C163.466667,15.7241379 163.266667,15.7241379 163.067333,15.7241379 L162.666667,15.7241379 L162.666667,15.1724138 Z M162.200667,17.1034483 L162.6,17.1034483 L162.6,16.1372414 L162.867333,16.1372414 L163.400667,17.1034483 L163.867333,17.1034483 L163.266667,16.1372414 C163.6,16.1372414 163.8,15.9310345 163.8,15.5172414 C163.8,15.0344828 163.466667,14.8275862 162.933333,14.8275862 L162.133333,14.8275862 L162.133333,17.1034483 L162.200667,17.1034483 Z M161.534,16 C161.534,15.1027586 162.200667,14.4131034 163,14.4131034 C163.8,14.4131034 164.466667,15.0344828 164.466667,16 C164.466667,16.8965517 163.8,17.5862069 163,17.5862069 C162.200667,17.5165517 161.534,16.8965517 161.534,16 Z M161,16 C161,17.2413793 161.933333,18 163,18 C164.067333,18 165,17.2413793 165,16 C165,14.8275862 164.067333,14 163,14 C161.933333,14 161,14.757931 161,16 Z" id="Fill-19" fill="#FFFFFF"></path>
            </g>
        </g>
    </g>
</svg>