<?xml version="1.0" encoding="UTF-8" standalone="no"?>
<!-- Generator: Adobe Illustrator 17.0.0, SVG Export Plug-In . SVG Version: 6.00 Build 0)  -->

<svg
   xmlns:dc="http://purl.org/dc/elements/1.1/"
   xmlns:cc="http://creativecommons.org/ns#"
   xmlns:rdf="http://www.w3.org/1999/02/22-rdf-syntax-ns#"
   xmlns:svg="http://www.w3.org/2000/svg"
   xmlns="http://www.w3.org/2000/svg"
   xmlns:sodipodi="http://sodipodi.sourceforge.net/DTD/sodipodi-0.dtd"
   xmlns:inkscape="http://www.inkscape.org/namespaces/inkscape"
   version="1.1"
   id="Layer_1"
   x="0px"
   y="0px"
   width="101px"
   height="101px"
   viewBox="0 0 101 101"
   enable-background="new 0 0 101 101"
   xml:space="preserve"
   inkscape:version="0.91 r13725"
   sodipodi:docname="default-avatar-dark.svg"><metadata
     id="metadata9"><rdf:RDF><cc:Work
         rdf:about=""><dc:format>image/svg+xml</dc:format><dc:type
           rdf:resource="http://purl.org/dc/dcmitype/StillImage" /><dc:title></dc:title></cc:Work></rdf:RDF></metadata><defs
     id="defs7" /><sodipodi:namedview
     pagecolor="#ffffff"
     bordercolor="#666666"
     borderopacity="1"
     objecttolerance="10"
     gridtolerance="10"
     guidetolerance="10"
     inkscape:pageopacity="0"
     inkscape:pageshadow="2"
     inkscape:window-width="1920"
     inkscape:window-height="1027"
     id="namedview5"
     showgrid="false"
     inkscape:zoom="2.3366337"
     inkscape:cx="51.355932"
     inkscape:cy="50.5"
     inkscape:window-x="2560"
     inkscape:window-y="0"
     inkscape:window-maximized="1"
     inkscape:current-layer="Layer_1" /><path
     fill-rule="evenodd"
     clip-rule="evenodd"
     fill="#ffffff"
     d="M86.445,85.96C76.876,95.659,64.111,101,50.5,101  c-13.585,0-26.335-5.323-35.899-14.989C5.185,76.495,0,63.883,0,50.5C0,22.654,22.654,0,50.5,0C78.346,0,101,22.654,101,50.5  C101,63.855,95.832,76.449,86.445,85.96z M82.481,85.036c-4.183-2.383-10.558-4.692-17.264-7.118  c-2.234-0.807-4.524-1.636-6.818-2.495c-0.658-0.247-1.093-0.875-1.093-1.576V63.235c0-0.725,0.464-1.368,1.151-1.596  c0.194-0.071,5.217-1.997,5.217-11.139c0-0.931,0.753-1.683,1.684-1.683c0.428,0,0.947-1.142,0.947-2.561  c0-1.418-0.518-2.561-0.947-2.561c-0.931,0-1.684-0.753-1.684-1.683c0-0.513,0.182-1.08,0.581-2.326  c0.842-2.632,2.594-8.109,1.593-12.123c-0.738-2.951-5.854-5.093-12.163-5.093c-6.311,0-11.427,2.142-12.166,5.093  c-0.215,0.875-1.081,1.424-1.962,1.243c-2.103-0.417-3.132,0.15-3.467,0.59c-1.586,2.093,0.112,8.144,0.751,10.422  c0.345,1.228,0.485,1.744,0.485,2.195c0,0.931-0.752,1.683-1.683,1.683c-0.429,0-0.947,1.142-0.947,2.561  c0,1.419,0.518,2.561,0.947,2.561c0.931,0,1.683,0.753,1.683,1.683c0,9.142,5.024,11.068,5.238,11.145  c0.666,0.242,1.131,0.881,1.131,1.59v10.611c0,0.7-0.434,1.326-1.089,1.575c-2.081,0.786-4.244,1.57-6.413,2.357  c-6.51,2.359-13.211,4.789-17.626,7.306c8.732,8.078,19.969,12.549,31.933,12.549C62.488,97.633,73.742,93.144,82.481,85.036z   M50.5,3.367C24.51,3.367,3.367,24.51,3.367,50.5c0,12.035,4.492,23.402,12.682,32.161c4.692-2.863,11.954-5.496,18.996-8.048  c1.779-0.644,3.554-1.287,5.282-1.931v-8.397c-2.008-1.162-5.953-4.453-6.337-12.487c-1.625-0.818-2.662-2.873-2.662-5.542  c0-2.479,0.894-4.425,2.323-5.347c-0.016-0.059-0.035-0.12-0.051-0.181c-0.975-3.475-2.789-9.941-0.194-13.366  c0.788-1.042,2.381-2.306,5.382-2.06c2.273-4.544,9.223-6.199,14.895-6.199c6.235,0,14.019,2.002,15.427,7.644  c1.236,4.943-0.643,10.812-1.65,13.965c-0.025,0.077-0.049,0.151-0.072,0.223c1.403,0.932,2.282,2.867,2.282,5.321  c0,2.668-1.038,4.723-2.662,5.542c-0.384,8.034-4.33,11.325-6.337,12.487v8.394c1.917,0.71,3.824,1.401,5.689,2.076  c7.583,2.742,14.224,5.144,18.637,7.851c8.158-8.752,12.635-20.098,12.635-32.105C97.633,24.51,76.49,3.367,50.5,3.367z"
     id="path3"
     style="fill:#3e4b53;fill-opacity:1" /></svg>