<?xml version="1.0" encoding="UTF-8"?>
<svg width="16px" height="16px" viewBox="0 0 16 16" version="1.1" xmlns="http://www.w3.org/2000/svg" xmlns:xlink="http://www.w3.org/1999/xlink">
    <!-- Generator: Sketch 47.1 (45422) - http://www.bohemiancoding.com/sketch -->
    <title>Fill 842</title>
    <desc>Created with Sketch.</desc>
    <defs></defs>
    <g id="Page-1" stroke="none" stroke-width="1" fill="none" fill-rule="evenodd">
        <g id="New" transform="translate(-932.000000, -274.000000)" fill="#FFFFFF">
            <g id="DashboardSummary-New-V4" transform="translate(226.000000, 137.000000)">
                <g id="Posted-vs-Pending" transform="translate(379.000000, 114.000000)">
                    <g id="Posted-vs-Pending---View-More-BTN" transform="translate(314.000000, 14.000000)">
                        <path d="M21.0273,22.7578 C17.7063,22.7578 15.0053,20.0558 15.0053,16.7358 C15.0053,13.4138 17.7063,10.7128 21.0273,10.7128 C24.3473,10.7128 27.0493,13.4138 27.0493,16.7358 C27.0493,20.0558 24.3473,22.7578 21.0273,22.7578 L21.0273,22.7578 Z M21.0273,9.3218 C16.9333,9.3218 13.6143,12.6418 13.6143,16.7358 C13.6143,20.8288 16.9333,24.1478 21.0273,24.1478 C25.1213,24.1478 28.4393,20.8288 28.4393,16.7358 C28.4393,12.6418 25.1213,9.3218 21.0273,9.3218 L21.0273,9.3218 Z M20.3393,13.6748 L20.3373,13.6768 C20.2133,13.5638 20.0493,13.4918 19.8693,13.4918 C19.4853,13.4918 19.1733,13.8038 19.1733,14.1878 C19.1733,14.3908 19.2613,14.5708 19.4003,14.6978 L19.3993,14.6988 L21.6203,16.7358 L19.3993,18.7718 L19.4003,18.7738 C19.2613,18.8998 19.1733,19.0798 19.1733,19.2828 C19.1733,19.6668 19.4853,19.9788 19.8693,19.9788 C20.0493,19.9788 20.2133,19.9068 20.3373,19.7938 L20.3393,19.7958 L23.1183,17.2478 C23.2613,17.1148 23.3433,16.9308 23.3433,16.7358 C23.3433,16.5398 23.2613,16.3548 23.1183,16.2228 L20.3393,13.6748 Z" id="Fill-842"></path>
                    </g>
                </g>
            </g>
        </g>
    </g>
</svg>