<svg xmlns="http://www.w3.org/2000/svg" width="23" height="23" viewBox="0 0 23 23">
    <g fill="none" fill-rule="evenodd">
        <path fill="#6BDCA2" d="M11.248.366c6.19 0 11.216 4.938 11.216 11.023 0 6.082-5.026 11.021-11.216 11.021C5.057 22.41.032 17.471.032 11.39.032 5.303 5.057.365 11.248.365"/>
        <path fill="#FFF" d="M15.244 7.57c.047.006.06.006.104.016.07.011.136.04.196.074a.64.64 0 0 1 .217.902c-.025.041-.034.047-.064.084l-4.053 4.411-2.662-2.364-4.403 5.052c-.032.034-.038.044-.074.071a.613.613 0 0 1-.386.151.611.611 0 0 1-.208-.02.643.643 0 0 1-.414-.91.909.909 0 0 1 .088-.13l5.277-6.055 2.689 2.386 3.175-3.455c.032-.034.04-.043.076-.07a.609.609 0 0 1 .233-.119.756.756 0 0 1 .156-.024h.053z"/>
        <path fill="#FFF" d="M16.792 11.03l-4.425-4.258 4.797-.466-.372 4.723m-2.575-3.616l1.885 1.812.159-2.012c-.68.067-1.363.132-2.044.2"/>
        <path fill="#FFF" d="M17.164 6.307l-.372 4.723-4.425-4.257z"/>
    </g>
</svg>
