<svg xmlns="http://www.w3.org/2000/svg" width="23" height="23" viewBox="0 0 23 23">
    <g fill="none" fill-rule="evenodd">
        <path fill="#FF004D" d="M11.248 22.514c6.19 0 11.216-4.938 11.216-11.023C22.464 5.409 17.438.47 11.248.47 5.057.47.032 5.409.032 11.49c0 6.086 5.025 11.024 11.216 11.024"/>
        <path fill="#FFF" d="M15.244 15.31c.047-.006.06-.006.104-.016a.735.735 0 0 0 .196-.073.726.726 0 0 0 .162-.133c.14-.157.193-.38.14-.583a.606.606 0 0 0-.084-.187c-.026-.04-.035-.047-.065-.084l-4.053-4.411-2.662 2.364-4.403-5.052c-.032-.034-.038-.043-.074-.074a.635.635 0 0 0-.385-.147.664.664 0 0 0-.21.017.65.65 0 0 0-.48.562.627.627 0 0 0 .155.48l5.277 6.055 2.689-2.386 3.175 3.455c.032.034.04.043.076.07a.654.654 0 0 0 .233.119c.052.015.103.018.156.024h.053z"/>
        <path fill="#FFF" d="M16.792 11.85l-4.425 4.259 4.797.465-.372-4.723m-2.575 3.616l1.885-1.812.159 2.012c-.68-.067-1.363-.131-2.044-.2"/>
    </g>
</svg>
