<?xml version="1.0" encoding="UTF-8"?>
<svg width="216px" height="216px" viewBox="0 0 16 16" version="1.1" xmlns="http://www.w3.org/2000/svg" xmlns:xlink="http://www.w3.org/1999/xlink">
    <!-- Generator: Sketch 52.1 (67048) - http://www.bohemiancoding.com/sketch -->
    <title>icon</title>
    <desc>Created with Sketch.</desc>
    <g>
        <circle id="stroke" fill="#FFFFFF" cx="8" cy="8" r="8"></circle>
        <path d="M4.12601749,9 C4.57006028,10.7252272 6.13616057,12 8,12 C9.86383943,12 11.4299397,10.7252272 11.8739825,9 L4.12601749,9 Z M4.12601749,7 L11.8739825,7 C11.4299397,5.27477279 9.86383943,4 8,4 C6.13616057,4 4.57006028,5.27477279 4.12601749,7 Z M8,14 C4.6862915,14 2,11.3137085 2,8 C2,4.6862915 4.6862915,2 8,2 C11.3137085,2 14,4.6862915 14,8 C14,11.3137085 11.3137085,14 8,14 Z" id="marker" fill="#000000"></path>
    </g>
</svg>