<?xml version="1.0" encoding="UTF-8"?>
<svg width="13px" height="11px" viewBox="0 0 13 11" version="1.1" xmlns="http://www.w3.org/2000/svg" xmlns:xlink="http://www.w3.org/1999/xlink">
    <!-- Generator: Sketch 48.2 (47327) - http://www.bohemiancoding.com/sketch -->
    <title>users</title>
    <desc>Created with Sketch.</desc>
    <defs>
        <path d="M9.75,11.375 C9.75,11.6741542 9.50748757,11.9166667 9.20833333,11.9166667 C8.90917909,11.9166667 8.66666667,11.6741542 8.66666667,11.375 L8.66666667,10.2916667 C8.66666667,9.39420395 7.93912939,8.66666667 7.04166667,8.66666667 L2.70833333,8.66666667 C1.81087061,8.66666667 1.08333333,9.39420395 1.08333333,10.2916667 L1.08333333,11.375 C1.08333333,11.6741542 0.840820906,11.9166667 0.541666667,11.9166667 C0.242512427,11.9166667 0,11.6741542 0,11.375 L0,10.2916667 C1.50342701e-16,8.79589547 1.21256214,7.58333333 2.70833333,7.58333333 L7.04166667,7.58333333 C8.53743786,7.58333333 9.75,8.79589547 9.75,10.2916667 L9.75,11.375 Z M4.875,6.5 C3.3792288,6.5 2.16666667,5.28743786 2.16666667,3.79166667 C2.16666667,2.29589547 3.3792288,1.08333333 4.875,1.08333333 C6.3707712,1.08333333 7.58333333,2.29589547 7.58333333,3.79166667 C7.58333333,5.28743786 6.3707712,6.5 4.875,6.5 Z M13,11.375 C13,11.6741542 12.7574876,11.9166667 12.4583333,11.9166667 C12.1591791,11.9166667 11.9166667,11.6741542 11.9166667,11.375 L11.9166668,10.2920707 C11.9161144,9.55152478 11.4149476,8.90501953 10.6979168,8.7198832 C10.4082619,8.64509472 10.2340783,8.34965502 10.3088668,8.06000015 C10.3836553,7.77034528 10.679095,7.59616166 10.9687498,7.67095013 C12.1638011,7.97951067 12.9990792,9.05701944 13,10.2916667 L13,11.375 Z M8.53231211,2.22015625 C8.24250644,2.14595428 8.06772511,1.85086778 8.14192708,1.56106211 C8.21612906,1.27125644 8.51121556,1.09647511 8.80102123,1.17067708 C9.99940106,1.47751079 10.8375818,2.55733776 10.8375818,3.794375 C10.8375818,5.03141224 9.99940106,6.11123921 8.80102123,6.41807292 C8.51121556,6.49227489 8.21612906,6.31749356 8.14192708,6.02768789 C8.06772511,5.73788222 8.24250644,5.44279572 8.53231211,5.36859375 C9.25134001,5.18449352 9.75424843,4.53659735 9.75424843,3.794375 C9.75424843,3.05215265 9.25134001,2.40425648 8.53231211,2.22015625 Z M4.875,5.41666667 C5.77246272,5.41666667 6.5,4.68912939 6.5,3.79166667 C6.5,2.89420395 5.77246272,2.16666667 4.875,2.16666667 C3.97753728,2.16666667 3.25,2.89420395 3.25,3.79166667 C3.25,4.68912939 3.97753728,5.41666667 4.875,5.41666667 Z" id="path-1"></path>
    </defs>
    <g id="F&amp;I---F&amp;I-Analysis" stroke="none" stroke-width="1" fill="none" fill-rule="evenodd" transform="translate(-49.000000, -480.000000)">
        <g id="Background">
            <g id="Left-Menu" transform="translate(0.000000, 68.000000)">
                <g id="users" transform="translate(49.000000, 411.000000)">
                    <mask id="mask-2" fill="white">
                        <use xlink:href="#path-1"></use>
                    </mask>
                    <use id="Combined-Shape" fill="#000000" fill-rule="nonzero" xlink:href="#path-1"></use>
                    <g id="COLOR/-white" mask="url(#mask-2)" fill="#FFFFFF" fill-rule="evenodd">
                        <rect id="Rectangle" x="0" y="0" width="13" height="13"></rect>
                    </g>
                </g>
            </g>
        </g>
    </g>
</svg>