<?xml version="1.0" encoding="UTF-8"?>
<svg width="14px" height="14px" viewBox="0 0 14 14" version="1.1" xmlns="http://www.w3.org/2000/svg" xmlns:xlink="http://www.w3.org/1999/xlink">
    <!-- Generator: Sketch 48.2 (47327) - http://www.bohemiancoding.com/sketch -->
    <title>save</title>
    <desc>Created with Sketch.</desc>
    <defs>
        <path d="M5.33333333,2.66666667 L5.33333333,4.66666667 L10,4.66666667 C10.3681898,4.66666667 10.6666667,4.9651435 10.6666667,5.33333333 C10.6666667,5.70152317 10.3681898,6 10,6 L4.66666667,6 C4.29847683,6 4,5.70152317 4,5.33333333 L4,2.66666667 L3.33333333,2.66666667 C2.9651435,2.66666667 2.66666667,2.9651435 2.66666667,3.33333333 L2.66666667,12.6666667 C2.66666667,13.0348565 2.9651435,13.3333333 3.33333333,13.3333333 L4,13.3333333 L4,8.66666667 C4,8.29847683 4.29847683,8 4.66666667,8 L11.3333333,8 C11.7015232,8 12,8.29847683 12,8.66666667 L12,13.3333333 L12.6666667,13.3333333 C13.0348565,13.3333333 13.3333333,13.0348565 13.3333333,12.6666667 L13.3333333,5.60947571 L10.3905243,2.66666667 L5.33333333,2.66666667 Z M10.6666667,13.3333333 L10.6666667,9.33333333 L5.33333333,9.33333333 L5.33333333,13.3333333 L10.6666667,13.3333333 Z M12.6666667,14.6666667 L3.33333333,14.6666667 C2.22876383,14.6666667 1.33333333,13.7712362 1.33333333,12.6666667 L1.33333333,3.33333333 C1.33333333,2.22876383 2.22876383,1.33333333 3.33333333,1.33333333 L10.6666667,1.33333333 C10.8434777,1.33333333 11.0130469,1.40357123 11.1380712,1.52859548 L14.4714045,4.86192881 C14.5964288,4.98695306 14.6666667,5.15652234 14.6666667,5.33333333 L14.6666667,12.6666667 C14.6666667,13.7712362 13.7712362,14.6666667 12.6666667,14.6666667 Z" id="path-1"></path>
    </defs>
    <g id="New---Models-Budget-Active" stroke="none" stroke-width="1" fill="none" fill-rule="evenodd" transform="translate(-794.000000, -501.000000)">
        <g id="Page-1" transform="translate(263.000000, 96.000000)">
            <g id="save" transform="translate(530.000000, 404.000000)">
                <mask id="mask-2" fill="white">
                    <use xlink:href="#path-1"></use>
                </mask>
                <use id="Combined-Shape" fill="#000000" fill-rule="nonzero" xlink:href="#path-1"></use>
                <g id="COLOR/-black" mask="url(#mask-2)" fill="#000000" fill-rule="evenodd">
                    <rect id="Rectangle" x="0" y="0" width="16" height="16"></rect>
                </g>
            </g>
        </g>
    </g>
</svg>