<?xml version="1.0" encoding="UTF-8"?>
<svg width="14px" height="12px" viewBox="0 0 14 12" version="1.1" xmlns="http://www.w3.org/2000/svg" xmlns:xlink="http://www.w3.org/1999/xlink">
    <!-- Generator: Sketch 48.2 (47327) - http://www.bohemiancoding.com/sketch -->
    <title>chevrons-right</title>
    <desc>Created with Sketch.</desc>
    <defs>
        <path d="M16.5857864,12 L12.2928932,7.70710678 C11.9023689,7.31658249 11.9023689,6.68341751 12.2928932,6.29289322 C12.6834175,5.90236893 13.3165825,5.90236893 13.7071068,6.29289322 L18.7071068,11.2928932 C19.0976311,11.6834175 19.0976311,12.3165825 18.7071068,12.7071068 L13.7071068,17.7071068 C13.3165825,18.0976311 12.6834175,18.0976311 12.2928932,17.7071068 C11.9023689,17.3165825 11.9023689,16.6834175 12.2928932,16.2928932 L16.5857864,12 Z M5.29289322,16.2928932 L9.58578644,12 L5.29289322,7.70710678 C4.90236893,7.31658249 4.90236893,6.68341751 5.29289322,6.29289322 C5.68341751,5.90236893 6.31658249,5.90236893 6.70710678,6.29289322 L11.7071068,11.2928932 C12.0976311,11.6834175 12.0976311,12.3165825 11.7071068,12.7071068 L6.70710678,17.7071068 C6.31658249,18.0976311 5.68341751,18.0976311 5.29289322,17.7071068 C4.90236893,17.3165825 4.90236893,16.6834175 5.29289322,16.2928932 Z" id="path-1"></path>
    </defs>
    <g id="F&amp;I---F&amp;I-Manager-Contest---More" stroke="none" stroke-width="1" fill="none" fill-rule="evenodd" transform="translate(-1859.000000, -365.000000)">
        <g id="Page-1" transform="translate(262.000000, 285.000000)">
            <g id="Group-84" transform="translate(0.000000, 62.000000)">
                <g id="Group-73">
                    <g id="Group" transform="translate(1586.000000, 0.000000)">
                        <g id="chevrons-right" transform="translate(6.000000, 12.000000)">
                            <mask id="mask-2" fill="white">
                                <use xlink:href="#path-1"></use>
                            </mask>
                            <use id="Combined-Shape" fill="#000000" fill-rule="nonzero" xlink:href="#path-1"></use>
                            <g id="COLOR/-white" mask="url(#mask-2)" fill="#FFFFFF" fill-rule="evenodd">
                                <rect id="Rectangle" x="0" y="0" width="24" height="24"></rect>
                            </g>
                        </g>
                    </g>
                </g>
            </g>
        </g>
    </g>
</svg>