<?xml version="1.0" encoding="UTF-8"?>
<svg width="15px" height="15px" viewBox="0 0 15 15" version="1.1" xmlns="http://www.w3.org/2000/svg" xmlns:xlink="http://www.w3.org/1999/xlink">
    <!-- Generator: Sketch 48.2 (47327) - http://www.bohemiancoding.com/sketch -->
    <title>layers</title>
    <desc>Created with Sketch.</desc>
    <defs>
        <path d="M7.22062841,0.690983006 C7.39658309,0.603005665 7.60369073,0.603005665 7.77964541,0.690983006 L14.0296454,3.81598301 C14.4903007,4.04631067 14.4903007,4.70368933 14.0296454,4.93401699 L7.77964541,8.05901699 C7.60369073,8.14699434 7.39658309,8.14699434 7.22062841,8.05901699 L0.970628413,4.93401699 C0.509973076,4.70368933 0.509973076,4.04631067 0.970628413,3.81598301 L7.22062841,0.690983006 Z M7.50013691,1.94877124 L2.6476794,4.375 L7.50013691,6.80122876 L12.3525944,4.375 L7.50013691,1.94877124 Z M1.52964541,10.065983 L7.50013691,13.0512288 L13.4706284,10.065983 C13.779365,9.91161473 14.1547856,10.0367549 14.3091539,10.3454915 C14.4635222,10.6542281 14.338382,11.0296487 14.0296454,11.184017 L7.77964541,14.309017 C7.60369073,14.3969943 7.39658309,14.3969943 7.22062841,14.309017 L0.970628413,11.184017 C0.661891852,11.0296487 0.536751636,10.6542281 0.691119916,10.3454915 C0.845488196,10.0367549 1.22090885,9.91161473 1.52964541,10.065983 Z M1.52964541,6.94098301 L7.50013691,9.92622876 L13.4706284,6.94098301 C13.779365,6.78661473 14.1547856,6.91175494 14.3091539,7.2204915 C14.4635222,7.52922806 14.338382,7.90464871 14.0296454,8.05901699 L7.77964541,11.184017 C7.60369073,11.2719943 7.39658309,11.2719943 7.22062841,11.184017 L0.970628413,8.05901699 C0.661891852,7.90464871 0.536751636,7.52922806 0.691119916,7.2204915 C0.845488196,6.91175494 1.22090885,6.78661473 1.52964541,6.94098301 Z" id="path-1"></path>
    </defs>
    <g id="F&amp;I---F&amp;I-Analysis" stroke="none" stroke-width="1" fill="none" fill-rule="evenodd" transform="translate(-49.000000, -176.000000)">
        <g id="Background">
            <g id="Left-Menu" transform="translate(0.000000, 68.000000)">
                <g id="layers" transform="translate(49.000000, 108.000000)">
                    <mask id="mask-2" fill="white">
                        <use xlink:href="#path-1"></use>
                    </mask>
                    <use id="Combined-Shape" fill="#000000" fill-rule="nonzero" xlink:href="#path-1"></use>
                    <g id="COLOR/-white" mask="url(#mask-2)" fill="#FFFFFF" fill-rule="evenodd">
                        <rect id="Rectangle" x="0" y="0" width="15" height="15"></rect>
                    </g>
                </g>
            </g>
        </g>
    </g>
</svg>