<?xml version="1.0" encoding="UTF-8"?>
<svg width="14px" height="14px" viewBox="0 0 14 14" version="1.1" xmlns="http://www.w3.org/2000/svg" xmlns:xlink="http://www.w3.org/1999/xlink">
    <!-- Generator: Sketch 48.2 (47327) - http://www.bohemiancoding.com/sketch -->
    <title>Group 3</title>
    <desc>Created with Sketch.</desc>
    <defs>
        <path d="M1.33333333,1 C1.14923842,1 1,1.14923842 1,1.33333333 L1,2.66666667 C1,2.85076158 1.14923842,3 1.33333333,3 L6.66666667,3 C6.85076158,3 7,2.85076158 7,2.66666667 L7,1.33333333 C7,1.14923842 6.85076158,1 6.66666667,1 L1.33333333,1 Z M1.33333333,0.333333333 L6.66666667,0.333333333 C7.21895142,0.333333333 7.66666667,0.781048584 7.66666667,1.33333333 L7.66666667,2.66666667 C7.66666667,3.21895142 7.21895142,3.66666667 6.66666667,3.66666667 L1.33333333,3.66666667 C0.781048584,3.66666667 0.333333333,3.21895142 0.333333333,2.66666667 L0.333333333,1.33333333 C0.333333333,0.781048584 0.781048584,0.333333333 1.33333333,0.333333333 Z M1.33333333,4.33333333 L6.66666667,4.33333333 C7.21895142,4.33333333 7.66666667,4.78104858 7.66666667,5.33333333 L7.66666667,6.66666667 C7.66666667,7.21895142 7.21895142,7.66666667 6.66666667,7.66666667 L1.33333333,7.66666667 C0.781048584,7.66666667 0.333333333,7.21895142 0.333333333,6.66666667 L0.333333333,5.33333333 C0.333333333,4.78104858 0.781048584,4.33333333 1.33333333,4.33333333 Z M1.33333333,5 C1.14923842,5 1,5.14923842 1,5.33333333 L1,6.66666667 C1,6.85076158 1.14923842,7 1.33333333,7 L6.66666667,7 C6.85076158,7 7,6.85076158 7,6.66666667 L7,5.33333333 C7,5.14923842 6.85076158,5 6.66666667,5 L1.33333333,5 Z" id="path-1"></path>
        <path d="M3.33333333,2.66666667 C2.9651435,2.66666667 2.66666667,2.9651435 2.66666667,3.33333333 L2.66666667,12.6666667 C2.66666667,13.0348565 2.9651435,13.3333333 3.33333333,13.3333333 L12.6666667,13.3333333 C13.0348565,13.3333333 13.3333333,13.0348565 13.3333333,12.6666667 L13.3333333,3.33333333 C13.3333333,2.9651435 13.0348565,2.66666667 12.6666667,2.66666667 L3.33333333,2.66666667 Z M3.33333333,1.33333333 L12.6666667,1.33333333 C13.7712362,1.33333333 14.6666667,2.22876383 14.6666667,3.33333333 L14.6666667,12.6666667 C14.6666667,13.7712362 13.7712362,14.6666667 12.6666667,14.6666667 L3.33333333,14.6666667 C2.22876383,14.6666667 1.33333333,13.7712362 1.33333333,12.6666667 L1.33333333,3.33333333 C1.33333333,2.22876383 2.22876383,1.33333333 3.33333333,1.33333333 Z" id="path-3"></path>
    </defs>
    <g id="New---Sales-Contest---More" stroke="none" stroke-width="1" fill="none" fill-rule="evenodd" transform="translate(-980.000000, -366.000000)">
        <g id="Page-1" transform="translate(262.000000, 285.000000)">
            <g id="Group-3" transform="translate(717.000000, 80.000000)">
                <g id="server" transform="translate(4.000000, 4.000000)">
                    <mask id="mask-2" fill="white">
                        <use xlink:href="#path-1"></use>
                    </mask>
                    <use id="Combined-Shape" fill="#000000" fill-rule="nonzero" xlink:href="#path-1"></use>
                    <g id="COLOR/-black" mask="url(#mask-2)" fill="#FFFFFF">
                        <rect id="Rectangle" x="0" y="0" width="8" height="8"></rect>
                    </g>
                </g>
                <g id="square">
                    <mask id="mask-4" fill="white">
                        <use xlink:href="#path-3"></use>
                    </mask>
                    <use id="Rectangle-path" fill="#000000" fill-rule="nonzero" xlink:href="#path-3"></use>
                    <g id="🎨Color" mask="url(#mask-4)" fill="#FFFFFF">
                        <rect id="Rectangle" x="0" y="0" width="16" height="16"></rect>
                    </g>
                </g>
            </g>
        </g>
    </g>
</svg>