<svg id="Layer_2" data-name="Layer 2" xmlns="http://www.w3.org/2000/svg" viewBox="0 0 29.92 29.46"><defs><style>.cls-1{fill:#3498db;fill-rule:evenodd;}.cls-2{fill:#dadada;}</style></defs><title>Artboard 24</title><polygon class="cls-1" points="4.02 25.39 29.98 25.39 29.98 29.46 -0.06 29.46 -0.06 1.64 4.02 1.64 4.02 25.39"/><path class="cls-2" d="M27.65,7.29,18.41.15a.72.72,0,0,0-.88,0L8.61,7.32a.71.71,0,0,0-.26.57V20.82a.7.7,0,0,0,.71.71h5.32a.7.7,0,0,0,.71-.71V12.89H21.2v7.93a.7.7,0,0,0,.71.71h5.32a.7.7,0,0,0,.71-.71v-13A.8.8,0,0,0,27.65,7.29Z"/></svg>