<?xml version="1.0" encoding="UTF-8"?>
<svg width="14px" height="16px" viewBox="0 0 14 16" version="1.1" xmlns="http://www.w3.org/2000/svg" xmlns:xlink="http://www.w3.org/1999/xlink">
    <!-- Generator: Sketch 48.2 (47327) - http://www.bohemiancoding.com/sketch -->
    <title>repeat</title>
    <desc>Created with Sketch.</desc>
    <defs>
        <path d="M3.60947571,12 L11.3333333,12 C12.4379028,12 13.3333333,11.1045695 13.3333333,10 L13.3333333,8.66666667 C13.3333333,8.29847683 13.6318102,8 14,8 C14.3681898,8 14.6666667,8.29847683 14.6666667,8.66666667 L14.6666667,10 C14.6666667,11.8409492 13.1742825,13.3333333 11.3333333,13.3333333 L3.60947571,13.3333333 L5.13807119,14.8619288 C5.39842072,15.1222783 5.39842072,15.5443883 5.13807119,15.8047379 C4.87772166,16.0650874 4.45561167,16.0650874 4.19526215,15.8047379 L1.52859548,13.1380712 C1.26824595,12.8777217 1.26824595,12.4556117 1.52859548,12.1952621 L4.19526215,9.52859548 C4.45561167,9.26824595 4.87772166,9.26824595 5.13807119,9.52859548 C5.39842072,9.78894501 5.39842072,10.211055 5.13807119,10.4714045 L3.60947571,12 Z M12.3905243,4 L4.66666667,4 C3.56209717,4 2.66666667,4.8954305 2.66666667,6 L2.66666667,7.33333333 C2.66666667,7.70152317 2.36818983,8 2,8 C1.63181017,8 1.33333333,7.70152317 1.33333333,7.33333333 L1.33333333,6 C1.33333333,4.15905083 2.8257175,2.66666667 4.66666667,2.66666667 L12.3905243,2.66666667 L10.8619288,1.13807119 C10.6015793,0.87772166 10.6015793,0.455611674 10.8619288,0.195262146 C11.1222783,-0.065087382 11.5443883,-0.065087382 11.8047379,0.195262146 L14.4714045,2.86192881 C14.731754,3.12227834 14.731754,3.54438833 14.4714045,3.80473785 L11.8047379,6.47140452 C11.5443883,6.73175405 11.1222783,6.73175405 10.8619288,6.47140452 C10.6015793,6.21105499 10.6015793,5.78894501 10.8619288,5.52859548 L12.3905243,4 Z" id="path-1"></path>
    </defs>
    <g id="F&amp;I---F&amp;I-Analysis" stroke="none" stroke-width="1" fill="none" fill-rule="evenodd" transform="translate(-50.000000, -280.000000)">
        <g id="Background">
            <g id="Left-Menu" transform="translate(0.000000, 68.000000)">
                <g id="repeat" transform="translate(49.000000, 212.000000)">
                    <mask id="mask-2" fill="white">
                        <use xlink:href="#path-1"></use>
                    </mask>
                    <use id="Combined-Shape" fill="#000000" fill-rule="nonzero" xlink:href="#path-1"></use>
                    <g id="COLOR/-white" mask="url(#mask-2)" fill="#FFFFFF" fill-rule="evenodd">
                        <rect id="Rectangle" x="0" y="0" width="16" height="16"></rect>
                    </g>
                </g>
            </g>
        </g>
    </g>
</svg>