<?xml version="1.0" encoding="UTF-8"?>
<svg width="14px" height="14px" viewBox="0 0 14 14" version="1.1" xmlns="http://www.w3.org/2000/svg" xmlns:xlink="http://www.w3.org/1999/xlink">
    <!-- Generator: Sketch 48.2 (47327) - http://www.bohemiancoding.com/sketch -->
    <title>grid</title>
    <desc>Created with Sketch.</desc>
    <defs>
        <path d="M2.66666667,2.66666667 L2.66666667,6 L6,6 L6,2.66666667 L2.66666667,2.66666667 Z M2,1.33333333 L6.66666667,1.33333333 C7.0348565,1.33333333 7.33333333,1.63181017 7.33333333,2 L7.33333333,6.66666667 C7.33333333,7.0348565 7.0348565,7.33333333 6.66666667,7.33333333 L2,7.33333333 C1.63181017,7.33333333 1.33333333,7.0348565 1.33333333,6.66666667 L1.33333333,2 C1.33333333,1.63181017 1.63181017,1.33333333 2,1.33333333 Z M9.33333333,1.33333333 L14,1.33333333 C14.3681898,1.33333333 14.6666667,1.63181017 14.6666667,2 L14.6666667,6.66666667 C14.6666667,7.0348565 14.3681898,7.33333333 14,7.33333333 L9.33333333,7.33333333 C8.9651435,7.33333333 8.66666667,7.0348565 8.66666667,6.66666667 L8.66666667,2 C8.66666667,1.63181017 8.9651435,1.33333333 9.33333333,1.33333333 Z M10,6 L13.3333333,6 L13.3333333,2.66666667 L10,2.66666667 L10,6 Z M9.33333333,8.66666667 L14,8.66666667 C14.3681898,8.66666667 14.6666667,8.9651435 14.6666667,9.33333333 L14.6666667,14 C14.6666667,14.3681898 14.3681898,14.6666667 14,14.6666667 L9.33333333,14.6666667 C8.9651435,14.6666667 8.66666667,14.3681898 8.66666667,14 L8.66666667,9.33333333 C8.66666667,8.9651435 8.9651435,8.66666667 9.33333333,8.66666667 Z M10,13.3333333 L13.3333333,13.3333333 L13.3333333,10 L10,10 L10,13.3333333 Z M2,8.66666667 L6.66666667,8.66666667 C7.0348565,8.66666667 7.33333333,8.9651435 7.33333333,9.33333333 L7.33333333,14 C7.33333333,14.3681898 7.0348565,14.6666667 6.66666667,14.6666667 L2,14.6666667 C1.63181017,14.6666667 1.33333333,14.3681898 1.33333333,14 L1.33333333,9.33333333 C1.33333333,8.9651435 1.63181017,8.66666667 2,8.66666667 Z M2.66666667,13.3333333 L6,13.3333333 L6,10 L2.66666667,10 L2.66666667,13.3333333 Z" id="path-1"></path>
    </defs>
    <g id="F&amp;I---F&amp;I-Analysis" stroke="none" stroke-width="1" fill="none" fill-rule="evenodd" transform="translate(-50.000000, -82.000000)">
        <g id="Background">
            <g id="Left-Menu" transform="translate(0.000000, 68.000000)">
                <g id="grid" transform="translate(49.000000, 13.000000)">
                    <mask id="mask-2" fill="white">
                        <use xlink:href="#path-1"></use>
                    </mask>
                    <use id="Combined-Shape" fill="#000000" fill-rule="nonzero" xlink:href="#path-1"></use>
                    <g id="COLOR/-white" mask="url(#mask-2)" fill="#FFFFFF" fill-rule="evenodd">
                        <rect id="Rectangle" x="0" y="0" width="16" height="16"></rect>
                    </g>
                </g>
            </g>
        </g>
    </g>
</svg>