<?xml version="1.0" encoding="UTF-8"?>
<svg width="16px" height="17px" viewBox="0 0 16 17" version="1.1" xmlns="http://www.w3.org/2000/svg" xmlns:xlink="http://www.w3.org/1999/xlink">
    <!-- Generator: Sketch 48.2 (47327) - http://www.bohemiancoding.com/sketch -->
    <title>Icon - Custom Reports</title>
    <desc>Created with Sketch.</desc>
    <defs>
        <path d="M11.0833333,5.83333333 L7.58333333,5.83333333 C7.26116723,5.83333333 7,5.5721661 7,5.25 L7,1.75 L3.5,1.75 C3.1778339,1.75 2.91666667,2.01116723 2.91666667,2.33333333 L2.91666667,11.6666667 C2.91666667,11.9888328 3.1778339,12.25 3.5,12.25 L10.5,12.25 C10.8221661,12.25 11.0833333,11.9888328 11.0833333,11.6666667 L11.0833333,5.83333333 L11.6666667,5.83333333 C11.9888328,5.83333333 12.25,5.5721661 12.25,5.25 C12.25,5.16945847 12.233677,5.09272938 12.2041588,5.02294034 C12.2346355,5.09687451 12.25,5.17264519 12.25,5.25 L12.25,11.6666667 C12.25,12.633165 11.4664983,13.4166667 10.5,13.4166667 L3.5,13.4166667 C2.53350169,13.4166667 1.75,12.633165 1.75,11.6666667 L1.75,2.33333333 C1.75,1.36683502 2.53350169,0.583333333 3.5,0.583333333 L7.58333333,0.583333333 C7.73804295,0.583333333 7.88641607,0.64479149 7.99581229,0.754187711 L12.0791456,4.83752104 C12.1338437,4.89221915 12.1765573,4.95666149 12.2055964,5.026768 Z M8.16666667,2.57495791 L8.16666667,4.66666667 L10.2583754,4.66666667 L8.16666667,2.57495791 Z" id="path-1"></path>
        <path d="M6.76626618,2.90505823 C6.80588775,2.96346868 6.87211243,2.99971373 6.94333333,3 L7,3 C7.55228475,3 8,3.44771525 8,4 C8,4.55228475 7.55228475,5 7,5 L6.97132944,4.99999735 C6.88497229,5.00034177 6.80706568,5.05193555 6.77304661,5.13131048 C6.7358582,5.21562048 6.75301827,5.3102609 6.81236893,5.37096441 L6.83223778,5.39083333 C7.02001482,5.57840159 7.12552444,5.83292409 7.12552444,6.09833333 C7.12552444,6.36374258 7.02001482,6.61826508 6.8325,6.80557111 C6.64493174,6.99334816 6.39040925,7.09885777 6.125,7.09885777 C5.85959075,7.09885777 5.60506826,6.99334816 5.41763107,6.80570226 L5.40024501,6.78828753 C5.33692756,6.7263516 5.24228714,6.70919153 5.15797715,6.74637994 C5.07860222,6.78039901 5.02700844,6.85830562 5.02666667,6.94333333 L5.02666667,7 C5.02666667,7.55228475 4.57895142,8 4.02666667,8 C3.47438192,8 3.02666667,7.55228475 3.02666667,7 C3.02467737,6.88885265 2.96843795,6.8102216 2.86541155,6.77162086 C2.78437952,6.7358582 2.6897391,6.75301827 2.62903559,6.81236893 L2.60916667,6.83223778 C2.42159841,7.02001482 2.16707591,7.12552444 1.90166667,7.12552444 C1.63625742,7.12552444 1.38173492,7.02001482 1.19442889,6.8325 C1.00665184,6.64493174 0.901142229,6.39040925 0.901142229,6.125 C0.901142229,5.85959075 1.00665184,5.60506826 1.19429774,5.41763107 L1.21171247,5.40024501 C1.2736484,5.33692756 1.29080847,5.24228714 1.25362006,5.15797715 C1.21960099,5.07860222 1.14169438,5.02700844 1.05666667,5.02666667 L1,5.02666667 C0.44771525,5.02666667 1.11022302e-16,4.57895142 0,4.02666667 C-7.40148683e-17,3.47438192 0.44771525,3.02666667 1,3.02666667 C1.11114735,3.02467737 1.1897784,2.96843795 1.22837914,2.86541155 C1.2641418,2.78437952 1.24698173,2.6897391 1.18763107,2.62903559 L1.16776222,2.60916667 C0.979985176,2.42159841 0.874475562,2.16707591 0.874475562,1.90166667 C0.874475562,1.63625742 0.979985176,1.38173492 1.1675,1.19442889 C1.35506826,1.00665184 1.60959075,0.901142229 1.875,0.901142229 C2.14040925,0.901142229 2.39493174,1.00665184 2.58236893,1.19429774 L2.59975499,1.21171247 C2.66307244,1.2736484 2.75771286,1.29080847 2.83874489,1.25504581 C2.86010216,1.24561999 2.88233129,1.2384897 2.90505823,1.23373382 C2.96346868,1.19411225 2.99971373,1.12788757 3,1.05666667 L3,1 C3,0.44771525 3.44771525,1.11022302e-16 4,0 C4.55228475,0 5,0.44771525 5,1 L4.99999735,1.02867056 C5.00034177,1.11502771 5.05193555,1.19293432 5.13458845,1.22837914 C5.21562048,1.2641418 5.3102609,1.24698173 5.37096441,1.18763107 L5.39083333,1.16776222 C5.57840159,0.979985176 5.83292409,0.874475562 6.09833333,0.874475562 C6.36374258,0.874475562 6.61826508,0.979985176 6.80557111,1.1675 C6.99334816,1.35506826 7.09885777,1.60959075 7.09885777,1.875 C7.09885777,2.14040925 6.99334816,2.39493174 6.80570226,2.58236893 L6.78828753,2.59975499 C6.7263516,2.66307244 6.70919153,2.75771286 6.74495419,2.83874489 C6.75438001,2.86010216 6.7615103,2.88233129 6.76626618,2.90505823 Z M3.04326198,1.89051403 C2.72823927,2.00094601 2.37487661,1.92431906 2.13096441,1.68570226 L2.11083333,1.66557111 C2.04831058,1.60297877 1.96346975,1.5678089 1.875,1.5678089 C1.78653025,1.5678089 1.70168942,1.60297877 1.63890445,1.66583333 C1.5763121,1.72835609 1.54114223,1.81319692 1.54114223,1.90166667 C1.54114223,1.99013642 1.5763121,2.07497725 1.63903559,2.13763107 L1.66162086,2.16024501 C1.91412886,2.41838539 1.98408917,2.8042271 1.8461787,3.11506036 C1.72097815,3.45547656 1.40040543,3.68476036 1.03,3.69333333 L1,3.69333333 C0.815905083,3.69333333 0.666666667,3.84257175 0.666666667,4.02666667 C0.666666667,4.21076158 0.815905083,4.36 1,4.36 L1.0579961,4.36000265 C1.41006757,4.36140683 1.72768682,4.57175071 1.86495419,4.89207822 C2.01075583,5.22243957 1.94079552,5.60828128 1.68570226,5.86903559 L1.66557111,5.88916667 C1.60297877,5.95168942 1.5678089,6.03653025 1.5678089,6.125 C1.5678089,6.21346975 1.60297877,6.29831058 1.66583333,6.36109555 C1.72835609,6.4236879 1.81319692,6.45885777 1.90166667,6.45885777 C1.99013642,6.45885777 2.07497725,6.4236879 2.13763107,6.36096441 L2.16024501,6.33837914 C2.41838539,6.08587114 2.8042271,6.01591083 3.11506036,6.1538213 C3.45547656,6.27902185 3.68476036,6.59959457 3.69333333,6.97 L3.69333333,7 C3.69333333,7.18409492 3.84257175,7.33333333 4.02666667,7.33333333 C4.21076158,7.33333333 4.36,7.18409492 4.36,7 L4.36000265,6.9420039 C4.36140683,6.58993243 4.57175071,6.27231318 4.89207822,6.13504581 C5.22243957,5.98924417 5.60828128,6.05920448 5.86903559,6.31429774 L5.88916667,6.33442889 C5.95168942,6.39702123 6.03653025,6.4321911 6.125,6.4321911 C6.21346975,6.4321911 6.29831058,6.39702123 6.36109555,6.33416667 C6.4236879,6.27164391 6.45885777,6.18680308 6.45885777,6.09833333 C6.45885777,6.00986358 6.4236879,5.92502275 6.36096441,5.86236893 L6.33837914,5.83975499 C6.08587114,5.58161461 6.01591083,5.1957729 6.16171247,4.86541155 C6.29897985,4.54508404 6.6165991,4.33474017 6.97,4.33333333 L7,4.33333333 C7.18409492,4.33333333 7.33333333,4.18409492 7.33333333,4 C7.33333333,3.81590508 7.18409492,3.66666667 7,3.66666667 L6.9420039,3.66666402 C6.58993243,3.66525983 6.27231318,3.45491596 6.13362006,3.13131048 C6.12154817,3.10314378 6.11344549,3.07351176 6.10948597,3.04326198 C5.99905399,2.72823927 6.07568094,2.37487661 6.31429774,2.13096441 L6.33442889,2.11083333 C6.39702123,2.04831058 6.4321911,1.96346975 6.4321911,1.875 C6.4321911,1.78653025 6.39702123,1.70168942 6.33416667,1.63890445 C6.27164391,1.5763121 6.18680308,1.54114223 6.09833333,1.54114223 C6.00986358,1.54114223 5.92502275,1.5763121 5.86236893,1.63903559 L5.83975499,1.66162086 C5.58161461,1.91412886 5.1957729,1.98408917 4.86868952,1.83971328 C4.54508404,1.70102015 4.33474017,1.3834009 4.33333333,1.03 L4.33333333,1 C4.33333333,0.815905083 4.18409492,0.666666667 4,0.666666667 C3.81590508,0.666666667 3.66666667,0.815905083 3.66666667,1 L3.66666402,1.0579961 C3.66525983,1.41006757 3.45491596,1.72768682 3.13131048,1.86637994 C3.10314378,1.87845183 3.07351176,1.88655451 3.04326198,1.89051403 Z M4,5.33333333 C3.26362033,5.33333333 2.66666667,4.73637967 2.66666667,4 C2.66666667,3.26362033 3.26362033,2.66666667 4,2.66666667 C4.73637967,2.66666667 5.33333333,3.26362033 5.33333333,4 C5.33333333,4.73637967 4.73637967,5.33333333 4,5.33333333 Z M4,4.66666667 C4.36818983,4.66666667 4.66666667,4.36818983 4.66666667,4 C4.66666667,3.63181017 4.36818983,3.33333333 4,3.33333333 C3.63181017,3.33333333 3.33333333,3.63181017 3.33333333,4 C3.33333333,4.36818983 3.63181017,4.66666667 4,4.66666667 Z" id="path-3"></path>
    </defs>
    <g id="F&amp;I---F&amp;I-Analysis" stroke="none" stroke-width="1" fill="none" fill-rule="evenodd" transform="translate(-49.000000, -405.000000)">
        <g id="Background">
            <g id="Left-Menu" transform="translate(0.000000, 68.000000)">
                <g id="Icon---Custom-Reports" transform="translate(48.000000, 337.000000)">
                    <g id="file">
                        <mask id="mask-2" fill="white">
                            <use xlink:href="#path-1"></use>
                        </mask>
                        <use id="Combined-Shape" fill="#000000" fill-rule="nonzero" xlink:href="#path-1"></use>
                        <g id="COLOR/-white" mask="url(#mask-2)" fill="#FFFFFF" fill-rule="evenodd">
                            <rect id="Rectangle" x="0" y="0" width="14" height="14"></rect>
                        </g>
                    </g>
                    <circle id="Oval" fill="#2E3B44" cx="12" cy="12" r="5"></circle>
                    <g id="settings" transform="translate(9.000000, 9.000000)">
                        <mask id="mask-4" fill="white">
                            <use xlink:href="#path-3"></use>
                        </mask>
                        <use id="Combined-Shape" fill="#000000" fill-rule="nonzero" xlink:href="#path-3"></use>
                        <g id="COLOR/-white" mask="url(#mask-4)" fill="#FFFFFF" fill-rule="evenodd">
                            <rect id="Rectangle" x="0" y="0" width="8" height="8"></rect>
                        </g>
                    </g>
                </g>
            </g>
        </g>
    </g>
</svg>