<?xml version="1.0" encoding="UTF-8"?>
<svg width="15px" height="11px" viewBox="0 0 15 11" version="1.1" xmlns="http://www.w3.org/2000/svg" xmlns:xlink="http://www.w3.org/1999/xlink">
    <!-- Generator: Sketch 48.2 (47327) - http://www.bohemiancoding.com/sketch -->
    <title>Group 2</title>
    <desc>Created with Sketch.</desc>
    <defs></defs>
    <g id="Used" stroke="none" stroke-width="1" fill="none" fill-rule="evenodd" transform="translate(-1273.000000, -390.000000)">
        <g id="Group-28" transform="translate(260.000000, 93.000000)" fill="#FFFFFF">
            <g id="Page-1" transform="translate(1.000000, 0.000000)">
                <g id="Group-28" transform="translate(524.000000, 192.000000)">
                    <g id="Sales-Contest---Item-2" transform="translate(0.000000, 91.000000)">
                        <g id="Group-19" transform="translate(484.000000, 10.000000)">
                            <g id="Group-2" transform="translate(4.000000, 4.000000)">
                                <path d="M11.6158423,2.55169027 C11.6587943,2.55436315 11.6704271,2.55436315 11.7115894,2.56327277 C11.7751226,2.5766372 11.8359712,2.59891124 11.8914508,2.62920394 C11.9469305,2.66216953 11.9970411,2.70048089 12.0399931,2.7468109 C12.1679542,2.8866919 12.21717,3.08537639 12.1679542,3.26624163 C12.152742,3.32593607 12.1258971,3.38206667 12.0909986,3.43374245 C12.0677329,3.46938093 12.0596794,3.4747267 12.0319396,3.50769228 L8.31301424,7.4377248 L5.87012053,5.3314911 L1.82995016,9.83263014 C1.80131551,9.86292284 1.79505168,9.87183246 1.76194286,9.89856131 C1.71362189,9.93687267 1.65635258,9.96983825 1.59729362,9.9921123 C1.53644498,10.0143863 1.47291185,10.0277508 1.40848388,10.0330965 C1.34405592,10.0357694 1.27873312,10.0277508 1.21698965,10.0143863 C1.15524618,9.99745807 1.09529238,9.96983825 1.04160241,9.93687267 C0.893060155,9.84153976 0.793733707,9.68473048 0.776731883,9.51366581 C0.765099056,9.40675039 0.786575044,9.29716209 0.837580517,9.20093822 C0.859951339,9.15995397 0.887691157,9.1243155 0.918115475,9.08600414 L5.76005608,3.69123041 L8.22711028,5.81706528 L11.1406861,2.73879225 C11.1702156,2.70849954 11.1773742,2.70048089 11.210483,2.67553396 C11.2731213,2.62920394 11.3464976,2.59356547 11.4243481,2.57040046 C11.4717742,2.557927 11.5192004,2.55436315 11.5675214,2.54901738 C11.5836283,2.54901738 11.5997353,2.54901738 11.6158423,2.55169027" id="Fill-904"></path>
                                <polygon id="Fill-906" points="14.0889104 0.613443469 13.720578 5.29131303 9.3334591 1.07499062"></polygon>
                                <path d="M13.720578,5.29131303 L9.3334591,1.07499062 L14.0889104,0.613443469 C13.9661329,2.17438406 13.8433555,3.73433421 13.720578,5.29131303 M11.167387,1.70986557 L13.0361179,3.50455108 L13.1936984,1.51177667 C12.5189057,1.57813645 11.8431463,1.64251534 11.167387,1.70986557" id="Fill-908"></path>
                            </g>
                        </g>
                    </g>
                </g>
            </g>
        </g>
    </g>
</svg>