<?xml version="1.0" encoding="UTF-8"?>
<svg width="14px" height="14px" viewBox="0 0 14 14" version="1.1" xmlns="http://www.w3.org/2000/svg" xmlns:xlink="http://www.w3.org/1999/xlink">
    <!-- Generator: Sketch 48.2 (47327) - http://www.bohemiancoding.com/sketch -->
    <title>pie-chart</title>
    <desc>Created with Sketch.</desc>
    <defs>
        <path d="M11.8357997,9.04197743 C11.9612729,8.74524946 12.3035345,8.60642 12.6002625,8.73189316 C12.8969905,8.85736631 13.0358199,9.19962794 12.9103468,9.49635591 C11.7873333,12.1521392 9.03071697,13.7326671 6.17141754,13.3601747 C3.3121181,12.9876822 1.05243837,10.7536613 0.647318471,7.89880194 C0.242198568,5.04394262 1.79114428,2.26945718 4.4339301,1.11618924 C4.72920588,0.987335785 5.07303056,1.12224773 5.20188402,1.41752351 C5.33073747,1.71279929 5.19582553,2.05662397 4.90054975,2.18547743 C2.73827044,3.12906028 1.47095122,5.39909382 1.80241296,7.73488781 C2.1338747,10.0706818 3.98270357,11.8985172 6.32213038,12.2032837 C8.66155718,12.5080502 10.9169706,11.214891 11.8357997,9.04197743 Z M13.4172399,7 C13.4172399,7.3221661 13.1560727,7.58333333 12.8339066,7.58333333 L7.00057326,7.58333333 C6.67840715,7.58333333 6.41723993,7.3221661 6.41723993,7 L6.41723993,1.16666667 C6.41723993,0.844500563 6.67840715,0.583333333 7.00057326,0.583333333 C8.70237907,0.583333333 10.3344833,1.25937306 11.5378418,2.46273149 C12.7412002,3.66608992 13.4172399,5.29819419 13.4172399,7 Z M10.7128839,3.2876894 C9.86680131,2.44160685 8.76166759,1.91413387 7.58390659,1.78248977 L7.58390659,6.41666667 L12.2180835,6.41666667 C12.0864394,5.23890567 11.5589664,4.13377195 10.7128839,3.2876894 Z" id="path-1"></path>
    </defs>
    <g id="F&amp;I---F&amp;I-Analysis" stroke="none" stroke-width="1" fill="none" fill-rule="evenodd" transform="translate(-49.000000, -332.000000)">
        <g id="Background">
            <g id="Left-Menu" transform="translate(0.000000, 68.000000)">
                <g id="pie-chart" transform="translate(49.000000, 264.000000)">
                    <mask id="mask-2" fill="white">
                        <use xlink:href="#path-1"></use>
                    </mask>
                    <use id="Combined-Shape" fill="#000000" fill-rule="nonzero" xlink:href="#path-1"></use>
                    <g id="COLOR/-white" mask="url(#mask-2)" fill="#FFFFFF" fill-rule="evenodd">
                        <rect id="Rectangle" x="0" y="0" width="14" height="14"></rect>
                    </g>
                </g>
            </g>
        </g>
    </g>
</svg>