<svg xmlns="http://www.w3.org/2000/svg" xmlns:xlink="http://www.w3.org/1999/xlink" viewBox="0 0 48.72 50.73"><defs><style>.cls-1{fill:none;}.cls-2{isolation:isolate;}.cls-3{fill:#46b29b;}.cls-4{clip-path:url(#clip-path);}.cls-5{opacity:0.2;mix-blend-mode:multiply;}.cls-6{fill:#fff;}.cls-7{fill:#e6e6e6;}</style><clipPath id="clip-path"><circle class="cls-1" cx="24.36" cy="24.17" r="23.87"/></clipPath></defs><title>Artboard 24</title><g class="cls-2"><g id="Layer_1" data-name="Layer 1"><circle class="cls-3" cx="24.36" cy="24.17" r="23.87"/><g class="cls-4"><path class="cls-5" d="M36.87,16.47,50.09,33.23,39.56,58.91,30.61,55.7,11.66,35.08V16.83l14.55-3.22,1.6,2.6h8.51A.69.69,0,0,1,36.87,16.47Z"/></g><path class="cls-6" d="M11.66,16.14V35.08l14.55,2.71V13.61Zm8.42,13.3-1.18-3-1,2.72H16.09l1.85-3.79L16.32,21l1.62.07,1,2.78,1.28-3.06,1.71,0L20.08,25l2,4.34Z"/><path class="cls-6" d="M36.31,16.21H26.81v1.46h3.45V20.2H26.81V21h3.45v2.54H26.81v.76h3.45v2.54H26.81v.76h3.45v2.54H26.81v.76h3.45v2.51H26.81V35h9.49a.65.65,0,0,0,.63-.63V16.83A.6.6,0,0,0,36.31,16.21Zm-1,17.16H31.19V30.83h4.11Zm0-3.27H31.19V27.56h4.11Zm0-3.3H31.19V24.26h4.11Zm0-3.29H31.19V21h4.11Zm0-3.3H31.19V17.67h4.11Z"/><polygon class="cls-7" points="33.13 32.7 33.13 39.56 33.13 40.42 29.8 40.42 37.96 49.97 46.12 40.42 42.9 40.42 42.9 32.7 33.13 32.7"/></g></g></svg>