<?xml version="1.0" encoding="UTF-8"?>
<svg width="216px" height="216px" viewBox="0 0 16 16" version="1.1" xmlns="http://www.w3.org/2000/svg" xmlns:xlink="http://www.w3.org/1999/xlink">
    <!-- Generator: Sketch 52.1 (67048) - http://www.bohemiancoding.com/sketch -->
    <title>icon</title>
    <desc>Created with Sketch.</desc>
    <defs>
        <path d="M8,14 C4.6862915,14 2,11.3137085 2,8 C2,4.6862915 4.6862915,2 8,2 C11.3137085,2 14,4.6862915 14,8 C14,11.3137085 11.3137085,14 8,14 Z M8,12 C10.209139,12 12,10.209139 12,8 C12,5.790861 10.209139,4 8,4 C5.790861,4 4,5.790861 4,8 C4,10.209139 5.790861,12 8,12 Z M8,10 C6.8954305,10 6,9.1045695 6,8 C6,6.8954305 6.8954305,6 8,6 C9.1045695,6 10,6.8954305 10,8 C10,9.1045695 9.1045695,10 8,10 Z" id="path-1"></path>
    </defs>
    <g>
        <circle id="stroke" fill="#FFFFFF" fill-rule="evenodd" cx="8" cy="8" r="8"></circle>
        <mask id="mask-2" fill="white">
            <use xlink:href="#path-1"></use>
        </mask>
        <use id="marker" fill="#000000" fill-rule="evenodd" xlink:href="#path-1"></use>
    </g>
</svg>