<?xml version="1.0" encoding="UTF-8"?>
<svg width="15px" height="13px" viewBox="0 0 15 13" version="1.1" xmlns="http://www.w3.org/2000/svg" xmlns:xlink="http://www.w3.org/1999/xlink">
    <!-- Generator: Sketch 48.2 (47327) - http://www.bohemiancoding.com/sketch -->
    <title>bar-chart-2 copy</title>
    <desc>Created with Sketch.</desc>
    <defs>
        <path d="M6.875,2.5 L6.875,12.5 L8.125,12.5 L8.125,2.5 L6.875,2.5 Z M6.25,1.25 L8.75,1.25 C9.09517797,1.25 9.375,1.52982203 9.375,1.875 L9.375,13.125 C9.375,13.470178 9.09517797,13.75 8.75,13.75 L6.25,13.75 C5.90482203,13.75 5.625,13.470178 5.625,13.125 L5.625,1.875 C5.625,1.52982203 5.90482203,1.25 6.25,1.25 Z M11.25,4.375 L13.75,4.375 C14.095178,4.375 14.375,4.65482203 14.375,5 L14.375,13.125 C14.375,13.470178 14.095178,13.75 13.75,13.75 L11.25,13.75 C10.904822,13.75 10.625,13.470178 10.625,13.125 L10.625,5 C10.625,4.65482203 10.904822,4.375 11.25,4.375 Z M1.25,7.5 L3.75,7.5 C4.09517797,7.5 4.375,7.77982203 4.375,8.125 L4.375,13.125 C4.375,13.470178 4.09517797,13.75 3.75,13.75 L1.25,13.75 C0.904822031,13.75 0.625,13.470178 0.625,13.125 L0.625,8.125 C0.625,7.77982203 0.904822031,7.5 1.25,7.5 Z M11.875,5.625 L11.875,12.5 L13.125,12.5 L13.125,5.625 L11.875,5.625 Z M1.875,12.5 L3.125,12.5 L3.125,8.75 L1.875,8.75 L1.875,12.5 Z" id="path-1"></path>
    </defs>
    <g id="F&amp;I---F&amp;I-Analysis" stroke="none" stroke-width="1" fill="none" fill-rule="evenodd" transform="translate(-49.000000, -130.000000)">
        <g id="Background">
            <g id="Left-Menu" transform="translate(0.000000, 68.000000)">
                <g id="bar-chart-2" transform="translate(49.000000, 61.000000)">
                    <mask id="mask-2" fill="white">
                        <use xlink:href="#path-1"></use>
                    </mask>
                    <use id="Combined-Shape" fill="#000000" fill-rule="nonzero" xlink:href="#path-1"></use>
                    <g id="COLOR/-white" mask="url(#mask-2)" fill="#FFFFFF" fill-rule="evenodd">
                        <rect id="Rectangle" x="0" y="0" width="15" height="15"></rect>
                    </g>
                </g>
            </g>
        </g>
    </g>
</svg>