<svg xmlns="http://www.w3.org/2000/svg" xmlns:xlink="http://www.w3.org/1999/xlink" viewBox="0 0 48.72 50.73"><defs><style>.cls-1{fill:none;}.cls-2{isolation:isolate;}.cls-3{fill:#1e7ad6;}.cls-4{clip-path:url(#clip-path);}.cls-5{opacity:0.15;mix-blend-mode:multiply;}.cls-6{fill:#fefefe;}.cls-7{fill:#e6e6e6;}</style><clipPath id="clip-path"><circle class="cls-1" cx="24.36" cy="24.17" r="23.87"/></clipPath></defs><title>Artboard 24</title><g class="cls-2"><g id="Layer_1" data-name="Layer 1"><circle class="cls-3" cx="24.36" cy="24.17" r="23.87"/><g class="cls-4"><polygon class="cls-5" points="32.14 11.66 58.52 34.26 51.65 53.41 37.96 53.41 17.12 36.56 10.57 25.29 10.79 23.58 32.14 11.66"/></g><path class="cls-6" d="M32.14,11.66,27,22.61c-1.18,2.47-1.82,2.79-4.5,2.47-3.86-.43-7.73-.64-11.59-1-.54-.11-.43-.32-.11-.54.75-.43,1.61-1,2.36-1.4C19,18.75,24.95,15.31,30.85,12,31.28,11.77,31.6,11.34,32.14,11.66Z"/><path class="cls-6" d="M33.53,12.85c1.72,3.11,3.54,6.22,5.26,9.23.21.43.54.86.86,1.5-2.36-.22-4.51-.43-6.76-.54L29,22.72c-.54,0-.86-.11-.54-.75,1.5-3.22,3-6.44,4.51-9.55A1.08,1.08,0,0,1,33.53,12.85Z"/><path class="cls-6" d="M11.43,25.29c2.36.21,4.72.43,7.08.75.86.11,1.72.11,2.68.22.54,0,.75.11.43.64l-4.5,9.66c-1.72-2.9-3.44-5.9-5.15-8.8-.43-.86-1-1.61-1.4-2.47Z"/><path class="cls-6" d="M18.3,36.88c.32-.75.64-1.29.86-1.82,1.18-2.68,2.47-5.26,3.65-7.94a.94.94,0,0,1,1-.65,3.53,3.53,0,0,0,3.65-2,1,1,0,0,1,1.29-.65c3.43.32,6.87.65,10.62,1Z"/><polygon class="cls-7" points="26.66 46.22 35.25 46.22 35.25 49.44 45.87 41.39 35.25 33.23 35.25 36.45 34.28 36.45 26.66 36.45 26.66 46.22"/></g></g></svg>