<?xml version="1.0" encoding="UTF-8" standalone="no"?>
<!-- Generator: Adobe Illustrator 19.0.0, SVG Export Plug-In . SVG Version: 6.00 Build 0)  -->

<svg
   xmlns:dc="http://purl.org/dc/elements/1.1/"
   xmlns:cc="http://creativecommons.org/ns#"
   xmlns:rdf="http://www.w3.org/1999/02/22-rdf-syntax-ns#"
   xmlns:svg="http://www.w3.org/2000/svg"
   xmlns="http://www.w3.org/2000/svg"
   xmlns:sodipodi="http://sodipodi.sourceforge.net/DTD/sodipodi-0.dtd"
   xmlns:inkscape="http://www.inkscape.org/namespaces/inkscape"
   version="1.1"
   id="Layer_1"
   x="0px"
   y="0px"
   viewBox="0 0 512 512"
   style="enable-background:new 0 0 512 512;"
   xml:space="preserve"
   width="512px"
   height="512px"
   inkscape:version="0.91 r13725"
   sodipodi:docname="maximize-white.svg"><metadata
     id="metadata47"><rdf:RDF><cc:Work
         rdf:about=""><dc:format>image/svg+xml</dc:format><dc:type
           rdf:resource="http://purl.org/dc/dcmitype/StillImage" /><dc:title></dc:title></cc:Work></rdf:RDF></metadata><defs
     id="defs45" /><sodipodi:namedview
     pagecolor="#ffffff"
     bordercolor="#666666"
     borderopacity="1"
     objecttolerance="10"
     gridtolerance="10"
     guidetolerance="10"
     inkscape:pageopacity="0"
     inkscape:pageshadow="2"
     inkscape:window-width="1920"
     inkscape:window-height="1027"
     id="namedview43"
     showgrid="false"
     inkscape:zoom="0.921875"
     inkscape:cx="110.47235"
     inkscape:cy="250.48673"
     inkscape:window-x="2560"
     inkscape:window-y="0"
     inkscape:window-maximized="1"
     inkscape:current-layer="g7" /><g
     id="g7"><path
       d="m 283.58225,228.41775 c 8.331,8.331 21.839,8.331 30.17,0 l 155.582,-155.582 0,97.83 c 0,11.782 9.551,21.333 21.333,21.333 11.782,0 21.333,-9.551 21.333,-21.333 l 0,-149.333 c 0,-0.007 -0.001,-0.015 -0.001,-0.022 -0.001,-0.695 -0.037,-1.39 -0.105,-2.083 -0.031,-0.318 -0.091,-0.627 -0.136,-0.94 -0.054,-0.375 -0.098,-0.75 -0.171,-1.122 -0.071,-0.359 -0.17,-0.708 -0.259,-1.061 -0.081,-0.322 -0.151,-0.645 -0.248,-0.964 -0.105,-0.346 -0.234,-0.68 -0.356,-1.018 -0.114,-0.318 -0.219,-0.639 -0.349,-0.953 -0.131,-0.316 -0.284,-0.618 -0.43,-0.926 -0.152,-0.323 -0.296,-0.649 -0.465,-0.966 -0.158,-0.295 -0.338,-0.575 -0.509,-0.861 -0.186,-0.311 -0.361,-0.626 -0.564,-0.929 -0.211,-0.316 -0.447,-0.613 -0.674,-0.917 -0.19,-0.253 -0.365,-0.513 -0.568,-0.759 -0.892,-1.087 -1.889,-2.085 -2.977,-2.977 -0.246,-0.202 -0.506,-0.378 -0.759,-0.568 -0.304,-0.228 -0.601,-0.463 -0.917,-0.674 -0.303,-0.203 -0.618,-0.379 -0.929,-0.564 -0.286,-0.171 -0.566,-0.351 -0.861,-0.509 -0.317,-0.169 -0.643,-0.313 -0.966,-0.465 -0.308,-0.145 -0.611,-0.299 -0.926,-0.43 -0.314,-0.13 -0.635,-0.235 -0.953,-0.349 -0.338,-0.122 -0.672,-0.251 -1.018,-0.356 -0.318,-0.096 -0.642,-0.167 -0.964,-0.248 -0.353,-0.089 -0.701,-0.188 -1.061,-0.259 -0.372,-0.074 -0.748,-0.118 -1.122,-0.171 -0.314,-0.045 -0.622,-0.104 -0.94,-0.136 -0.693,-0.068 -1.388,-0.105 -2.083,-0.105 -0.007,0 -0.015,-0.001 -0.022,-0.001 l -149.333,0 c -11.782,0 -21.333,9.551 -21.333,21.333 0,11.782 9.551,21.333 21.333,21.333 l 97.83,0 -155.582,155.582 c -8.331,8.331 -8.331,21.838 0,30.17 z"
       id="path9"
       inkscape:connector-curvature="0"
       style="fill:#ffffff" /><path
       d="m 0.10576944,492.77225 c 0.031,0.318 0.091,0.627 0.136,0.94 0.054,0.375 0.098,0.75 0.171,1.122 0.071,0.359 0.17,0.708 0.259,1.061 0.081,0.322 0.151,0.645 0.248,0.964 0.10499996,0.346 0.23399996,0.68 0.35599996,1.018 0.114,0.318 0.219,0.639 0.349,0.953 0.131,0.316 0.284,0.618 0.43,0.926 0.152,0.323 0.296,0.649 0.465,0.966 0.158,0.295 0.338,0.575 0.509,0.861 0.186,0.311 0.361,0.626 0.564,0.929 0.211,0.316 0.447,0.613 0.674,0.917 0.19,0.253 0.365,0.513 0.568,0.759 0.892,1.087 1.889,2.085 2.977,2.977 0.246,0.202 0.506,0.378 0.759,0.568 0.304,0.228 0.601,0.463 0.917,0.674 0.303,0.203 0.6179996,0.379 0.9289996,0.564 0.286,0.171 0.566,0.351 0.861,0.509 0.317,0.169 0.643,0.313 0.966,0.465 0.308,0.145 0.611,0.299 0.926,0.43 0.314,0.13 0.635,0.235 0.953,0.349 0.338,0.122 0.672,0.251 1.018,0.356 0.318,0.096 0.642,0.167 0.964,0.248 0.353,0.089 0.701,0.188 1.061,0.259 0.372,0.074 0.748,0.118 1.122,0.171 0.314,0.045 0.622,0.104 0.94,0.136 0.7,0.069 1.402,0.106 2.105,0.106 l 0,0 149.333001,0 c 11.782,0 21.333,-9.551 21.333,-21.333 0,-11.782 -9.551,-21.333 -21.333,-21.333 l -97.830001,0 155.582001,-155.582 c 8.331,-8.331 8.331,-21.839 0,-30.17 -8.331,-8.331 -21.839,-8.331 -30.17,0 l -155.582001,155.582 0,-97.83 c 0,-11.782 -9.551,-21.333 -21.333,-21.333 -11.7819996,0 -21.33299956425,9.551 -21.33299956425,21.333 l 0,149.333 0,0 c -9.9999575e-4,0.703 0.0370000043,1.405 0.10600000425,2.105 z"
       id="path11"
       inkscape:connector-curvature="0"
       style="fill:#ffffff" /></g><g
     id="g13" /><g
     id="g15" /><g
     id="g17" /><g
     id="g19" /><g
     id="g21" /><g
     id="g23" /><g
     id="g25" /><g
     id="g27" /><g
     id="g29" /><g
     id="g31" /><g
     id="g33" /><g
     id="g35" /><g
     id="g37" /><g
     id="g39" /><g
     id="g41" /></svg>