<?xml version="1.0" encoding="utf-8"?>
<!-- Generator: Adobe Illustrator 22.0.1, SVG Export Plug-In . SVG Version: 6.00 Build 0)  -->
<svg version="1.1" id="Слой_4" xmlns="http://www.w3.org/2000/svg" xmlns:xlink="http://www.w3.org/1999/xlink" x="0px" y="0px"
	 viewBox="0 0 97.3 121.3" style="enable-background:new 0 0 97.3 121.3;" xml:space="preserve">
<style type="text/css">
	.st0{fill:#1E8700;}
</style>
<path class="st0" d="M74.9,36.9c0,11.5-8.3,17-10.2,18.9c-7.3,6.9-12.8,10.5-13.6,13.5c-0.8,3.3-0.4,13.2-0.3,16.9
	c0,0.5,0.2,1.1,0.6,1.5c3.9,3.5,7.3,5.1,7.3,10c0,3.6-3,8.1-8.5,8.1c-5.4,0-9.5-4.4-9.5-8.1c0-5.2,3.6-6.8,7.4-10.1
	c0.4-0.3,0.6-0.8,0.7-1.3c0.5-3.3,0.3-13,0.1-16.8c-0.1-1.3-2.6-3.7-3.8-4.9c-2.6-2.6-4-3.6-9.3-8.7c-1.7-1.7-10.2-7.2-10.2-18.9
	c0-13.5,10.5-23.5,24.7-23.5C64.4,13.4,74.9,23.4,74.9,36.9z"/>
</svg>
