<?xml version="1.0" standalone="no"?>
<!DOCTYPE svg PUBLIC "-//W3C//DTD SVG 20010904//EN"
 "http://www.w3.org/TR/2001/REC-SVG-20010904/DTD/svg10.dtd">
<svg version="1.0" xmlns="http://www.w3.org/2000/svg"
 width="310.000000pt" height="310.000000pt" viewBox="0 0 310.000000 310.000000"
 preserveAspectRatio="xMidYMid meet">
<metadata>
Created by potrace 1.11, written by Peter Selinger 2001-2013
</metadata>
<g transform="translate(0.000000,310.000000) scale(0.100000,-0.100000)"
fill="#000000" stroke="none">
<path d="M1325 3084 c-398 -75 -702 -241 -938 -511 -416 -478 -504 -1144 -225
-1708 381 -769 1306 -1083 2073 -703 309 154 549 394 703 703 216 437 216 933
0 1370 -265 534 -805 868 -1398 864 -80 -1 -176 -7 -215 -15z m217 -771 c22
-25 487 -718 493 -735 4 -9 -98 -174 -245 -401 l-252 -387 -125 0 c-68 0 -123
4 -121 8 2 5 99 175 216 379 116 204 212 376 212 383 0 7 -36 74 -79 149 -323
556 -350 605 -338 613 6 4 60 8 118 8 88 0 108 -3 121 -17z"/>
</g>
</svg>
