<?xml version="1.0" encoding="UTF-8" standalone="no"?>
<svg
   xmlns:dc="http://purl.org/dc/elements/1.1/"
   xmlns:cc="http://creativecommons.org/ns#"
   xmlns:rdf="http://www.w3.org/1999/02/22-rdf-syntax-ns#"
   xmlns:svg="http://www.w3.org/2000/svg"
   xmlns="http://www.w3.org/2000/svg"
   xmlns:sodipodi="http://sodipodi.sourceforge.net/DTD/sodipodi-0.dtd"
   xmlns:inkscape="http://www.inkscape.org/namespaces/inkscape"
   width="27"
   height="18"
   viewBox="0 0 27 18"
   version="1.1"
   id="svg2"
   inkscape:version="0.91 r13725"
   sodipodi:docname="slider-arrow-down.svg">
  <metadata
     id="metadata19">
    <rdf:RDF>
      <cc:Work
         rdf:about="">
        <dc:format>image/svg+xml</dc:format>
        <dc:type
           rdf:resource="http://purl.org/dc/dcmitype/StillImage" />
        <dc:title>Fill 689</dc:title>
      </cc:Work>
    </rdf:RDF>
  </metadata>
  <sodipodi:namedview
     pagecolor="#ffffff"
     bordercolor="#666666"
     borderopacity="1"
     objecttolerance="10"
     gridtolerance="10"
     guidetolerance="10"
     inkscape:pageopacity="0"
     inkscape:pageshadow="2"
     inkscape:window-width="1920"
     inkscape:window-height="1027"
     id="namedview17"
     showgrid="false"
     inkscape:zoom="17.481481"
     inkscape:cx="5.3883565"
     inkscape:cy="8.3663629"
     inkscape:window-x="2560"
     inkscape:window-y="0"
     inkscape:window-maximized="1"
     inkscape:current-layer="Group-690" />
  <!-- Generator: Sketch 47.1 (45422) - http://www.bohemiancoding.com/sketch -->
  <title
     id="title4">Fill 689</title>
  <desc
     id="desc6">Created with Sketch.</desc>
  <defs
     id="defs8" />
  <g
     id="Page-1"
     transform="matrix(0,-1,1,0,-4.6158337,14.285595)"
     style="fill:none;fill-rule:evenodd;stroke:none;stroke-width:1">
    <g
       id="Dashboard---ON---Right-Panel-In-Copy"
       transform="translate(-1765,-196)"
       style="fill:#ffffff">
      <g
         id="DashboardSummary-New-V4"
         transform="translate(225,138)">
        <g
           id="Box---Tracking"
           transform="translate(390,0)">
          <g
             id="Group-690"
             transform="translate(52,21)">
            <g
               id="Arrows---Tracking"
               transform="matrix(-1,0,0,-1,2210.6084,69.134495)">
              <path
                 d="m 1102.3906,26.9932 c -0.057,-0.007 -0.11,-0.01 -0.167,-0.017 -0.11,-0.013 -0.217,-0.03 -0.326,-0.053 -0.434,-0.086 -0.851,-0.253 -1.228,-0.491 -0.327,-0.206 -0.624,-0.462 -0.87,-0.759 -0.214,-0.257 -0.39,-0.54 -0.527,-0.841 -0.184,-0.403 -0.294,-0.84 -0.323,-1.284 -0.034,-0.496 0.033,-1 0.2,-1.471 0.126,-0.363 0.313,-0.71 0.547,-1.017 0.066,-0.089 0.136,-0.173 0.213,-0.256 0.037,-0.04 0.077,-0.081 0.113,-0.121 l 6.774,-6.773 -6.694,-6.694 -0.113,-0.117 c -0.037,-0.043 -0.074,-0.083 -0.11,-0.127 -0.07,-0.083 -0.136,-0.172 -0.2,-0.263 -0.254,-0.363 -0.437,-0.774 -0.547,-1.203 -0.08,-0.321 -0.117,-0.655 -0.11,-0.988 0.01,-0.497 0.123,-0.994 0.33,-1.448 0.207,-0.453 0.504,-0.863 0.87,-1.2 0.287,-0.26 0.614,-0.477 0.968,-0.637 0.403,-0.183 0.84,-0.294 1.28,-0.324 0.497,-0.033 1.001,0.037 1.471,0.2 0.367,0.127 0.711,0.314 1.02,0.551 0.087,0.066 0.174,0.137 0.254,0.21 0.04,0.04 0.08,0.076 0.12,0.117 l 9.308,9.308 c 0.103,0.106 0.13,0.13 0.224,0.244 0.18,0.213 0.334,0.446 0.457,0.693 0.254,0.493 0.389,1.04 0.403,1.594 0.014,0.558 -0.1,1.11 -0.33,1.614 -0.137,0.304 -0.317,0.587 -0.53,0.841 -0.094,0.113 -0.121,0.14 -0.224,0.246 l -9.388,9.389 c -0.107,0.103 -0.134,0.13 -0.247,0.223 -0.127,0.107 -0.26,0.208 -0.4,0.293 -0.424,0.268 -0.898,0.445 -1.391,0.521 -0.163,0.026 -0.33,0.044 -0.497,0.047 l -0.163,0 c -0.057,-0.003 -0.113,-0.007 -0.167,-0.007"
                 id="Fill-689"
                 inkscape:connector-curvature="0" />
            </g>
          </g>
        </g>
      </g>
    </g>
  </g>
</svg>
