<?xml version="1.0" encoding="utf-8"?>
<!-- Svg Vector Icons : http://www.onlinewebfonts.com/icon -->
<!DOCTYPE svg PUBLIC "-//W3C//DTD SVG 1.1//EN" "http://www.w3.org/Graphics/SVG/1.1/DTD/svg11.dtd">
<svg version="1.1" xmlns="http://www.w3.org/2000/svg" xmlns:xlink="http://www.w3.org/1999/xlink" x="0px" y="0px" viewBox="0 0 1000 1000" enable-background="new 0 0 1000 1000" xml:space="preserve">
<metadata> Svg Vector Icons : http://www.onlinewebfonts.com/icon </metadata>
<g><path d="M294.3,349.9c-18.3,0-29.9-4.9-35-14.7c-5.1-9.8-1.5-22.5,10.7-38c12.8-16.2,27.7-35.8,44.6-58.8c16.9-23,34.5-46.8,52.8-71.5c18.3-24.7,36-48.7,53.3-72c17.2-23.3,32.6-43.5,46.2-60.4c12.2-15.6,23.8-23.7,35-24.3c11.2-0.7,23.2,6.4,36,21.3c12.8,15.6,27.6,34.3,44.1,56.3c16.6,22,33.6,45,51.2,69c17.6,24,35,47.5,52.2,70.5c17.2,23,32.6,42.9,46.2,59.9c14.9,18.3,20.6,33.5,17.2,45.6c-3.4,12.2-14.5,17.9-33.5,17.2c-11.5,0-26.4,0.3-44.6,1c-18.3,0.7-33.5,1-45.6,1c-13.5,0.7-21.8,4.9-24.9,12.7c-3,7.8-4.6,18.4-4.6,32l0,49.7c0,18.3,0.2,36.9,0.5,55.8c0.3,18.9,0.5,37.5,0.5,55.8v50.7c0,6.8-0.5,13.9-1.5,21.3c-1,7.4-3.4,14.2-7.1,20.3c-3.7,6.1-9.1,11.2-16.2,15.2c-7.1,4.1-16.7,6.1-28.9,6.1c-14.2,0-27.2,0.2-39.1,0.5c-11.8,0.3-25.9,0.5-42.1,0.5c-22.3,0-37.4-5.2-45.1-15.7c-7.8-10.5-11.7-27.2-11.7-50.2V567c0-15.6-0.2-32.1-0.5-49.7c-0.3-17.6-0.5-35.2-0.5-52.8v-47.7c0-20.3-2-36.4-6.1-48.2c-4.1-11.8-13.2-17.4-27.4-16.7c-10.1,0-22.5-0.3-37-1C318.8,350.2,305.8,349.9,294.3,349.9L294.3,349.9z M975,868.3c4.1,16.2,3.2,31.8-2.5,46.7c-5.8,14.9-14.7,27.9-26.9,39.1c-12.2,11.2-27.1,20-44.6,26.4c-17.6,6.4-36.5,9.6-56.8,9.6H156.3c-24.3,0-45.8-4.4-64.4-13.2c-18.6-8.8-33.5-19.6-44.6-32.5c-11.2-12.8-18.6-26.9-22.3-42.1c-3.7-15.2-3.2-28.9,1.5-41.1c4.1-9.5,8.1-19.3,12.2-29.4c3.4-8.8,7.4-18.8,12.2-29.9c4.7-11.2,9.8-22.5,15.2-34l38.5-93.3h115.7l-43.6,127.8h653.3l-43.6-127.8h110.6c14.2,34.5,27.1,65.6,38.6,93.3c4.7,12.2,9.5,24,14.2,35.5c4.7,11.5,9,21.8,12.7,30.9c3.7,9.1,6.8,16.9,9.1,23.3C973.8,864,975,867.6,975,868.3L975,868.3z"/></g>
</svg>